<?xml version="1.0" encoding="utf-8" standalone="no"?>
<!DOCTYPE svg PUBLIC "-//W3C//DTD SVG 1.1//EN"
  "http://www.w3.org/Graphics/SVG/1.1/DTD/svg11.dtd">
<svg xmlns:xlink="http://www.w3.org/1999/xlink" width="739.8pt" height="457.92pt" viewBox="0 0 739.8 457.92" xmlns="http://www.w3.org/2000/svg" version="1.1">
 <metadata>
  <rdf:RDF xmlns:dc="http://purl.org/dc/elements/1.1/" xmlns:cc="http://creativecommons.org/ns#" xmlns:rdf="http://www.w3.org/1999/02/22-rdf-syntax-ns#">
   <cc:Work>
    <dc:type rdf:resource="http://purl.org/dc/dcmitype/StillImage"/>
    <dc:date>2026-07-11T15:15:28.774985</dc:date>
    <dc:format>image/svg+xml</dc:format>
    <dc:creator>
     <cc:Agent>
      <dc:title>Matplotlib v3.11.0, https://matplotlib.org/</dc:title>
     </cc:Agent>
    </dc:creator>
   </cc:Work>
  </rdf:RDF>
 </metadata>
 <defs>
  <style type="text/css">*{stroke-linejoin: round; stroke-linecap: butt}</style>
 </defs>
 <g id="figure_1">
  <g id="patch_1">
   <path d="M 0 457.92 
L 739.8 457.92 
L 739.8 0 
L 0 0 
z
" style="fill: #f8fafc"/>
  </g>
  <g id="axes_1">
   <g id="patch_2">
    <path d="M 369.9 273.312 
C 392.985399 273.312 415.128389 267.704152 431.452231 257.72352 
C 447.776074 247.742888 456.948 234.204345 456.948 220.0896 
C 456.948 205.974855 447.776074 192.436312 431.452231 182.45568 
C 415.128389 172.475048 392.985399 166.8672 369.9 166.8672 
C 346.814601 166.8672 324.671611 172.475048 308.347769 182.45568 
C 292.023926 192.436312 282.852 205.974855 282.852 220.0896 
C 282.852 234.204345 292.023926 247.742888 308.347769 257.72352 
C 324.671611 267.704152 346.814601 273.312 369.9 273.312 
z
" clip-path="url(#p4c9faa2e77)" style="fill: #dde7f2; stroke: #1f2937; stroke-width: 2; stroke-linejoin: miter"/>
   </g>
   <g id="patch_3">
    <path d="M 10.827 166.8672 
L 279.225 166.8672 
L 279.225 73.728 
L 10.827 73.728 
z
" clip-path="url(#p4c9faa2e77)" style="fill: #ede7d6; stroke: #1f2937; stroke-width: 1.5; stroke-linejoin: miter"/>
   </g>
   <g id="patch_4">
    <path d="M 460.575 166.8672 
L 728.973 166.8672 
L 728.973 73.728 
L 460.575 73.728 
z
" clip-path="url(#p4c9faa2e77)" style="fill: #e3e9d7; stroke: #1f2937; stroke-width: 1.5; stroke-linejoin: miter"/>
   </g>
   <g id="patch_5">
    <path d="M 10.827 388.6272 
L 279.225 388.6272 
L 279.225 295.488 
L 10.827 295.488 
z
" clip-path="url(#p4c9faa2e77)" style="fill: #f1ddd3; stroke: #1f2937; stroke-width: 1.5; stroke-linejoin: miter"/>
   </g>
   <g id="patch_6">
    <path d="M 460.575 388.6272 
L 728.973 388.6272 
L 728.973 295.488 
L 460.575 295.488 
z
" clip-path="url(#p4c9faa2e77)" style="fill: #e7dcea; stroke: #1f2937; stroke-width: 1.5; stroke-linejoin: miter"/>
   </g>
   <g id="text_1">
    <!-- Symbol T -->
    <g style="fill: #1f2937" transform="translate(325.785 206.76548) scale(0.17 -0.17)">
     <defs>
      <path id="DejaVuSans-Bold-36" d="M 3834 4519 
L 3834 3531 
Q 3450 3703 3084 3790 
Q 2719 3878 2394 3878 
Q 1963 3878 1756 3759 
Q 1550 3641 1550 3391 
Q 1550 3203 1689 3098 
Q 1828 2994 2194 2919 
L 2706 2816 
Q 3484 2659 3812 2340 
Q 4141 2022 4141 1434 
Q 4141 663 3683 286 
Q 3225 -91 2284 -91 
Q 1841 -91 1394 -6 
Q 947 78 500 244 
L 500 1259 
Q 947 1022 1364 901 
Q 1781 781 2169 781 
Q 2563 781 2772 912 
Q 2981 1044 2981 1288 
Q 2981 1506 2839 1625 
Q 2697 1744 2272 1838 
L 1806 1941 
Q 1106 2091 782 2419 
Q 459 2747 459 3303 
Q 459 4000 909 4375 
Q 1359 4750 2203 4750 
Q 2588 4750 2994 4692 
Q 3400 4634 3834 4519 
z
" transform="scale(0.015625)"/>
      <path id="DejaVuSans-Bold-5c" d="M 78 3500 
L 1197 3500 
L 2138 1125 
L 2938 3500 
L 4056 3500 
L 2584 -331 
Q 2363 -916 2067 -1148 
Q 1772 -1381 1288 -1381 
L 641 -1381 
L 641 -647 
L 991 -647 
Q 1275 -647 1404 -556 
Q 1534 -466 1606 -231 
L 1638 -134 
L 78 3500 
z
" transform="scale(0.015625)"/>
      <path id="DejaVuSans-Bold-50" d="M 3781 2919 
Q 3994 3244 4286 3414 
Q 4578 3584 4928 3584 
Q 5531 3584 5847 3212 
Q 6163 2841 6163 2131 
L 6163 0 
L 5038 0 
L 5038 1825 
Q 5041 1866 5042 1909 
Q 5044 1953 5044 2034 
Q 5044 2406 4934 2573 
Q 4825 2741 4581 2741 
Q 4263 2741 4089 2478 
Q 3916 2216 3909 1719 
L 3909 0 
L 2784 0 
L 2784 1825 
Q 2784 2406 2684 2573 
Q 2584 2741 2328 2741 
Q 2006 2741 1831 2477 
Q 1656 2213 1656 1722 
L 1656 0 
L 531 0 
L 531 3500 
L 1656 3500 
L 1656 2988 
Q 1863 3284 2130 3434 
Q 2397 3584 2719 3584 
Q 3081 3584 3359 3409 
Q 3638 3234 3781 2919 
z
" transform="scale(0.015625)"/>
      <path id="DejaVuSans-Bold-45" d="M 2400 722 
Q 2759 722 2948 984 
Q 3138 1247 3138 1747 
Q 3138 2247 2948 2509 
Q 2759 2772 2400 2772 
Q 2041 2772 1848 2508 
Q 1656 2244 1656 1747 
Q 1656 1250 1848 986 
Q 2041 722 2400 722 
z
M 1656 2988 
Q 1888 3294 2169 3439 
Q 2450 3584 2816 3584 
Q 3463 3584 3878 3070 
Q 4294 2556 4294 1747 
Q 4294 938 3878 423 
Q 3463 -91 2816 -91 
Q 2450 -91 2169 54 
Q 1888 200 1656 506 
L 1656 0 
L 538 0 
L 538 4863 
L 1656 4863 
L 1656 2988 
z
" transform="scale(0.015625)"/>
      <path id="DejaVuSans-Bold-52" d="M 2203 2784 
Q 1831 2784 1636 2517 
Q 1441 2250 1441 1747 
Q 1441 1244 1636 976 
Q 1831 709 2203 709 
Q 2569 709 2762 976 
Q 2956 1244 2956 1747 
Q 2956 2250 2762 2517 
Q 2569 2784 2203 2784 
z
M 2203 3584 
Q 3106 3584 3614 3096 
Q 4122 2609 4122 1747 
Q 4122 884 3614 396 
Q 3106 -91 2203 -91 
Q 1297 -91 786 396 
Q 275 884 275 1747 
Q 275 2609 786 3096 
Q 1297 3584 2203 3584 
z
" transform="scale(0.015625)"/>
      <path id="DejaVuSans-Bold-4f" d="M 538 4863 
L 1656 4863 
L 1656 0 
L 538 0 
L 538 4863 
z
" transform="scale(0.015625)"/>
      <path id="DejaVuSans-Bold-3" transform="scale(0.015625)"/>
      <path id="DejaVuSans-Bold-37" d="M 31 4666 
L 4331 4666 
L 4331 3756 
L 2784 3756 
L 2784 0 
L 1581 0 
L 1581 3756 
L 31 3756 
L 31 4666 
z
" transform="scale(0.015625)"/>
     </defs>
     <use xlink:href="#DejaVuSans-Bold-36"/>
     <use xlink:href="#DejaVuSans-Bold-5c" transform="translate(72.015625 0)"/>
     <use xlink:href="#DejaVuSans-Bold-50" transform="translate(137.203125 0)"/>
     <use xlink:href="#DejaVuSans-Bold-45" transform="translate(241.40625 0)"/>
     <use xlink:href="#DejaVuSans-Bold-52" transform="translate(312.984375 0)"/>
     <use xlink:href="#DejaVuSans-Bold-4f" transform="translate(381.6875 0)"/>
     <use xlink:href="#DejaVuSans-Bold-3" transform="translate(415.96875 0)"/>
     <use xlink:href="#DejaVuSans-Bold-37" transform="translate(450.78125 0)"/>
    </g>
   </g>
   <g id="text_2">
    <!-- Linear mapping -->
    <g style="fill: #1f2937" transform="translate(322.9275 228.529496) scale(0.12 -0.12)">
     <defs>
      <path id="DejaVuSans-2f" d="M 628 4666 
L 1259 4666 
L 1259 531 
L 3531 531 
L 3531 0 
L 628 0 
L 628 4666 
z
" transform="scale(0.015625)"/>
      <path id="DejaVuSans-4c" d="M 603 3500 
L 1178 3500 
L 1178 0 
L 603 0 
L 603 3500 
z
M 603 4863 
L 1178 4863 
L 1178 4134 
L 603 4134 
L 603 4863 
z
" transform="scale(0.015625)"/>
      <path id="DejaVuSans-51" d="M 3513 2113 
L 3513 0 
L 2938 0 
L 2938 2094 
Q 2938 2591 2744 2837 
Q 2550 3084 2163 3084 
Q 1697 3084 1428 2787 
Q 1159 2491 1159 1978 
L 1159 0 
L 581 0 
L 581 3500 
L 1159 3500 
L 1159 2956 
Q 1366 3272 1645 3428 
Q 1925 3584 2291 3584 
Q 2894 3584 3203 3211 
Q 3513 2838 3513 2113 
z
" transform="scale(0.015625)"/>
      <path id="DejaVuSans-48" d="M 3597 1894 
L 3597 1613 
L 953 1613 
Q 991 1019 1311 708 
Q 1631 397 2203 397 
Q 2534 397 2845 478 
Q 3156 559 3463 722 
L 3463 178 
Q 3153 47 2828 -22 
Q 2503 -91 2169 -91 
Q 1331 -91 842 396 
Q 353 884 353 1716 
Q 353 2575 817 3079 
Q 1281 3584 2069 3584 
Q 2775 3584 3186 3129 
Q 3597 2675 3597 1894 
z
M 3022 2063 
Q 3016 2534 2758 2815 
Q 2500 3097 2075 3097 
Q 1594 3097 1305 2825 
Q 1016 2553 972 2059 
L 3022 2063 
z
" transform="scale(0.015625)"/>
      <path id="DejaVuSans-44" d="M 2194 1759 
Q 1497 1759 1228 1600 
Q 959 1441 959 1056 
Q 959 750 1161 570 
Q 1363 391 1709 391 
Q 2188 391 2477 730 
Q 2766 1069 2766 1631 
L 2766 1759 
L 2194 1759 
z
M 3341 1997 
L 3341 0 
L 2766 0 
L 2766 531 
Q 2569 213 2275 61 
Q 1981 -91 1556 -91 
Q 1019 -91 701 211 
Q 384 513 384 1019 
Q 384 1609 779 1909 
Q 1175 2209 1959 2209 
L 2766 2209 
L 2766 2266 
Q 2766 2663 2505 2880 
Q 2244 3097 1772 3097 
Q 1472 3097 1187 3025 
Q 903 2953 641 2809 
L 641 3341 
Q 956 3463 1253 3523 
Q 1550 3584 1831 3584 
Q 2591 3584 2966 3190 
Q 3341 2797 3341 1997 
z
" transform="scale(0.015625)"/>
      <path id="DejaVuSans-55" d="M 2631 2963 
Q 2534 3019 2420 3045 
Q 2306 3072 2169 3072 
Q 1681 3072 1420 2755 
Q 1159 2438 1159 1844 
L 1159 0 
L 581 0 
L 581 3500 
L 1159 3500 
L 1159 2956 
Q 1341 3275 1631 3429 
Q 1922 3584 2338 3584 
Q 2397 3584 2469 3576 
Q 2541 3569 2628 3553 
L 2631 2963 
z
" transform="scale(0.015625)"/>
      <path id="DejaVuSans-3" transform="scale(0.015625)"/>
      <path id="DejaVuSans-50" d="M 3328 2828 
Q 3544 3216 3844 3400 
Q 4144 3584 4550 3584 
Q 5097 3584 5394 3201 
Q 5691 2819 5691 2113 
L 5691 0 
L 5113 0 
L 5113 2094 
Q 5113 2597 4934 2840 
Q 4756 3084 4391 3084 
Q 3944 3084 3684 2787 
Q 3425 2491 3425 1978 
L 3425 0 
L 2847 0 
L 2847 2094 
Q 2847 2600 2669 2842 
Q 2491 3084 2119 3084 
Q 1678 3084 1418 2786 
Q 1159 2488 1159 1978 
L 1159 0 
L 581 0 
L 581 3500 
L 1159 3500 
L 1159 2956 
Q 1356 3278 1631 3431 
Q 1906 3584 2284 3584 
Q 2666 3584 2933 3390 
Q 3200 3197 3328 2828 
z
" transform="scale(0.015625)"/>
      <path id="DejaVuSans-53" d="M 1159 525 
L 1159 -1331 
L 581 -1331 
L 581 3500 
L 1159 3500 
L 1159 2969 
Q 1341 3281 1617 3432 
Q 1894 3584 2278 3584 
Q 2916 3584 3314 3078 
Q 3713 2572 3713 1747 
Q 3713 922 3314 415 
Q 2916 -91 2278 -91 
Q 1894 -91 1617 61 
Q 1341 213 1159 525 
z
M 3116 1747 
Q 3116 2381 2855 2742 
Q 2594 3103 2138 3103 
Q 1681 3103 1420 2742 
Q 1159 2381 1159 1747 
Q 1159 1113 1420 752 
Q 1681 391 2138 391 
Q 2594 391 2855 752 
Q 3116 1113 3116 1747 
z
" transform="scale(0.015625)"/>
      <path id="DejaVuSans-4a" d="M 2906 1791 
Q 2906 2416 2648 2759 
Q 2391 3103 1925 3103 
Q 1463 3103 1205 2759 
Q 947 2416 947 1791 
Q 947 1169 1205 825 
Q 1463 481 1925 481 
Q 2391 481 2648 825 
Q 2906 1169 2906 1791 
z
M 3481 434 
Q 3481 -459 3084 -895 
Q 2688 -1331 1869 -1331 
Q 1566 -1331 1297 -1286 
Q 1028 -1241 775 -1147 
L 775 -588 
Q 1028 -725 1275 -790 
Q 1522 -856 1778 -856 
Q 2344 -856 2625 -561 
Q 2906 -266 2906 331 
L 2906 616 
Q 2728 306 2450 153 
Q 2172 0 1784 0 
Q 1141 0 747 490 
Q 353 981 353 1791 
Q 353 2603 747 3093 
Q 1141 3584 1784 3584 
Q 2172 3584 2450 3431 
Q 2728 3278 2906 2969 
L 2906 3500 
L 3481 3500 
L 3481 434 
z
" transform="scale(0.015625)"/>
     </defs>
     <use xlink:href="#DejaVuSans-2f"/>
     <use xlink:href="#DejaVuSans-4c" transform="translate(55.71875 0)"/>
     <use xlink:href="#DejaVuSans-51" transform="translate(83.5 0)"/>
     <use xlink:href="#DejaVuSans-48" transform="translate(146.875 0)"/>
     <use xlink:href="#DejaVuSans-44" transform="translate(208.40625 0)"/>
     <use xlink:href="#DejaVuSans-55" transform="translate(269.6875 0)"/>
     <use xlink:href="#DejaVuSans-3" transform="translate(310.796875 0)"/>
     <use xlink:href="#DejaVuSans-50" transform="translate(342.578125 0)"/>
     <use xlink:href="#DejaVuSans-44" transform="translate(439.984375 0)"/>
     <use xlink:href="#DejaVuSans-53" transform="translate(501.265625 0)"/>
     <use xlink:href="#DejaVuSans-53" transform="translate(564.75 0)"/>
     <use xlink:href="#DejaVuSans-4c" transform="translate(628.234375 0)"/>
     <use xlink:href="#DejaVuSans-51" transform="translate(656.015625 0)"/>
     <use xlink:href="#DejaVuSans-4a" transform="translate(719.390625 0)"/>
    </g>
   </g>
   <g id="text_3">
    <!-- one KG node -->
    <g style="fill: #5b6472" transform="translate(336.179414 249.428749) scale(0.105 -0.105)">
     <defs>
      <path id="DejaVuSans-52" d="M 1959 3097 
Q 1497 3097 1228 2736 
Q 959 2375 959 1747 
Q 959 1119 1226 758 
Q 1494 397 1959 397 
Q 2419 397 2687 759 
Q 2956 1122 2956 1747 
Q 2956 2369 2687 2733 
Q 2419 3097 1959 3097 
z
M 1959 3584 
Q 2709 3584 3137 3096 
Q 3566 2609 3566 1747 
Q 3566 888 3137 398 
Q 2709 -91 1959 -91 
Q 1206 -91 779 398 
Q 353 888 353 1747 
Q 353 2609 779 3096 
Q 1206 3584 1959 3584 
z
" transform="scale(0.015625)"/>
      <path id="DejaVuSans-2e" d="M 628 4666 
L 1259 4666 
L 1259 2694 
L 3353 4666 
L 4166 4666 
L 1850 2491 
L 4331 0 
L 3500 0 
L 1259 2247 
L 1259 0 
L 628 0 
L 628 4666 
z
" transform="scale(0.015625)"/>
      <path id="DejaVuSans-2a" d="M 3809 666 
L 3809 1919 
L 2778 1919 
L 2778 2438 
L 4434 2438 
L 4434 434 
Q 4069 175 3628 42 
Q 3188 -91 2688 -91 
Q 1594 -91 976 548 
Q 359 1188 359 2328 
Q 359 3472 976 4111 
Q 1594 4750 2688 4750 
Q 3144 4750 3555 4637 
Q 3966 4525 4313 4306 
L 4313 3634 
Q 3963 3931 3569 4081 
Q 3175 4231 2741 4231 
Q 1884 4231 1454 3753 
Q 1025 3275 1025 2328 
Q 1025 1384 1454 906 
Q 1884 428 2741 428 
Q 3075 428 3337 486 
Q 3600 544 3809 666 
z
" transform="scale(0.015625)"/>
      <path id="DejaVuSans-47" d="M 2906 2969 
L 2906 4863 
L 3481 4863 
L 3481 0 
L 2906 0 
L 2906 525 
Q 2725 213 2448 61 
Q 2172 -91 1784 -91 
Q 1150 -91 751 415 
Q 353 922 353 1747 
Q 353 2572 751 3078 
Q 1150 3584 1784 3584 
Q 2172 3584 2448 3432 
Q 2725 3281 2906 2969 
z
M 947 1747 
Q 947 1113 1208 752 
Q 1469 391 1925 391 
Q 2381 391 2643 752 
Q 2906 1113 2906 1747 
Q 2906 2381 2643 2742 
Q 2381 3103 1925 3103 
Q 1469 3103 1208 2742 
Q 947 2381 947 1747 
z
" transform="scale(0.015625)"/>
     </defs>
     <use xlink:href="#DejaVuSans-52"/>
     <use xlink:href="#DejaVuSans-51" transform="translate(61.1875 0)"/>
     <use xlink:href="#DejaVuSans-48" transform="translate(124.5625 0)"/>
     <use xlink:href="#DejaVuSans-3" transform="translate(186.09375 0)"/>
     <use xlink:href="#DejaVuSans-2e" transform="translate(217.875 0)"/>
     <use xlink:href="#DejaVuSans-2a" transform="translate(283.453125 0)"/>
     <use xlink:href="#DejaVuSans-3" transform="translate(360.9375 0)"/>
     <use xlink:href="#DejaVuSans-51" transform="translate(392.71875 0)"/>
     <use xlink:href="#DejaVuSans-52" transform="translate(456.09375 0)"/>
     <use xlink:href="#DejaVuSans-47" transform="translate(517.28125 0)"/>
     <use xlink:href="#DejaVuSans-48" transform="translate(580.765625 0)"/>
    </g>
   </g>
   <g id="text_4">
    <!-- Concise -->
    <g style="fill: #1f2937" transform="translate(116.803813 97.950901) scale(0.13 -0.13)">
     <defs>
      <path id="DejaVuSans-Bold-26" d="M 4288 256 
Q 3956 84 3597 -3 
Q 3238 -91 2847 -91 
Q 1681 -91 1000 561 
Q 319 1213 319 2328 
Q 319 3447 1000 4098 
Q 1681 4750 2847 4750 
Q 3238 4750 3597 4662 
Q 3956 4575 4288 4403 
L 4288 3438 
Q 3953 3666 3628 3772 
Q 3303 3878 2944 3878 
Q 2300 3878 1931 3465 
Q 1563 3053 1563 2328 
Q 1563 1606 1931 1193 
Q 2300 781 2944 781 
Q 3303 781 3628 887 
Q 3953 994 4288 1222 
L 4288 256 
z
" transform="scale(0.015625)"/>
      <path id="DejaVuSans-Bold-51" d="M 4056 2131 
L 4056 0 
L 2931 0 
L 2931 347 
L 2931 1631 
Q 2931 2084 2911 2256 
Q 2891 2428 2841 2509 
Q 2775 2619 2662 2680 
Q 2550 2741 2406 2741 
Q 2056 2741 1856 2470 
Q 1656 2200 1656 1722 
L 1656 0 
L 538 0 
L 538 3500 
L 1656 3500 
L 1656 2988 
Q 1909 3294 2193 3439 
Q 2478 3584 2822 3584 
Q 3428 3584 3742 3212 
Q 4056 2841 4056 2131 
z
" transform="scale(0.015625)"/>
      <path id="DejaVuSans-Bold-46" d="M 3366 3391 
L 3366 2478 
Q 3138 2634 2908 2709 
Q 2678 2784 2431 2784 
Q 1963 2784 1702 2511 
Q 1441 2238 1441 1747 
Q 1441 1256 1702 982 
Q 1963 709 2431 709 
Q 2694 709 2930 787 
Q 3166 866 3366 1019 
L 3366 103 
Q 3103 6 2833 -42 
Q 2563 -91 2291 -91 
Q 1344 -91 809 395 
Q 275 881 275 1747 
Q 275 2613 809 3098 
Q 1344 3584 2291 3584 
Q 2566 3584 2833 3536 
Q 3100 3488 3366 3391 
z
" transform="scale(0.015625)"/>
      <path id="DejaVuSans-Bold-4c" d="M 538 3500 
L 1656 3500 
L 1656 0 
L 538 0 
L 538 3500 
z
M 538 4863 
L 1656 4863 
L 1656 3950 
L 538 3950 
L 538 4863 
z
" transform="scale(0.015625)"/>
      <path id="DejaVuSans-Bold-56" d="M 3272 3391 
L 3272 2541 
Q 2913 2691 2578 2766 
Q 2244 2841 1947 2841 
Q 1628 2841 1473 2761 
Q 1319 2681 1319 2516 
Q 1319 2381 1436 2309 
Q 1553 2238 1856 2203 
L 2053 2175 
Q 2913 2066 3209 1816 
Q 3506 1566 3506 1031 
Q 3506 472 3093 190 
Q 2681 -91 1863 -91 
Q 1516 -91 1145 -36 
Q 775 19 384 128 
L 384 978 
Q 719 816 1070 734 
Q 1422 653 1784 653 
Q 2113 653 2278 743 
Q 2444 834 2444 1013 
Q 2444 1163 2330 1236 
Q 2216 1309 1875 1350 
L 1678 1375 
Q 931 1469 631 1722 
Q 331 1975 331 2491 
Q 331 3047 712 3315 
Q 1094 3584 1881 3584 
Q 2191 3584 2531 3537 
Q 2872 3491 3272 3391 
z
" transform="scale(0.015625)"/>
      <path id="DejaVuSans-Bold-48" d="M 4031 1759 
L 4031 1441 
L 1416 1441 
Q 1456 1047 1700 850 
Q 1944 653 2381 653 
Q 2734 653 3104 758 
Q 3475 863 3866 1075 
L 3866 213 
Q 3469 63 3072 -14 
Q 2675 -91 2278 -91 
Q 1328 -91 801 392 
Q 275 875 275 1747 
Q 275 2603 792 3093 
Q 1309 3584 2216 3584 
Q 3041 3584 3536 3087 
Q 4031 2591 4031 1759 
z
M 2881 2131 
Q 2881 2450 2695 2645 
Q 2509 2841 2209 2841 
Q 1884 2841 1681 2658 
Q 1478 2475 1428 2131 
L 2881 2131 
z
" transform="scale(0.015625)"/>
     </defs>
     <use xlink:href="#DejaVuSans-Bold-26"/>
     <use xlink:href="#DejaVuSans-Bold-52" transform="translate(73.390625 0)"/>
     <use xlink:href="#DejaVuSans-Bold-51" transform="translate(142.09375 0)"/>
     <use xlink:href="#DejaVuSans-Bold-46" transform="translate(213.28125 0)"/>
     <use xlink:href="#DejaVuSans-Bold-4c" transform="translate(272.5625 0)"/>
     <use xlink:href="#DejaVuSans-Bold-56" transform="translate(306.84375 0)"/>
     <use xlink:href="#DejaVuSans-Bold-48" transform="translate(366.359375 0)"/>
    </g>
   </g>
   <g id="text_5">
    <!-- Linear mapping: A Linear mapping is a -->
    <g style="fill: #111827" transform="translate(55.96425 118.909025) scale(0.092 -0.092)">
     <defs>
      <path id="DejaVuSans-1d" d="M 750 794 
L 1409 794 
L 1409 0 
L 750 0 
L 750 794 
z
M 750 3309 
L 1409 3309 
L 1409 2516 
L 750 2516 
L 750 3309 
z
" transform="scale(0.015625)"/>
      <path id="DejaVuSans-24" d="M 2188 4044 
L 1331 1722 
L 3047 1722 
L 2188 4044 
z
M 1831 4666 
L 2547 4666 
L 4325 0 
L 3669 0 
L 3244 1197 
L 1141 1197 
L 716 0 
L 50 0 
L 1831 4666 
z
" transform="scale(0.015625)"/>
      <path id="DejaVuSans-56" d="M 2834 3397 
L 2834 2853 
Q 2591 2978 2328 3040 
Q 2066 3103 1784 3103 
Q 1356 3103 1142 2972 
Q 928 2841 928 2578 
Q 928 2378 1081 2264 
Q 1234 2150 1697 2047 
L 1894 2003 
Q 2506 1872 2764 1633 
Q 3022 1394 3022 966 
Q 3022 478 2636 193 
Q 2250 -91 1575 -91 
Q 1294 -91 989 -36 
Q 684 19 347 128 
L 347 722 
Q 666 556 975 473 
Q 1284 391 1588 391 
Q 1994 391 2212 530 
Q 2431 669 2431 922 
Q 2431 1156 2273 1281 
Q 2116 1406 1581 1522 
L 1381 1569 
Q 847 1681 609 1914 
Q 372 2147 372 2553 
Q 372 3047 722 3315 
Q 1072 3584 1716 3584 
Q 2034 3584 2315 3537 
Q 2597 3491 2834 3397 
z
" transform="scale(0.015625)"/>
     </defs>
     <use xlink:href="#DejaVuSans-2f"/>
     <use xlink:href="#DejaVuSans-4c" transform="translate(55.71875 0)"/>
     <use xlink:href="#DejaVuSans-51" transform="translate(83.5 0)"/>
     <use xlink:href="#DejaVuSans-48" transform="translate(146.875 0)"/>
     <use xlink:href="#DejaVuSans-44" transform="translate(208.40625 0)"/>
     <use xlink:href="#DejaVuSans-55" transform="translate(269.6875 0)"/>
     <use xlink:href="#DejaVuSans-3" transform="translate(310.796875 0)"/>
     <use xlink:href="#DejaVuSans-50" transform="translate(342.578125 0)"/>
     <use xlink:href="#DejaVuSans-44" transform="translate(439.984375 0)"/>
     <use xlink:href="#DejaVuSans-53" transform="translate(501.265625 0)"/>
     <use xlink:href="#DejaVuSans-53" transform="translate(564.75 0)"/>
     <use xlink:href="#DejaVuSans-4c" transform="translate(628.234375 0)"/>
     <use xlink:href="#DejaVuSans-51" transform="translate(656.015625 0)"/>
     <use xlink:href="#DejaVuSans-4a" transform="translate(719.390625 0)"/>
     <use xlink:href="#DejaVuSans-1d" transform="translate(782.875 0)"/>
     <use xlink:href="#DejaVuSans-3" transform="translate(816.5625 0)"/>
     <use xlink:href="#DejaVuSans-24" transform="translate(848.34375 0)"/>
     <use xlink:href="#DejaVuSans-3" transform="translate(916.75 0)"/>
     <use xlink:href="#DejaVuSans-2f" transform="translate(948.53125 0)"/>
     <use xlink:href="#DejaVuSans-4c" transform="translate(1004.25 0)"/>
     <use xlink:href="#DejaVuSans-51" transform="translate(1032.03125 0)"/>
     <use xlink:href="#DejaVuSans-48" transform="translate(1095.40625 0)"/>
     <use xlink:href="#DejaVuSans-44" transform="translate(1156.9375 0)"/>
     <use xlink:href="#DejaVuSans-55" transform="translate(1218.21875 0)"/>
     <use xlink:href="#DejaVuSans-3" transform="translate(1259.328125 0)"/>
     <use xlink:href="#DejaVuSans-50" transform="translate(1291.109375 0)"/>
     <use xlink:href="#DejaVuSans-44" transform="translate(1388.515625 0)"/>
     <use xlink:href="#DejaVuSans-53" transform="translate(1449.796875 0)"/>
     <use xlink:href="#DejaVuSans-53" transform="translate(1513.28125 0)"/>
     <use xlink:href="#DejaVuSans-4c" transform="translate(1576.765625 0)"/>
     <use xlink:href="#DejaVuSans-51" transform="translate(1604.546875 0)"/>
     <use xlink:href="#DejaVuSans-4a" transform="translate(1667.921875 0)"/>
     <use xlink:href="#DejaVuSans-3" transform="translate(1731.40625 0)"/>
     <use xlink:href="#DejaVuSans-4c" transform="translate(1763.1875 0)"/>
     <use xlink:href="#DejaVuSans-56" transform="translate(1790.96875 0)"/>
     <use xlink:href="#DejaVuSans-3" transform="translate(1843.0625 0)"/>
     <use xlink:href="#DejaVuSans-44" transform="translate(1874.84375 0)"/>
    </g>
    <!-- transformation concept that describes a -->
    <g style="fill: #111827" transform="translate(52.503469 129.489025) scale(0.092 -0.092)">
     <defs>
      <path id="DejaVuSans-57" d="M 1172 4494 
L 1172 3500 
L 2356 3500 
L 2356 3053 
L 1172 3053 
L 1172 1153 
Q 1172 725 1289 603 
Q 1406 481 1766 481 
L 2356 481 
L 2356 0 
L 1766 0 
Q 1100 0 847 248 
Q 594 497 594 1153 
L 594 3053 
L 172 3053 
L 172 3500 
L 594 3500 
L 594 4494 
L 1172 4494 
z
" transform="scale(0.015625)"/>
      <path id="DejaVuSans-49" d="M 2375 4863 
L 2375 4384 
L 1825 4384 
Q 1516 4384 1395 4259 
Q 1275 4134 1275 3809 
L 1275 3500 
L 2222 3500 
L 2222 3053 
L 1275 3053 
L 1275 0 
L 697 0 
L 697 3053 
L 147 3053 
L 147 3500 
L 697 3500 
L 697 3744 
Q 697 4328 969 4595 
Q 1241 4863 1831 4863 
L 2375 4863 
z
" transform="scale(0.015625)"/>
      <path id="DejaVuSans-46" d="M 3122 3366 
L 3122 2828 
Q 2878 2963 2633 3030 
Q 2388 3097 2138 3097 
Q 1578 3097 1268 2742 
Q 959 2388 959 1747 
Q 959 1106 1268 751 
Q 1578 397 2138 397 
Q 2388 397 2633 464 
Q 2878 531 3122 666 
L 3122 134 
Q 2881 22 2623 -34 
Q 2366 -91 2075 -91 
Q 1284 -91 818 406 
Q 353 903 353 1747 
Q 353 2603 823 3093 
Q 1294 3584 2113 3584 
Q 2378 3584 2631 3529 
Q 2884 3475 3122 3366 
z
" transform="scale(0.015625)"/>
      <path id="DejaVuSans-4b" d="M 3513 2113 
L 3513 0 
L 2938 0 
L 2938 2094 
Q 2938 2591 2744 2837 
Q 2550 3084 2163 3084 
Q 1697 3084 1428 2787 
Q 1159 2491 1159 1978 
L 1159 0 
L 581 0 
L 581 4863 
L 1159 4863 
L 1159 2956 
Q 1366 3272 1645 3428 
Q 1925 3584 2291 3584 
Q 2894 3584 3203 3211 
Q 3513 2838 3513 2113 
z
" transform="scale(0.015625)"/>
      <path id="DejaVuSans-45" d="M 3116 1747 
Q 3116 2381 2855 2742 
Q 2594 3103 2138 3103 
Q 1681 3103 1420 2742 
Q 1159 2381 1159 1747 
Q 1159 1113 1420 752 
Q 1681 391 2138 391 
Q 2594 391 2855 752 
Q 3116 1113 3116 1747 
z
M 1159 2969 
Q 1341 3281 1617 3432 
Q 1894 3584 2278 3584 
Q 2916 3584 3314 3078 
Q 3713 2572 3713 1747 
Q 3713 922 3314 415 
Q 2916 -91 2278 -91 
Q 1894 -91 1617 61 
Q 1341 213 1159 525 
L 1159 0 
L 581 0 
L 581 4863 
L 1159 4863 
L 1159 2969 
z
" transform="scale(0.015625)"/>
     </defs>
     <use xlink:href="#DejaVuSans-57"/>
     <use xlink:href="#DejaVuSans-55" transform="translate(39.203125 0)"/>
     <use xlink:href="#DejaVuSans-44" transform="translate(80.3125 0)"/>
     <use xlink:href="#DejaVuSans-51" transform="translate(141.59375 0)"/>
     <use xlink:href="#DejaVuSans-56" transform="translate(204.96875 0)"/>
     <use xlink:href="#DejaVuSans-49" transform="translate(257.0625 0)"/>
     <use xlink:href="#DejaVuSans-52" transform="translate(292.265625 0)"/>
     <use xlink:href="#DejaVuSans-55" transform="translate(353.453125 0)"/>
     <use xlink:href="#DejaVuSans-50" transform="translate(392.8125 0)"/>
     <use xlink:href="#DejaVuSans-44" transform="translate(490.21875 0)"/>
     <use xlink:href="#DejaVuSans-57" transform="translate(551.5 0)"/>
     <use xlink:href="#DejaVuSans-4c" transform="translate(590.703125 0)"/>
     <use xlink:href="#DejaVuSans-52" transform="translate(618.484375 0)"/>
     <use xlink:href="#DejaVuSans-51" transform="translate(679.671875 0)"/>
     <use xlink:href="#DejaVuSans-3" transform="translate(743.046875 0)"/>
     <use xlink:href="#DejaVuSans-46" transform="translate(774.828125 0)"/>
     <use xlink:href="#DejaVuSans-52" transform="translate(829.8125 0)"/>
     <use xlink:href="#DejaVuSans-51" transform="translate(891 0)"/>
     <use xlink:href="#DejaVuSans-46" transform="translate(954.375 0)"/>
     <use xlink:href="#DejaVuSans-48" transform="translate(1009.359375 0)"/>
     <use xlink:href="#DejaVuSans-53" transform="translate(1070.890625 0)"/>
     <use xlink:href="#DejaVuSans-57" transform="translate(1134.375 0)"/>
     <use xlink:href="#DejaVuSans-3" transform="translate(1173.578125 0)"/>
     <use xlink:href="#DejaVuSans-57" transform="translate(1205.359375 0)"/>
     <use xlink:href="#DejaVuSans-4b" transform="translate(1244.5625 0)"/>
     <use xlink:href="#DejaVuSans-44" transform="translate(1307.9375 0)"/>
     <use xlink:href="#DejaVuSans-57" transform="translate(1369.21875 0)"/>
     <use xlink:href="#DejaVuSans-3" transform="translate(1408.421875 0)"/>
     <use xlink:href="#DejaVuSans-47" transform="translate(1440.203125 0)"/>
     <use xlink:href="#DejaVuSans-48" transform="translate(1503.6875 0)"/>
     <use xlink:href="#DejaVuSans-56" transform="translate(1565.21875 0)"/>
     <use xlink:href="#DejaVuSans-46" transform="translate(1617.3125 0)"/>
     <use xlink:href="#DejaVuSans-55" transform="translate(1672.296875 0)"/>
     <use xlink:href="#DejaVuSans-4c" transform="translate(1713.40625 0)"/>
     <use xlink:href="#DejaVuSans-45" transform="translate(1741.1875 0)"/>
     <use xlink:href="#DejaVuSans-48" transform="translate(1804.671875 0)"/>
     <use xlink:href="#DejaVuSans-56" transform="translate(1866.203125 0)"/>
     <use xlink:href="#DejaVuSans-3" transform="translate(1918.296875 0)"/>
     <use xlink:href="#DejaVuSans-44" transform="translate(1950.078125 0)"/>
    </g>
    <!-- structure-preserving change or mapping. -->
    <g style="fill: #111827" transform="translate(50.261688 140.069025) scale(0.092 -0.092)">
     <defs>
      <path id="DejaVuSans-58" d="M 544 1381 
L 544 3500 
L 1119 3500 
L 1119 1403 
Q 1119 906 1312 657 
Q 1506 409 1894 409 
Q 2359 409 2629 706 
Q 2900 1003 2900 1516 
L 2900 3500 
L 3475 3500 
L 3475 0 
L 2900 0 
L 2900 538 
Q 2691 219 2414 64 
Q 2138 -91 1772 -91 
Q 1169 -91 856 284 
Q 544 659 544 1381 
z
M 1991 3584 
L 1991 3584 
z
" transform="scale(0.015625)"/>
      <path id="DejaVuSans-10" d="M 313 2009 
L 1997 2009 
L 1997 1497 
L 313 1497 
L 313 2009 
z
" transform="scale(0.015625)"/>
      <path id="DejaVuSans-59" d="M 191 3500 
L 800 3500 
L 1894 563 
L 2988 3500 
L 3597 3500 
L 2284 0 
L 1503 0 
L 191 3500 
z
" transform="scale(0.015625)"/>
      <path id="DejaVuSans-11" d="M 684 794 
L 1344 794 
L 1344 0 
L 684 0 
L 684 794 
z
" transform="scale(0.015625)"/>
     </defs>
     <use xlink:href="#DejaVuSans-56"/>
     <use xlink:href="#DejaVuSans-57" transform="translate(52.09375 0)"/>
     <use xlink:href="#DejaVuSans-55" transform="translate(91.296875 0)"/>
     <use xlink:href="#DejaVuSans-58" transform="translate(132.40625 0)"/>
     <use xlink:href="#DejaVuSans-46" transform="translate(195.78125 0)"/>
     <use xlink:href="#DejaVuSans-57" transform="translate(250.765625 0)"/>
     <use xlink:href="#DejaVuSans-58" transform="translate(289.96875 0)"/>
     <use xlink:href="#DejaVuSans-55" transform="translate(353.34375 0)"/>
     <use xlink:href="#DejaVuSans-48" transform="translate(392.25 0)"/>
     <use xlink:href="#DejaVuSans-10" transform="translate(453.78125 0)"/>
     <use xlink:href="#DejaVuSans-53" transform="translate(489.859375 0)"/>
     <use xlink:href="#DejaVuSans-55" transform="translate(553.34375 0)"/>
     <use xlink:href="#DejaVuSans-48" transform="translate(592.25 0)"/>
     <use xlink:href="#DejaVuSans-56" transform="translate(653.78125 0)"/>
     <use xlink:href="#DejaVuSans-48" transform="translate(705.875 0)"/>
     <use xlink:href="#DejaVuSans-55" transform="translate(767.40625 0)"/>
     <use xlink:href="#DejaVuSans-59" transform="translate(808.515625 0)"/>
     <use xlink:href="#DejaVuSans-4c" transform="translate(867.703125 0)"/>
     <use xlink:href="#DejaVuSans-51" transform="translate(895.484375 0)"/>
     <use xlink:href="#DejaVuSans-4a" transform="translate(958.859375 0)"/>
     <use xlink:href="#DejaVuSans-3" transform="translate(1022.34375 0)"/>
     <use xlink:href="#DejaVuSans-46" transform="translate(1054.125 0)"/>
     <use xlink:href="#DejaVuSans-4b" transform="translate(1109.109375 0)"/>
     <use xlink:href="#DejaVuSans-44" transform="translate(1172.484375 0)"/>
     <use xlink:href="#DejaVuSans-51" transform="translate(1233.765625 0)"/>
     <use xlink:href="#DejaVuSans-4a" transform="translate(1297.140625 0)"/>
     <use xlink:href="#DejaVuSans-48" transform="translate(1360.625 0)"/>
     <use xlink:href="#DejaVuSans-3" transform="translate(1422.15625 0)"/>
     <use xlink:href="#DejaVuSans-52" transform="translate(1453.9375 0)"/>
     <use xlink:href="#DejaVuSans-55" transform="translate(1515.125 0)"/>
     <use xlink:href="#DejaVuSans-3" transform="translate(1556.234375 0)"/>
     <use xlink:href="#DejaVuSans-50" transform="translate(1588.015625 0)"/>
     <use xlink:href="#DejaVuSans-44" transform="translate(1685.421875 0)"/>
     <use xlink:href="#DejaVuSans-53" transform="translate(1746.703125 0)"/>
     <use xlink:href="#DejaVuSans-53" transform="translate(1810.1875 0)"/>
     <use xlink:href="#DejaVuSans-4c" transform="translate(1873.671875 0)"/>
     <use xlink:href="#DejaVuSans-51" transform="translate(1901.453125 0)"/>
     <use xlink:href="#DejaVuSans-4a" transform="translate(1964.828125 0)"/>
     <use xlink:href="#DejaVuSans-11" transform="translate(2028.3125 0)"/>
    </g>
   </g>
   <g id="patch_7">
    <path d="M 289.775266 204.812401 
Q 282.852124 163.54154 276.243422 124.145145 
" style="fill: none; stroke: #5b6472; stroke-width: 1.7; stroke-linecap: round"/>
    <path d="M 274.408454 130.131204 
L 276.243422 124.145145 
L 279.931288 129.204754 
z
" style="fill: #5b6472; stroke: #5b6472; stroke-width: 1.7; stroke-linecap: round"/>
   </g>
   <g id="text_6">
    <!-- Pedagogical -->
    <g style="fill: #1f2937" transform="translate(550.094625 97.950901) scale(0.13 -0.13)">
     <defs>
      <path id="DejaVuSans-Bold-33" d="M 588 4666 
L 2584 4666 
Q 3475 4666 3951 4270 
Q 4428 3875 4428 3144 
Q 4428 2409 3951 2014 
Q 3475 1619 2584 1619 
L 1791 1619 
L 1791 0 
L 588 0 
L 588 4666 
z
M 1791 3794 
L 1791 2491 
L 2456 2491 
Q 2806 2491 2997 2661 
Q 3188 2831 3188 3144 
Q 3188 3456 2997 3625 
Q 2806 3794 2456 3794 
L 1791 3794 
z
" transform="scale(0.015625)"/>
      <path id="DejaVuSans-Bold-47" d="M 2919 2988 
L 2919 4863 
L 4044 4863 
L 4044 0 
L 2919 0 
L 2919 506 
Q 2688 197 2409 53 
Q 2131 -91 1766 -91 
Q 1119 -91 703 423 
Q 288 938 288 1747 
Q 288 2556 703 3070 
Q 1119 3584 1766 3584 
Q 2128 3584 2408 3439 
Q 2688 3294 2919 2988 
z
M 2181 722 
Q 2541 722 2730 984 
Q 2919 1247 2919 1747 
Q 2919 2247 2730 2509 
Q 2541 2772 2181 2772 
Q 1825 2772 1636 2509 
Q 1447 2247 1447 1747 
Q 1447 1247 1636 984 
Q 1825 722 2181 722 
z
" transform="scale(0.015625)"/>
      <path id="DejaVuSans-Bold-44" d="M 2106 1575 
Q 1756 1575 1579 1456 
Q 1403 1338 1403 1106 
Q 1403 894 1545 773 
Q 1688 653 1941 653 
Q 2256 653 2472 879 
Q 2688 1106 2688 1447 
L 2688 1575 
L 2106 1575 
z
M 3816 1997 
L 3816 0 
L 2688 0 
L 2688 519 
Q 2463 200 2181 54 
Q 1900 -91 1497 -91 
Q 953 -91 614 226 
Q 275 544 275 1050 
Q 275 1666 698 1953 
Q 1122 2241 2028 2241 
L 2688 2241 
L 2688 2328 
Q 2688 2594 2478 2717 
Q 2269 2841 1825 2841 
Q 1466 2841 1156 2769 
Q 847 2697 581 2553 
L 581 3406 
Q 941 3494 1303 3539 
Q 1666 3584 2028 3584 
Q 2975 3584 3395 3211 
Q 3816 2838 3816 1997 
z
" transform="scale(0.015625)"/>
      <path id="DejaVuSans-Bold-4a" d="M 2919 594 
Q 2688 288 2409 144 
Q 2131 0 1766 0 
Q 1125 0 706 504 
Q 288 1009 288 1791 
Q 288 2575 706 3076 
Q 1125 3578 1766 3578 
Q 2131 3578 2409 3434 
Q 2688 3291 2919 2981 
L 2919 3500 
L 4044 3500 
L 4044 353 
Q 4044 -491 3511 -936 
Q 2978 -1381 1966 -1381 
Q 1638 -1381 1331 -1331 
Q 1025 -1281 716 -1178 
L 716 -306 
Q 1009 -475 1290 -558 
Q 1572 -641 1856 -641 
Q 2406 -641 2662 -400 
Q 2919 -159 2919 353 
L 2919 594 
z
M 2181 2772 
Q 1834 2772 1640 2515 
Q 1447 2259 1447 1791 
Q 1447 1309 1634 1061 
Q 1822 813 2181 813 
Q 2531 813 2725 1069 
Q 2919 1325 2919 1791 
Q 2919 2259 2725 2515 
Q 2531 2772 2181 2772 
z
" transform="scale(0.015625)"/>
     </defs>
     <use xlink:href="#DejaVuSans-Bold-33"/>
     <use xlink:href="#DejaVuSans-Bold-48" transform="translate(73.296875 0)"/>
     <use xlink:href="#DejaVuSans-Bold-47" transform="translate(141.125 0)"/>
     <use xlink:href="#DejaVuSans-Bold-44" transform="translate(212.703125 0)"/>
     <use xlink:href="#DejaVuSans-Bold-4a" transform="translate(280.1875 0)"/>
     <use xlink:href="#DejaVuSans-Bold-52" transform="translate(351.765625 0)"/>
     <use xlink:href="#DejaVuSans-Bold-4a" transform="translate(420.46875 0)"/>
     <use xlink:href="#DejaVuSans-Bold-4c" transform="translate(492.046875 0)"/>
     <use xlink:href="#DejaVuSans-Bold-46" transform="translate(526.328125 0)"/>
     <use xlink:href="#DejaVuSans-Bold-44" transform="translate(585.609375 0)"/>
     <use xlink:href="#DejaVuSans-Bold-4f" transform="translate(653.09375 0)"/>
    </g>
   </g>
   <g id="text_7">
    <!-- Think of linear mapping as a Linear -->
    <g style="fill: #111827" transform="translate(513.390656 113.619025) scale(0.092 -0.092)">
     <defs>
      <path id="DejaVuSans-37" d="M -19 4666 
L 3928 4666 
L 3928 4134 
L 2272 4134 
L 2272 0 
L 1638 0 
L 1638 4134 
L -19 4134 
L -19 4666 
z
" transform="scale(0.015625)"/>
      <path id="DejaVuSans-4e" d="M 581 4863 
L 1159 4863 
L 1159 1991 
L 2875 3500 
L 3609 3500 
L 1753 1863 
L 3688 0 
L 2938 0 
L 1159 1709 
L 1159 0 
L 581 0 
L 581 4863 
z
" transform="scale(0.015625)"/>
      <path id="DejaVuSans-4f" d="M 603 4863 
L 1178 4863 
L 1178 0 
L 603 0 
L 603 4863 
z
" transform="scale(0.015625)"/>
     </defs>
     <use xlink:href="#DejaVuSans-37"/>
     <use xlink:href="#DejaVuSans-4b" transform="translate(61.078125 0)"/>
     <use xlink:href="#DejaVuSans-4c" transform="translate(124.453125 0)"/>
     <use xlink:href="#DejaVuSans-51" transform="translate(152.234375 0)"/>
     <use xlink:href="#DejaVuSans-4e" transform="translate(215.609375 0)"/>
     <use xlink:href="#DejaVuSans-3" transform="translate(273.515625 0)"/>
     <use xlink:href="#DejaVuSans-52" transform="translate(305.296875 0)"/>
     <use xlink:href="#DejaVuSans-49" transform="translate(366.484375 0)"/>
     <use xlink:href="#DejaVuSans-3" transform="translate(401.6875 0)"/>
     <use xlink:href="#DejaVuSans-4f" transform="translate(433.46875 0)"/>
     <use xlink:href="#DejaVuSans-4c" transform="translate(461.25 0)"/>
     <use xlink:href="#DejaVuSans-51" transform="translate(489.03125 0)"/>
     <use xlink:href="#DejaVuSans-48" transform="translate(552.40625 0)"/>
     <use xlink:href="#DejaVuSans-44" transform="translate(613.9375 0)"/>
     <use xlink:href="#DejaVuSans-55" transform="translate(675.21875 0)"/>
     <use xlink:href="#DejaVuSans-3" transform="translate(716.328125 0)"/>
     <use xlink:href="#DejaVuSans-50" transform="translate(748.109375 0)"/>
     <use xlink:href="#DejaVuSans-44" transform="translate(845.515625 0)"/>
     <use xlink:href="#DejaVuSans-53" transform="translate(906.796875 0)"/>
     <use xlink:href="#DejaVuSans-53" transform="translate(970.28125 0)"/>
     <use xlink:href="#DejaVuSans-4c" transform="translate(1033.765625 0)"/>
     <use xlink:href="#DejaVuSans-51" transform="translate(1061.546875 0)"/>
     <use xlink:href="#DejaVuSans-4a" transform="translate(1124.921875 0)"/>
     <use xlink:href="#DejaVuSans-3" transform="translate(1188.40625 0)"/>
     <use xlink:href="#DejaVuSans-44" transform="translate(1220.1875 0)"/>
     <use xlink:href="#DejaVuSans-56" transform="translate(1281.46875 0)"/>
     <use xlink:href="#DejaVuSans-3" transform="translate(1333.5625 0)"/>
     <use xlink:href="#DejaVuSans-44" transform="translate(1365.34375 0)"/>
     <use xlink:href="#DejaVuSans-3" transform="translate(1426.625 0)"/>
     <use xlink:href="#DejaVuSans-2f" transform="translate(1458.40625 0)"/>
     <use xlink:href="#DejaVuSans-4c" transform="translate(1514.125 0)"/>
     <use xlink:href="#DejaVuSans-51" transform="translate(1541.90625 0)"/>
     <use xlink:href="#DejaVuSans-48" transform="translate(1605.28125 0)"/>
     <use xlink:href="#DejaVuSans-44" transform="translate(1666.8125 0)"/>
     <use xlink:href="#DejaVuSans-55" transform="translate(1728.09375 0)"/>
    </g>
    <!-- mapping is a transformation concept that -->
    <g style="fill: #111827" transform="translate(498.853938 124.199025) scale(0.092 -0.092)">
     <use xlink:href="#DejaVuSans-50"/>
     <use xlink:href="#DejaVuSans-44" transform="translate(97.40625 0)"/>
     <use xlink:href="#DejaVuSans-53" transform="translate(158.6875 0)"/>
     <use xlink:href="#DejaVuSans-53" transform="translate(222.171875 0)"/>
     <use xlink:href="#DejaVuSans-4c" transform="translate(285.65625 0)"/>
     <use xlink:href="#DejaVuSans-51" transform="translate(313.4375 0)"/>
     <use xlink:href="#DejaVuSans-4a" transform="translate(376.8125 0)"/>
     <use xlink:href="#DejaVuSans-3" transform="translate(440.296875 0)"/>
     <use xlink:href="#DejaVuSans-4c" transform="translate(472.078125 0)"/>
     <use xlink:href="#DejaVuSans-56" transform="translate(499.859375 0)"/>
     <use xlink:href="#DejaVuSans-3" transform="translate(551.953125 0)"/>
     <use xlink:href="#DejaVuSans-44" transform="translate(583.734375 0)"/>
     <use xlink:href="#DejaVuSans-3" transform="translate(645.015625 0)"/>
     <use xlink:href="#DejaVuSans-57" transform="translate(676.796875 0)"/>
     <use xlink:href="#DejaVuSans-55" transform="translate(716 0)"/>
     <use xlink:href="#DejaVuSans-44" transform="translate(757.109375 0)"/>
     <use xlink:href="#DejaVuSans-51" transform="translate(818.390625 0)"/>
     <use xlink:href="#DejaVuSans-56" transform="translate(881.765625 0)"/>
     <use xlink:href="#DejaVuSans-49" transform="translate(933.859375 0)"/>
     <use xlink:href="#DejaVuSans-52" transform="translate(969.0625 0)"/>
     <use xlink:href="#DejaVuSans-55" transform="translate(1030.25 0)"/>
     <use xlink:href="#DejaVuSans-50" transform="translate(1069.609375 0)"/>
     <use xlink:href="#DejaVuSans-44" transform="translate(1167.015625 0)"/>
     <use xlink:href="#DejaVuSans-57" transform="translate(1228.296875 0)"/>
     <use xlink:href="#DejaVuSans-4c" transform="translate(1267.5 0)"/>
     <use xlink:href="#DejaVuSans-52" transform="translate(1295.28125 0)"/>
     <use xlink:href="#DejaVuSans-51" transform="translate(1356.46875 0)"/>
     <use xlink:href="#DejaVuSans-3" transform="translate(1419.84375 0)"/>
     <use xlink:href="#DejaVuSans-46" transform="translate(1451.625 0)"/>
     <use xlink:href="#DejaVuSans-52" transform="translate(1506.609375 0)"/>
     <use xlink:href="#DejaVuSans-51" transform="translate(1567.796875 0)"/>
     <use xlink:href="#DejaVuSans-46" transform="translate(1631.171875 0)"/>
     <use xlink:href="#DejaVuSans-48" transform="translate(1686.15625 0)"/>
     <use xlink:href="#DejaVuSans-53" transform="translate(1747.6875 0)"/>
     <use xlink:href="#DejaVuSans-57" transform="translate(1811.171875 0)"/>
     <use xlink:href="#DejaVuSans-3" transform="translate(1850.375 0)"/>
     <use xlink:href="#DejaVuSans-57" transform="translate(1882.15625 0)"/>
     <use xlink:href="#DejaVuSans-4b" transform="translate(1921.359375 0)"/>
     <use xlink:href="#DejaVuSans-44" transform="translate(1984.734375 0)"/>
     <use xlink:href="#DejaVuSans-57" transform="translate(2046.015625 0)"/>
    </g>
    <!-- describes a structure-preserving change -->
    <g style="fill: #111827" transform="translate(501.619688 134.779025) scale(0.092 -0.092)">
     <use xlink:href="#DejaVuSans-47"/>
     <use xlink:href="#DejaVuSans-48" transform="translate(63.484375 0)"/>
     <use xlink:href="#DejaVuSans-56" transform="translate(125.015625 0)"/>
     <use xlink:href="#DejaVuSans-46" transform="translate(177.109375 0)"/>
     <use xlink:href="#DejaVuSans-55" transform="translate(232.09375 0)"/>
     <use xlink:href="#DejaVuSans-4c" transform="translate(273.203125 0)"/>
     <use xlink:href="#DejaVuSans-45" transform="translate(300.984375 0)"/>
     <use xlink:href="#DejaVuSans-48" transform="translate(364.46875 0)"/>
     <use xlink:href="#DejaVuSans-56" transform="translate(426 0)"/>
     <use xlink:href="#DejaVuSans-3" transform="translate(478.09375 0)"/>
     <use xlink:href="#DejaVuSans-44" transform="translate(509.875 0)"/>
     <use xlink:href="#DejaVuSans-3" transform="translate(571.15625 0)"/>
     <use xlink:href="#DejaVuSans-56" transform="translate(602.9375 0)"/>
     <use xlink:href="#DejaVuSans-57" transform="translate(655.03125 0)"/>
     <use xlink:href="#DejaVuSans-55" transform="translate(694.234375 0)"/>
     <use xlink:href="#DejaVuSans-58" transform="translate(735.34375 0)"/>
     <use xlink:href="#DejaVuSans-46" transform="translate(798.71875 0)"/>
     <use xlink:href="#DejaVuSans-57" transform="translate(853.703125 0)"/>
     <use xlink:href="#DejaVuSans-58" transform="translate(892.90625 0)"/>
     <use xlink:href="#DejaVuSans-55" transform="translate(956.28125 0)"/>
     <use xlink:href="#DejaVuSans-48" transform="translate(995.1875 0)"/>
     <use xlink:href="#DejaVuSans-10" transform="translate(1056.71875 0)"/>
     <use xlink:href="#DejaVuSans-53" transform="translate(1092.796875 0)"/>
     <use xlink:href="#DejaVuSans-55" transform="translate(1156.28125 0)"/>
     <use xlink:href="#DejaVuSans-48" transform="translate(1195.1875 0)"/>
     <use xlink:href="#DejaVuSans-56" transform="translate(1256.71875 0)"/>
     <use xlink:href="#DejaVuSans-48" transform="translate(1308.8125 0)"/>
     <use xlink:href="#DejaVuSans-55" transform="translate(1370.34375 0)"/>
     <use xlink:href="#DejaVuSans-59" transform="translate(1411.453125 0)"/>
     <use xlink:href="#DejaVuSans-4c" transform="translate(1470.640625 0)"/>
     <use xlink:href="#DejaVuSans-51" transform="translate(1498.421875 0)"/>
     <use xlink:href="#DejaVuSans-4a" transform="translate(1561.796875 0)"/>
     <use xlink:href="#DejaVuSans-3" transform="translate(1625.28125 0)"/>
     <use xlink:href="#DejaVuSans-46" transform="translate(1657.0625 0)"/>
     <use xlink:href="#DejaVuSans-4b" transform="translate(1712.046875 0)"/>
     <use xlink:href="#DejaVuSans-44" transform="translate(1775.421875 0)"/>
     <use xlink:href="#DejaVuSans-51" transform="translate(1836.703125 0)"/>
     <use xlink:href="#DejaVuSans-4a" transform="translate(1900.078125 0)"/>
     <use xlink:href="#DejaVuSans-48" transform="translate(1963.5625 0)"/>
    </g>
    <!-- or mapping. -->
    <g style="fill: #111827" transform="translate(566.890813 145.359025) scale(0.092 -0.092)">
     <use xlink:href="#DejaVuSans-52"/>
     <use xlink:href="#DejaVuSans-55" transform="translate(61.1875 0)"/>
     <use xlink:href="#DejaVuSans-3" transform="translate(102.296875 0)"/>
     <use xlink:href="#DejaVuSans-50" transform="translate(134.078125 0)"/>
     <use xlink:href="#DejaVuSans-44" transform="translate(231.484375 0)"/>
     <use xlink:href="#DejaVuSans-53" transform="translate(292.765625 0)"/>
     <use xlink:href="#DejaVuSans-53" transform="translate(356.25 0)"/>
     <use xlink:href="#DejaVuSans-4c" transform="translate(419.734375 0)"/>
     <use xlink:href="#DejaVuSans-51" transform="translate(447.515625 0)"/>
     <use xlink:href="#DejaVuSans-4a" transform="translate(510.890625 0)"/>
     <use xlink:href="#DejaVuSans-11" transform="translate(574.375 0)"/>
    </g>
   </g>
   <g id="patch_8">
    <path d="M 450.024734 204.812401 
Q 456.947876 163.54154 463.556578 124.145145 
" style="fill: none; stroke: #5b6472; stroke-width: 1.7; stroke-linecap: round"/>
    <path d="M 459.868712 129.204754 
L 463.556578 124.145145 
L 465.391546 130.131204 
z
" style="fill: #5b6472; stroke: #5b6472; stroke-width: 1.7; stroke-linecap: round"/>
   </g>
   <g id="text_8">
    <!-- Expert -->
    <g style="fill: #1f2937" transform="translate(121.019672 319.710393) scale(0.13 -0.13)">
     <defs>
      <path id="DejaVuSans-Bold-28" d="M 588 4666 
L 3834 4666 
L 3834 3756 
L 1791 3756 
L 1791 2888 
L 3713 2888 
L 3713 1978 
L 1791 1978 
L 1791 909 
L 3903 909 
L 3903 0 
L 588 0 
L 588 4666 
z
" transform="scale(0.015625)"/>
      <path id="DejaVuSans-Bold-5b" d="M 1422 1791 
L 159 3500 
L 1344 3500 
L 2059 2463 
L 2784 3500 
L 3969 3500 
L 2706 1797 
L 4031 0 
L 2847 0 
L 2059 1106 
L 1281 0 
L 97 0 
L 1422 1791 
z
" transform="scale(0.015625)"/>
      <path id="DejaVuSans-Bold-53" d="M 1656 506 
L 1656 -1331 
L 538 -1331 
L 538 3500 
L 1656 3500 
L 1656 2988 
Q 1888 3294 2169 3439 
Q 2450 3584 2816 3584 
Q 3463 3584 3878 3070 
Q 4294 2556 4294 1747 
Q 4294 938 3878 423 
Q 3463 -91 2816 -91 
Q 2450 -91 2169 54 
Q 1888 200 1656 506 
z
M 2400 2772 
Q 2041 2772 1848 2508 
Q 1656 2244 1656 1747 
Q 1656 1250 1848 986 
Q 2041 722 2400 722 
Q 2759 722 2948 984 
Q 3138 1247 3138 1747 
Q 3138 2247 2948 2509 
Q 2759 2772 2400 2772 
z
" transform="scale(0.015625)"/>
      <path id="DejaVuSans-Bold-55" d="M 3138 2547 
Q 2991 2616 2845 2648 
Q 2700 2681 2553 2681 
Q 2122 2681 1889 2404 
Q 1656 2128 1656 1613 
L 1656 0 
L 538 0 
L 538 3500 
L 1656 3500 
L 1656 2925 
Q 1872 3269 2151 3426 
Q 2431 3584 2822 3584 
Q 2878 3584 2943 3579 
Q 3009 3575 3134 3559 
L 3138 2547 
z
" transform="scale(0.015625)"/>
      <path id="DejaVuSans-Bold-57" d="M 1759 4494 
L 1759 3500 
L 2913 3500 
L 2913 2700 
L 1759 2700 
L 1759 1216 
Q 1759 972 1856 886 
Q 1953 800 2241 800 
L 2816 800 
L 2816 0 
L 1856 0 
Q 1194 0 917 276 
Q 641 553 641 1216 
L 641 2700 
L 84 2700 
L 84 3500 
L 641 3500 
L 641 4494 
L 1759 4494 
z
" transform="scale(0.015625)"/>
     </defs>
     <use xlink:href="#DejaVuSans-Bold-28"/>
     <use xlink:href="#DejaVuSans-Bold-5b" transform="translate(68.3125 0)"/>
     <use xlink:href="#DejaVuSans-Bold-53" transform="translate(132.8125 0)"/>
     <use xlink:href="#DejaVuSans-Bold-48" transform="translate(204.390625 0)"/>
     <use xlink:href="#DejaVuSans-Bold-55" transform="translate(272.21875 0)"/>
     <use xlink:href="#DejaVuSans-Bold-57" transform="translate(321.53125 0)"/>
    </g>
   </g>
   <g id="text_9">
    <!-- Linear mapping denotes a Linear mapping -->
    <g style="fill: #111827" transform="translate(47.286063 335.379025) scale(0.092 -0.092)">
     <use xlink:href="#DejaVuSans-2f"/>
     <use xlink:href="#DejaVuSans-4c" transform="translate(55.71875 0)"/>
     <use xlink:href="#DejaVuSans-51" transform="translate(83.5 0)"/>
     <use xlink:href="#DejaVuSans-48" transform="translate(146.875 0)"/>
     <use xlink:href="#DejaVuSans-44" transform="translate(208.40625 0)"/>
     <use xlink:href="#DejaVuSans-55" transform="translate(269.6875 0)"/>
     <use xlink:href="#DejaVuSans-3" transform="translate(310.796875 0)"/>
     <use xlink:href="#DejaVuSans-50" transform="translate(342.578125 0)"/>
     <use xlink:href="#DejaVuSans-44" transform="translate(439.984375 0)"/>
     <use xlink:href="#DejaVuSans-53" transform="translate(501.265625 0)"/>
     <use xlink:href="#DejaVuSans-53" transform="translate(564.75 0)"/>
     <use xlink:href="#DejaVuSans-4c" transform="translate(628.234375 0)"/>
     <use xlink:href="#DejaVuSans-51" transform="translate(656.015625 0)"/>
     <use xlink:href="#DejaVuSans-4a" transform="translate(719.390625 0)"/>
     <use xlink:href="#DejaVuSans-3" transform="translate(782.875 0)"/>
     <use xlink:href="#DejaVuSans-47" transform="translate(814.65625 0)"/>
     <use xlink:href="#DejaVuSans-48" transform="translate(878.140625 0)"/>
     <use xlink:href="#DejaVuSans-51" transform="translate(939.671875 0)"/>
     <use xlink:href="#DejaVuSans-52" transform="translate(1003.046875 0)"/>
     <use xlink:href="#DejaVuSans-57" transform="translate(1064.234375 0)"/>
     <use xlink:href="#DejaVuSans-48" transform="translate(1103.4375 0)"/>
     <use xlink:href="#DejaVuSans-56" transform="translate(1164.96875 0)"/>
     <use xlink:href="#DejaVuSans-3" transform="translate(1217.0625 0)"/>
     <use xlink:href="#DejaVuSans-44" transform="translate(1248.84375 0)"/>
     <use xlink:href="#DejaVuSans-3" transform="translate(1310.125 0)"/>
     <use xlink:href="#DejaVuSans-2f" transform="translate(1341.90625 0)"/>
     <use xlink:href="#DejaVuSans-4c" transform="translate(1397.625 0)"/>
     <use xlink:href="#DejaVuSans-51" transform="translate(1425.40625 0)"/>
     <use xlink:href="#DejaVuSans-48" transform="translate(1488.78125 0)"/>
     <use xlink:href="#DejaVuSans-44" transform="translate(1550.3125 0)"/>
     <use xlink:href="#DejaVuSans-55" transform="translate(1611.59375 0)"/>
     <use xlink:href="#DejaVuSans-3" transform="translate(1652.703125 0)"/>
     <use xlink:href="#DejaVuSans-50" transform="translate(1684.484375 0)"/>
     <use xlink:href="#DejaVuSans-44" transform="translate(1781.890625 0)"/>
     <use xlink:href="#DejaVuSans-53" transform="translate(1843.171875 0)"/>
     <use xlink:href="#DejaVuSans-53" transform="translate(1906.65625 0)"/>
     <use xlink:href="#DejaVuSans-4c" transform="translate(1970.140625 0)"/>
     <use xlink:href="#DejaVuSans-51" transform="translate(1997.921875 0)"/>
     <use xlink:href="#DejaVuSans-4a" transform="translate(2061.296875 0)"/>
    </g>
    <!-- is a transformation concept that -->
    <g style="fill: #111827" transform="translate(70.821531 345.959025) scale(0.092 -0.092)">
     <use xlink:href="#DejaVuSans-4c"/>
     <use xlink:href="#DejaVuSans-56" transform="translate(27.78125 0)"/>
     <use xlink:href="#DejaVuSans-3" transform="translate(79.875 0)"/>
     <use xlink:href="#DejaVuSans-44" transform="translate(111.65625 0)"/>
     <use xlink:href="#DejaVuSans-3" transform="translate(172.9375 0)"/>
     <use xlink:href="#DejaVuSans-57" transform="translate(204.71875 0)"/>
     <use xlink:href="#DejaVuSans-55" transform="translate(243.921875 0)"/>
     <use xlink:href="#DejaVuSans-44" transform="translate(285.03125 0)"/>
     <use xlink:href="#DejaVuSans-51" transform="translate(346.3125 0)"/>
     <use xlink:href="#DejaVuSans-56" transform="translate(409.6875 0)"/>
     <use xlink:href="#DejaVuSans-49" transform="translate(461.78125 0)"/>
     <use xlink:href="#DejaVuSans-52" transform="translate(496.984375 0)"/>
     <use xlink:href="#DejaVuSans-55" transform="translate(558.171875 0)"/>
     <use xlink:href="#DejaVuSans-50" transform="translate(597.53125 0)"/>
     <use xlink:href="#DejaVuSans-44" transform="translate(694.9375 0)"/>
     <use xlink:href="#DejaVuSans-57" transform="translate(756.21875 0)"/>
     <use xlink:href="#DejaVuSans-4c" transform="translate(795.421875 0)"/>
     <use xlink:href="#DejaVuSans-52" transform="translate(823.203125 0)"/>
     <use xlink:href="#DejaVuSans-51" transform="translate(884.390625 0)"/>
     <use xlink:href="#DejaVuSans-3" transform="translate(947.765625 0)"/>
     <use xlink:href="#DejaVuSans-46" transform="translate(979.546875 0)"/>
     <use xlink:href="#DejaVuSans-52" transform="translate(1034.53125 0)"/>
     <use xlink:href="#DejaVuSans-51" transform="translate(1095.71875 0)"/>
     <use xlink:href="#DejaVuSans-46" transform="translate(1159.09375 0)"/>
     <use xlink:href="#DejaVuSans-48" transform="translate(1214.078125 0)"/>
     <use xlink:href="#DejaVuSans-53" transform="translate(1275.609375 0)"/>
     <use xlink:href="#DejaVuSans-57" transform="translate(1339.09375 0)"/>
     <use xlink:href="#DejaVuSans-3" transform="translate(1378.296875 0)"/>
     <use xlink:href="#DejaVuSans-57" transform="translate(1410.078125 0)"/>
     <use xlink:href="#DejaVuSans-4b" transform="translate(1449.28125 0)"/>
     <use xlink:href="#DejaVuSans-44" transform="translate(1512.65625 0)"/>
     <use xlink:href="#DejaVuSans-57" transform="translate(1573.9375 0)"/>
    </g>
    <!-- describes a structure-preserving change -->
    <g style="fill: #111827" transform="translate(51.871688 356.539025) scale(0.092 -0.092)">
     <use xlink:href="#DejaVuSans-47"/>
     <use xlink:href="#DejaVuSans-48" transform="translate(63.484375 0)"/>
     <use xlink:href="#DejaVuSans-56" transform="translate(125.015625 0)"/>
     <use xlink:href="#DejaVuSans-46" transform="translate(177.109375 0)"/>
     <use xlink:href="#DejaVuSans-55" transform="translate(232.09375 0)"/>
     <use xlink:href="#DejaVuSans-4c" transform="translate(273.203125 0)"/>
     <use xlink:href="#DejaVuSans-45" transform="translate(300.984375 0)"/>
     <use xlink:href="#DejaVuSans-48" transform="translate(364.46875 0)"/>
     <use xlink:href="#DejaVuSans-56" transform="translate(426 0)"/>
     <use xlink:href="#DejaVuSans-3" transform="translate(478.09375 0)"/>
     <use xlink:href="#DejaVuSans-44" transform="translate(509.875 0)"/>
     <use xlink:href="#DejaVuSans-3" transform="translate(571.15625 0)"/>
     <use xlink:href="#DejaVuSans-56" transform="translate(602.9375 0)"/>
     <use xlink:href="#DejaVuSans-57" transform="translate(655.03125 0)"/>
     <use xlink:href="#DejaVuSans-55" transform="translate(694.234375 0)"/>
     <use xlink:href="#DejaVuSans-58" transform="translate(735.34375 0)"/>
     <use xlink:href="#DejaVuSans-46" transform="translate(798.71875 0)"/>
     <use xlink:href="#DejaVuSans-57" transform="translate(853.703125 0)"/>
     <use xlink:href="#DejaVuSans-58" transform="translate(892.90625 0)"/>
     <use xlink:href="#DejaVuSans-55" transform="translate(956.28125 0)"/>
     <use xlink:href="#DejaVuSans-48" transform="translate(995.1875 0)"/>
     <use xlink:href="#DejaVuSans-10" transform="translate(1056.71875 0)"/>
     <use xlink:href="#DejaVuSans-53" transform="translate(1092.796875 0)"/>
     <use xlink:href="#DejaVuSans-55" transform="translate(1156.28125 0)"/>
     <use xlink:href="#DejaVuSans-48" transform="translate(1195.1875 0)"/>
     <use xlink:href="#DejaVuSans-56" transform="translate(1256.71875 0)"/>
     <use xlink:href="#DejaVuSans-48" transform="translate(1308.8125 0)"/>
     <use xlink:href="#DejaVuSans-55" transform="translate(1370.34375 0)"/>
     <use xlink:href="#DejaVuSans-59" transform="translate(1411.453125 0)"/>
     <use xlink:href="#DejaVuSans-4c" transform="translate(1470.640625 0)"/>
     <use xlink:href="#DejaVuSans-51" transform="translate(1498.421875 0)"/>
     <use xlink:href="#DejaVuSans-4a" transform="translate(1561.796875 0)"/>
     <use xlink:href="#DejaVuSans-3" transform="translate(1625.28125 0)"/>
     <use xlink:href="#DejaVuSans-46" transform="translate(1657.0625 0)"/>
     <use xlink:href="#DejaVuSans-4b" transform="translate(1712.046875 0)"/>
     <use xlink:href="#DejaVuSans-44" transform="translate(1775.421875 0)"/>
     <use xlink:href="#DejaVuSans-51" transform="translate(1836.703125 0)"/>
     <use xlink:href="#DejaVuSans-4a" transform="translate(1900.078125 0)"/>
     <use xlink:href="#DejaVuSans-48" transform="translate(1963.5625 0)"/>
    </g>
    <!-- or mapping. -->
    <g style="fill: #111827" transform="translate(117.142813 367.119025) scale(0.092 -0.092)">
     <use xlink:href="#DejaVuSans-52"/>
     <use xlink:href="#DejaVuSans-55" transform="translate(61.1875 0)"/>
     <use xlink:href="#DejaVuSans-3" transform="translate(102.296875 0)"/>
     <use xlink:href="#DejaVuSans-50" transform="translate(134.078125 0)"/>
     <use xlink:href="#DejaVuSans-44" transform="translate(231.484375 0)"/>
     <use xlink:href="#DejaVuSans-53" transform="translate(292.765625 0)"/>
     <use xlink:href="#DejaVuSans-53" transform="translate(356.25 0)"/>
     <use xlink:href="#DejaVuSans-4c" transform="translate(419.734375 0)"/>
     <use xlink:href="#DejaVuSans-51" transform="translate(447.515625 0)"/>
     <use xlink:href="#DejaVuSans-4a" transform="translate(510.890625 0)"/>
     <use xlink:href="#DejaVuSans-11" transform="translate(574.375 0)"/>
    </g>
   </g>
   <g id="patch_9">
    <path d="M 289.841679 235.37492 
Q 282.8522 287.7249 276.114255 338.19094 
" style="fill: none; stroke: #5b6472; stroke-width: 1.7; stroke-linecap: round"/>
    <path d="M 279.630732 333.010748 
L 276.114255 338.19094 
L 274.079987 332.269643 
z
" style="fill: #5b6472; stroke: #5b6472; stroke-width: 1.7; stroke-linecap: round"/>
   </g>
   <g id="text_10">
    <!-- Document role -->
    <g style="fill: #1f2937" transform="translate(540.944859 319.710901) scale(0.13 -0.13)">
     <defs>
      <path id="DejaVuSans-Bold-27" d="M 1791 3756 
L 1791 909 
L 2222 909 
Q 2959 909 3348 1275 
Q 3738 1641 3738 2338 
Q 3738 3031 3350 3393 
Q 2963 3756 2222 3756 
L 1791 3756 
z
M 588 4666 
L 1856 4666 
Q 2919 4666 3439 4514 
Q 3959 4363 4331 4000 
Q 4659 3684 4818 3271 
Q 4978 2859 4978 2338 
Q 4978 1809 4818 1395 
Q 4659 981 4331 666 
Q 3956 303 3431 151 
Q 2906 0 1856 0 
L 588 0 
L 588 4666 
z
" transform="scale(0.015625)"/>
      <path id="DejaVuSans-Bold-58" d="M 500 1363 
L 500 3500 
L 1625 3500 
L 1625 3150 
Q 1625 2866 1622 2436 
Q 1619 2006 1619 1863 
Q 1619 1441 1641 1255 
Q 1663 1069 1716 984 
Q 1784 875 1895 815 
Q 2006 756 2150 756 
Q 2500 756 2700 1025 
Q 2900 1294 2900 1772 
L 2900 3500 
L 4019 3500 
L 4019 0 
L 2900 0 
L 2900 506 
Q 2647 200 2364 54 
Q 2081 -91 1741 -91 
Q 1134 -91 817 281 
Q 500 653 500 1363 
z
" transform="scale(0.015625)"/>
     </defs>
     <use xlink:href="#DejaVuSans-Bold-27"/>
     <use xlink:href="#DejaVuSans-Bold-52" transform="translate(83.015625 0)"/>
     <use xlink:href="#DejaVuSans-Bold-46" transform="translate(151.71875 0)"/>
     <use xlink:href="#DejaVuSans-Bold-58" transform="translate(211 0)"/>
     <use xlink:href="#DejaVuSans-Bold-50" transform="translate(282.1875 0)"/>
     <use xlink:href="#DejaVuSans-Bold-48" transform="translate(386.390625 0)"/>
     <use xlink:href="#DejaVuSans-Bold-51" transform="translate(454.21875 0)"/>
     <use xlink:href="#DejaVuSans-Bold-57" transform="translate(525.40625 0)"/>
     <use xlink:href="#DejaVuSans-Bold-3" transform="translate(573.203125 0)"/>
     <use xlink:href="#DejaVuSans-Bold-55" transform="translate(608.015625 0)"/>
     <use xlink:href="#DejaVuSans-Bold-52" transform="translate(657.328125 0)"/>
     <use xlink:href="#DejaVuSans-Bold-4f" transform="translate(726.03125 0)"/>
     <use xlink:href="#DejaVuSans-Bold-48" transform="translate(760.3125 0)"/>
    </g>
   </g>
   <g id="text_11">
    <!-- In a mathematical document, linear -->
    <g style="fill: #111827" transform="translate(512.296719 335.800931) scale(0.092 -0.092)">
     <defs>
      <path id="DejaVuSans-2c" d="M 628 4666 
L 1259 4666 
L 1259 0 
L 628 0 
L 628 4666 
z
" transform="scale(0.015625)"/>
      <path id="DejaVuSans-f" d="M 750 794 
L 1409 794 
L 1409 256 
L 897 -744 
L 494 -744 
L 750 256 
L 750 794 
z
" transform="scale(0.015625)"/>
     </defs>
     <use xlink:href="#DejaVuSans-2c"/>
     <use xlink:href="#DejaVuSans-51" transform="translate(29.5 0)"/>
     <use xlink:href="#DejaVuSans-3" transform="translate(92.875 0)"/>
     <use xlink:href="#DejaVuSans-44" transform="translate(124.65625 0)"/>
     <use xlink:href="#DejaVuSans-3" transform="translate(185.9375 0)"/>
     <use xlink:href="#DejaVuSans-50" transform="translate(217.71875 0)"/>
     <use xlink:href="#DejaVuSans-44" transform="translate(315.125 0)"/>
     <use xlink:href="#DejaVuSans-57" transform="translate(376.40625 0)"/>
     <use xlink:href="#DejaVuSans-4b" transform="translate(415.609375 0)"/>
     <use xlink:href="#DejaVuSans-48" transform="translate(478.984375 0)"/>
     <use xlink:href="#DejaVuSans-50" transform="translate(540.515625 0)"/>
     <use xlink:href="#DejaVuSans-44" transform="translate(637.921875 0)"/>
     <use xlink:href="#DejaVuSans-57" transform="translate(699.203125 0)"/>
     <use xlink:href="#DejaVuSans-4c" transform="translate(738.40625 0)"/>
     <use xlink:href="#DejaVuSans-46" transform="translate(766.1875 0)"/>
     <use xlink:href="#DejaVuSans-44" transform="translate(821.171875 0)"/>
     <use xlink:href="#DejaVuSans-4f" transform="translate(882.453125 0)"/>
     <use xlink:href="#DejaVuSans-3" transform="translate(910.234375 0)"/>
     <use xlink:href="#DejaVuSans-47" transform="translate(942.015625 0)"/>
     <use xlink:href="#DejaVuSans-52" transform="translate(1005.5 0)"/>
     <use xlink:href="#DejaVuSans-46" transform="translate(1066.6875 0)"/>
     <use xlink:href="#DejaVuSans-58" transform="translate(1121.671875 0)"/>
     <use xlink:href="#DejaVuSans-50" transform="translate(1185.046875 0)"/>
     <use xlink:href="#DejaVuSans-48" transform="translate(1282.453125 0)"/>
     <use xlink:href="#DejaVuSans-51" transform="translate(1343.984375 0)"/>
     <use xlink:href="#DejaVuSans-57" transform="translate(1407.359375 0)"/>
     <use xlink:href="#DejaVuSans-f" transform="translate(1446.5625 0)"/>
     <use xlink:href="#DejaVuSans-3" transform="translate(1478.34375 0)"/>
     <use xlink:href="#DejaVuSans-4f" transform="translate(1510.125 0)"/>
     <use xlink:href="#DejaVuSans-4c" transform="translate(1537.90625 0)"/>
     <use xlink:href="#DejaVuSans-51" transform="translate(1565.6875 0)"/>
     <use xlink:href="#DejaVuSans-48" transform="translate(1629.0625 0)"/>
     <use xlink:href="#DejaVuSans-44" transform="translate(1690.59375 0)"/>
     <use xlink:href="#DejaVuSans-55" transform="translate(1751.875 0)"/>
    </g>
    <!-- mapping usually signals a transformation -->
    <g style="fill: #111827" transform="translate(499.346281 345.959025) scale(0.092 -0.092)">
     <defs>
      <path id="DejaVuSans-5c" d="M 2059 -325 
Q 1816 -950 1584 -1140 
Q 1353 -1331 966 -1331 
L 506 -1331 
L 506 -850 
L 844 -850 
Q 1081 -850 1212 -737 
Q 1344 -625 1503 -206 
L 1606 56 
L 191 3500 
L 800 3500 
L 1894 763 
L 2988 3500 
L 3597 3500 
L 2059 -325 
z
" transform="scale(0.015625)"/>
     </defs>
     <use xlink:href="#DejaVuSans-50"/>
     <use xlink:href="#DejaVuSans-44" transform="translate(97.40625 0)"/>
     <use xlink:href="#DejaVuSans-53" transform="translate(158.6875 0)"/>
     <use xlink:href="#DejaVuSans-53" transform="translate(222.171875 0)"/>
     <use xlink:href="#DejaVuSans-4c" transform="translate(285.65625 0)"/>
     <use xlink:href="#DejaVuSans-51" transform="translate(313.4375 0)"/>
     <use xlink:href="#DejaVuSans-4a" transform="translate(376.8125 0)"/>
     <use xlink:href="#DejaVuSans-3" transform="translate(440.296875 0)"/>
     <use xlink:href="#DejaVuSans-58" transform="translate(472.078125 0)"/>
     <use xlink:href="#DejaVuSans-56" transform="translate(535.453125 0)"/>
     <use xlink:href="#DejaVuSans-58" transform="translate(587.546875 0)"/>
     <use xlink:href="#DejaVuSans-44" transform="translate(650.921875 0)"/>
     <use xlink:href="#DejaVuSans-4f" transform="translate(712.203125 0)"/>
     <use xlink:href="#DejaVuSans-4f" transform="translate(739.984375 0)"/>
     <use xlink:href="#DejaVuSans-5c" transform="translate(767.765625 0)"/>
     <use xlink:href="#DejaVuSans-3" transform="translate(826.953125 0)"/>
     <use xlink:href="#DejaVuSans-56" transform="translate(858.734375 0)"/>
     <use xlink:href="#DejaVuSans-4c" transform="translate(910.828125 0)"/>
     <use xlink:href="#DejaVuSans-4a" transform="translate(938.609375 0)"/>
     <use xlink:href="#DejaVuSans-51" transform="translate(1002.09375 0)"/>
     <use xlink:href="#DejaVuSans-44" transform="translate(1065.46875 0)"/>
     <use xlink:href="#DejaVuSans-4f" transform="translate(1126.75 0)"/>
     <use xlink:href="#DejaVuSans-56" transform="translate(1154.53125 0)"/>
     <use xlink:href="#DejaVuSans-3" transform="translate(1206.625 0)"/>
     <use xlink:href="#DejaVuSans-44" transform="translate(1238.40625 0)"/>
     <use xlink:href="#DejaVuSans-3" transform="translate(1299.6875 0)"/>
     <use xlink:href="#DejaVuSans-57" transform="translate(1331.46875 0)"/>
     <use xlink:href="#DejaVuSans-55" transform="translate(1370.671875 0)"/>
     <use xlink:href="#DejaVuSans-44" transform="translate(1411.78125 0)"/>
     <use xlink:href="#DejaVuSans-51" transform="translate(1473.0625 0)"/>
     <use xlink:href="#DejaVuSans-56" transform="translate(1536.4375 0)"/>
     <use xlink:href="#DejaVuSans-49" transform="translate(1588.53125 0)"/>
     <use xlink:href="#DejaVuSans-52" transform="translate(1623.734375 0)"/>
     <use xlink:href="#DejaVuSans-55" transform="translate(1684.921875 0)"/>
     <use xlink:href="#DejaVuSans-50" transform="translate(1724.28125 0)"/>
     <use xlink:href="#DejaVuSans-44" transform="translate(1821.6875 0)"/>
     <use xlink:href="#DejaVuSans-57" transform="translate(1882.96875 0)"/>
     <use xlink:href="#DejaVuSans-4c" transform="translate(1922.171875 0)"/>
     <use xlink:href="#DejaVuSans-52" transform="translate(1949.953125 0)"/>
     <use xlink:href="#DejaVuSans-51" transform="translate(2011.140625 0)"/>
    </g>
    <!-- concept with provenance from -->
    <g style="fill: #111827" transform="translate(524.496063 356.539025) scale(0.092 -0.092)">
     <defs>
      <path id="DejaVuSans-5a" d="M 269 3500 
L 844 3500 
L 1563 769 
L 2278 3500 
L 2956 3500 
L 3675 769 
L 4391 3500 
L 4966 3500 
L 4050 0 
L 3372 0 
L 2619 2869 
L 1863 0 
L 1184 0 
L 269 3500 
z
" transform="scale(0.015625)"/>
     </defs>
     <use xlink:href="#DejaVuSans-46"/>
     <use xlink:href="#DejaVuSans-52" transform="translate(54.984375 0)"/>
     <use xlink:href="#DejaVuSans-51" transform="translate(116.171875 0)"/>
     <use xlink:href="#DejaVuSans-46" transform="translate(179.546875 0)"/>
     <use xlink:href="#DejaVuSans-48" transform="translate(234.53125 0)"/>
     <use xlink:href="#DejaVuSans-53" transform="translate(296.0625 0)"/>
     <use xlink:href="#DejaVuSans-57" transform="translate(359.546875 0)"/>
     <use xlink:href="#DejaVuSans-3" transform="translate(398.75 0)"/>
     <use xlink:href="#DejaVuSans-5a" transform="translate(430.53125 0)"/>
     <use xlink:href="#DejaVuSans-4c" transform="translate(512.3125 0)"/>
     <use xlink:href="#DejaVuSans-57" transform="translate(540.09375 0)"/>
     <use xlink:href="#DejaVuSans-4b" transform="translate(579.296875 0)"/>
     <use xlink:href="#DejaVuSans-3" transform="translate(642.671875 0)"/>
     <use xlink:href="#DejaVuSans-53" transform="translate(674.453125 0)"/>
     <use xlink:href="#DejaVuSans-55" transform="translate(737.9375 0)"/>
     <use xlink:href="#DejaVuSans-52" transform="translate(776.84375 0)"/>
     <use xlink:href="#DejaVuSans-59" transform="translate(838.03125 0)"/>
     <use xlink:href="#DejaVuSans-48" transform="translate(897.21875 0)"/>
     <use xlink:href="#DejaVuSans-51" transform="translate(958.75 0)"/>
     <use xlink:href="#DejaVuSans-44" transform="translate(1022.125 0)"/>
     <use xlink:href="#DejaVuSans-51" transform="translate(1083.40625 0)"/>
     <use xlink:href="#DejaVuSans-46" transform="translate(1146.78125 0)"/>
     <use xlink:href="#DejaVuSans-48" transform="translate(1201.765625 0)"/>
     <use xlink:href="#DejaVuSans-3" transform="translate(1263.296875 0)"/>
     <use xlink:href="#DejaVuSans-49" transform="translate(1295.078125 0)"/>
     <use xlink:href="#DejaVuSans-55" transform="translate(1330.28125 0)"/>
     <use xlink:href="#DejaVuSans-52" transform="translate(1369.1875 0)"/>
     <use xlink:href="#DejaVuSans-50" transform="translate(1430.375 0)"/>
    </g>
    <!-- OntoMathPRO. -->
    <g style="fill: #111827" transform="translate(561.246469 368.010275) scale(0.092 -0.092)">
     <defs>
      <path id="DejaVuSans-32" d="M 2522 4238 
Q 1834 4238 1429 3725 
Q 1025 3213 1025 2328 
Q 1025 1447 1429 934 
Q 1834 422 2522 422 
Q 3209 422 3611 934 
Q 4013 1447 4013 2328 
Q 4013 3213 3611 3725 
Q 3209 4238 2522 4238 
z
M 2522 4750 
Q 3503 4750 4090 4092 
Q 4678 3434 4678 2328 
Q 4678 1225 4090 567 
Q 3503 -91 2522 -91 
Q 1538 -91 948 565 
Q 359 1222 359 2328 
Q 359 3434 948 4092 
Q 1538 4750 2522 4750 
z
" transform="scale(0.015625)"/>
      <path id="DejaVuSans-30" d="M 628 4666 
L 1569 4666 
L 2759 1491 
L 3956 4666 
L 4897 4666 
L 4897 0 
L 4281 0 
L 4281 4097 
L 3078 897 
L 2444 897 
L 1241 4097 
L 1241 0 
L 628 0 
L 628 4666 
z
" transform="scale(0.015625)"/>
      <path id="DejaVuSans-33" d="M 1259 4147 
L 1259 2394 
L 2053 2394 
Q 2494 2394 2734 2622 
Q 2975 2850 2975 3272 
Q 2975 3691 2734 3919 
Q 2494 4147 2053 4147 
L 1259 4147 
z
M 628 4666 
L 2053 4666 
Q 2838 4666 3239 4311 
Q 3641 3956 3641 3272 
Q 3641 2581 3239 2228 
Q 2838 1875 2053 1875 
L 1259 1875 
L 1259 0 
L 628 0 
L 628 4666 
z
" transform="scale(0.015625)"/>
      <path id="DejaVuSans-35" d="M 2841 2188 
Q 3044 2119 3236 1894 
Q 3428 1669 3622 1275 
L 4263 0 
L 3584 0 
L 2988 1197 
Q 2756 1666 2539 1819 
Q 2322 1972 1947 1972 
L 1259 1972 
L 1259 0 
L 628 0 
L 628 4666 
L 2053 4666 
Q 2853 4666 3247 4331 
Q 3641 3997 3641 3322 
Q 3641 2881 3436 2590 
Q 3231 2300 2841 2188 
z
M 1259 4147 
L 1259 2491 
L 2053 2491 
Q 2509 2491 2742 2702 
Q 2975 2913 2975 3322 
Q 2975 3731 2742 3939 
Q 2509 4147 2053 4147 
L 1259 4147 
z
" transform="scale(0.015625)"/>
     </defs>
     <use xlink:href="#DejaVuSans-32"/>
     <use xlink:href="#DejaVuSans-51" transform="translate(78.71875 0)"/>
     <use xlink:href="#DejaVuSans-57" transform="translate(142.09375 0)"/>
     <use xlink:href="#DejaVuSans-52" transform="translate(181.296875 0)"/>
     <use xlink:href="#DejaVuSans-30" transform="translate(242.484375 0)"/>
     <use xlink:href="#DejaVuSans-44" transform="translate(328.765625 0)"/>
     <use xlink:href="#DejaVuSans-57" transform="translate(390.046875 0)"/>
     <use xlink:href="#DejaVuSans-4b" transform="translate(429.25 0)"/>
     <use xlink:href="#DejaVuSans-33" transform="translate(492.625 0)"/>
     <use xlink:href="#DejaVuSans-35" transform="translate(552.921875 0)"/>
     <use xlink:href="#DejaVuSans-32" transform="translate(622.40625 0)"/>
     <use xlink:href="#DejaVuSans-11" transform="translate(697.078125 0)"/>
    </g>
   </g>
   <g id="patch_10">
    <path d="M 449.958321 235.37492 
Q 456.9478 287.7249 463.685745 338.19094 
" style="fill: none; stroke: #5b6472; stroke-width: 1.7; stroke-linecap: round"/>
    <path d="M 465.720013 332.269643 
L 463.685745 338.19094 
L 460.169268 333.010748 
z
" style="fill: #5b6472; stroke: #5b6472; stroke-width: 1.7; stroke-linecap: round"/>
   </g>
   <g id="text_12">
    <!-- One Concept, Four Reading Perspectives -->
    <g transform="translate(128.537812 28.179098) scale(0.21 -0.21)">
     <defs>
      <path id="DejaVuSans-Bold-32" d="M 2719 3878 
Q 2169 3878 1866 3472 
Q 1563 3066 1563 2328 
Q 1563 1594 1866 1187 
Q 2169 781 2719 781 
Q 3272 781 3575 1187 
Q 3878 1594 3878 2328 
Q 3878 3066 3575 3472 
Q 3272 3878 2719 3878 
z
M 2719 4750 
Q 3844 4750 4481 4106 
Q 5119 3463 5119 2328 
Q 5119 1197 4481 553 
Q 3844 -91 2719 -91 
Q 1597 -91 958 553 
Q 319 1197 319 2328 
Q 319 3463 958 4106 
Q 1597 4750 2719 4750 
z
" transform="scale(0.015625)"/>
      <path id="DejaVuSans-Bold-f" d="M 653 1209 
L 1778 1209 
L 1778 256 
L 1006 -909 
L 341 -909 
L 653 256 
L 653 1209 
z
" transform="scale(0.015625)"/>
      <path id="DejaVuSans-Bold-29" d="M 588 4666 
L 3834 4666 
L 3834 3756 
L 1791 3756 
L 1791 2888 
L 3713 2888 
L 3713 1978 
L 1791 1978 
L 1791 0 
L 588 0 
L 588 4666 
z
" transform="scale(0.015625)"/>
      <path id="DejaVuSans-Bold-35" d="M 2297 2597 
Q 2675 2597 2839 2737 
Q 3003 2878 3003 3200 
Q 3003 3519 2839 3656 
Q 2675 3794 2297 3794 
L 1791 3794 
L 1791 2597 
L 2297 2597 
z
M 1791 1766 
L 1791 0 
L 588 0 
L 588 4666 
L 2425 4666 
Q 3347 4666 3776 4356 
Q 4206 4047 4206 3378 
Q 4206 2916 3982 2619 
Q 3759 2322 3309 2181 
Q 3556 2125 3751 1926 
Q 3947 1728 4147 1325 
L 4800 0 
L 3519 0 
L 2950 1159 
Q 2778 1509 2601 1637 
Q 2425 1766 2131 1766 
L 1791 1766 
z
" transform="scale(0.015625)"/>
      <path id="DejaVuSans-Bold-59" d="M 97 3500 
L 1216 3500 
L 2088 1081 
L 2956 3500 
L 4078 3500 
L 2700 0 
L 1472 0 
L 97 3500 
z
" transform="scale(0.015625)"/>
     </defs>
     <use xlink:href="#DejaVuSans-Bold-32"/>
     <use xlink:href="#DejaVuSans-Bold-51" transform="translate(85.015625 0)"/>
     <use xlink:href="#DejaVuSans-Bold-48" transform="translate(156.203125 0)"/>
     <use xlink:href="#DejaVuSans-Bold-3" transform="translate(224.03125 0)"/>
     <use xlink:href="#DejaVuSans-Bold-26" transform="translate(258.84375 0)"/>
     <use xlink:href="#DejaVuSans-Bold-52" transform="translate(332.234375 0)"/>
     <use xlink:href="#DejaVuSans-Bold-51" transform="translate(400.9375 0)"/>
     <use xlink:href="#DejaVuSans-Bold-46" transform="translate(472.125 0)"/>
     <use xlink:href="#DejaVuSans-Bold-48" transform="translate(531.40625 0)"/>
     <use xlink:href="#DejaVuSans-Bold-53" transform="translate(599.234375 0)"/>
     <use xlink:href="#DejaVuSans-Bold-57" transform="translate(670.8125 0)"/>
     <use xlink:href="#DejaVuSans-Bold-f" transform="translate(718.609375 0)"/>
     <use xlink:href="#DejaVuSans-Bold-3" transform="translate(756.59375 0)"/>
     <use xlink:href="#DejaVuSans-Bold-29" transform="translate(791.40625 0)"/>
     <use xlink:href="#DejaVuSans-Bold-52" transform="translate(855.671875 0)"/>
     <use xlink:href="#DejaVuSans-Bold-58" transform="translate(924.375 0)"/>
     <use xlink:href="#DejaVuSans-Bold-55" transform="translate(995.5625 0)"/>
     <use xlink:href="#DejaVuSans-Bold-3" transform="translate(1044.875 0)"/>
     <use xlink:href="#DejaVuSans-Bold-35" transform="translate(1079.6875 0)"/>
     <use xlink:href="#DejaVuSans-Bold-48" transform="translate(1156.6875 0)"/>
     <use xlink:href="#DejaVuSans-Bold-44" transform="translate(1224.515625 0)"/>
     <use xlink:href="#DejaVuSans-Bold-47" transform="translate(1292 0)"/>
     <use xlink:href="#DejaVuSans-Bold-4c" transform="translate(1363.578125 0)"/>
     <use xlink:href="#DejaVuSans-Bold-51" transform="translate(1397.859375 0)"/>
     <use xlink:href="#DejaVuSans-Bold-4a" transform="translate(1469.046875 0)"/>
     <use xlink:href="#DejaVuSans-Bold-3" transform="translate(1540.625 0)"/>
     <use xlink:href="#DejaVuSans-Bold-33" transform="translate(1575.4375 0)"/>
     <use xlink:href="#DejaVuSans-Bold-48" transform="translate(1648.734375 0)"/>
     <use xlink:href="#DejaVuSans-Bold-55" transform="translate(1716.5625 0)"/>
     <use xlink:href="#DejaVuSans-Bold-56" transform="translate(1765.875 0)"/>
     <use xlink:href="#DejaVuSans-Bold-53" transform="translate(1825.390625 0)"/>
     <use xlink:href="#DejaVuSans-Bold-48" transform="translate(1896.96875 0)"/>
     <use xlink:href="#DejaVuSans-Bold-46" transform="translate(1964.796875 0)"/>
     <use xlink:href="#DejaVuSans-Bold-57" transform="translate(2024.078125 0)"/>
     <use xlink:href="#DejaVuSans-Bold-4c" transform="translate(2071.875 0)"/>
     <use xlink:href="#DejaVuSans-Bold-59" transform="translate(2106.15625 0)"/>
     <use xlink:href="#DejaVuSans-Bold-48" transform="translate(2171.34375 0)"/>
     <use xlink:href="#DejaVuSans-Bold-56" transform="translate(2239.171875 0)"/>
    </g>
   </g>
   <g id="text_13">
    <!-- Symbol T as a KG-backed linear mapping with surface forms for different reading contexts -->
    <g style="fill: #5b6472" transform="translate(109.950586 47.886954) scale(0.115 -0.115)">
     <defs>
      <path id="DejaVuSans-36" d="M 3425 4513 
L 3425 3897 
Q 3066 4069 2747 4153 
Q 2428 4238 2131 4238 
Q 1616 4238 1336 4038 
Q 1056 3838 1056 3469 
Q 1056 3159 1242 3001 
Q 1428 2844 1947 2747 
L 2328 2669 
Q 3034 2534 3370 2195 
Q 3706 1856 3706 1288 
Q 3706 609 3251 259 
Q 2797 -91 1919 -91 
Q 1588 -91 1214 -16 
Q 841 59 441 206 
L 441 856 
Q 825 641 1194 531 
Q 1563 422 1919 422 
Q 2459 422 2753 634 
Q 3047 847 3047 1241 
Q 3047 1584 2836 1778 
Q 2625 1972 2144 2069 
L 1759 2144 
Q 1053 2284 737 2584 
Q 422 2884 422 3419 
Q 422 4038 858 4394 
Q 1294 4750 2059 4750 
Q 2388 4750 2728 4690 
Q 3069 4631 3425 4513 
z
" transform="scale(0.015625)"/>
      <path id="DejaVuSans-13ae" d="M 4531 4863 
L 4531 4384 
L 3981 4384 
Q 3672 4384 3551 4259 
Q 3431 4134 3431 3809 
L 3431 3500 
L 4378 3500 
L 4378 3053 
L 3431 3053 
L 3431 0 
L 2853 0 
L 2853 3053 
L 1275 3053 
L 1275 0 
L 697 0 
L 697 3053 
L 147 3053 
L 147 3500 
L 697 3500 
L 697 3744 
Q 697 4328 969 4595 
Q 1241 4863 1831 4863 
L 2375 4863 
L 2375 4384 
L 1825 4384 
Q 1516 4384 1394 4259 
Q 1275 4134 1275 3809 
L 1275 3500 
L 2853 3500 
L 2853 3744 
Q 2853 4328 3125 4595 
Q 3397 4863 3988 4863 
L 4531 4863 
z
" transform="scale(0.015625)"/>
      <path id="DejaVuSans-5b" d="M 3513 3500 
L 2247 1797 
L 3578 0 
L 2900 0 
L 1881 1375 
L 863 0 
L 184 0 
L 1544 1831 
L 300 3500 
L 978 3500 
L 1906 2253 
L 2834 3500 
L 3513 3500 
z
" transform="scale(0.015625)"/>
     </defs>
     <use xlink:href="#DejaVuSans-36"/>
     <use xlink:href="#DejaVuSans-5c" transform="translate(63.484375 0)"/>
     <use xlink:href="#DejaVuSans-50" transform="translate(122.671875 0)"/>
     <use xlink:href="#DejaVuSans-45" transform="translate(220.078125 0)"/>
     <use xlink:href="#DejaVuSans-52" transform="translate(283.5625 0)"/>
     <use xlink:href="#DejaVuSans-4f" transform="translate(344.75 0)"/>
     <use xlink:href="#DejaVuSans-3" transform="translate(372.53125 0)"/>
     <use xlink:href="#DejaVuSans-37" transform="translate(404.3125 0)"/>
     <use xlink:href="#DejaVuSans-3" transform="translate(465.390625 0)"/>
     <use xlink:href="#DejaVuSans-44" transform="translate(497.171875 0)"/>
     <use xlink:href="#DejaVuSans-56" transform="translate(558.453125 0)"/>
     <use xlink:href="#DejaVuSans-3" transform="translate(610.546875 0)"/>
     <use xlink:href="#DejaVuSans-44" transform="translate(642.328125 0)"/>
     <use xlink:href="#DejaVuSans-3" transform="translate(703.609375 0)"/>
     <use xlink:href="#DejaVuSans-2e" transform="translate(735.390625 0)"/>
     <use xlink:href="#DejaVuSans-2a" transform="translate(800.96875 0)"/>
     <use xlink:href="#DejaVuSans-10" transform="translate(878.453125 0)"/>
     <use xlink:href="#DejaVuSans-45" transform="translate(914.53125 0)"/>
     <use xlink:href="#DejaVuSans-44" transform="translate(978.015625 0)"/>
     <use xlink:href="#DejaVuSans-46" transform="translate(1039.296875 0)"/>
     <use xlink:href="#DejaVuSans-4e" transform="translate(1094.28125 0)"/>
     <use xlink:href="#DejaVuSans-48" transform="translate(1148.625 0)"/>
     <use xlink:href="#DejaVuSans-47" transform="translate(1210.15625 0)"/>
     <use xlink:href="#DejaVuSans-3" transform="translate(1273.640625 0)"/>
     <use xlink:href="#DejaVuSans-4f" transform="translate(1305.421875 0)"/>
     <use xlink:href="#DejaVuSans-4c" transform="translate(1333.203125 0)"/>
     <use xlink:href="#DejaVuSans-51" transform="translate(1360.984375 0)"/>
     <use xlink:href="#DejaVuSans-48" transform="translate(1424.359375 0)"/>
     <use xlink:href="#DejaVuSans-44" transform="translate(1485.890625 0)"/>
     <use xlink:href="#DejaVuSans-55" transform="translate(1547.171875 0)"/>
     <use xlink:href="#DejaVuSans-3" transform="translate(1588.28125 0)"/>
     <use xlink:href="#DejaVuSans-50" transform="translate(1620.0625 0)"/>
     <use xlink:href="#DejaVuSans-44" transform="translate(1717.46875 0)"/>
     <use xlink:href="#DejaVuSans-53" transform="translate(1778.75 0)"/>
     <use xlink:href="#DejaVuSans-53" transform="translate(1842.234375 0)"/>
     <use xlink:href="#DejaVuSans-4c" transform="translate(1905.71875 0)"/>
     <use xlink:href="#DejaVuSans-51" transform="translate(1933.5 0)"/>
     <use xlink:href="#DejaVuSans-4a" transform="translate(1996.875 0)"/>
     <use xlink:href="#DejaVuSans-3" transform="translate(2060.359375 0)"/>
     <use xlink:href="#DejaVuSans-5a" transform="translate(2092.140625 0)"/>
     <use xlink:href="#DejaVuSans-4c" transform="translate(2173.921875 0)"/>
     <use xlink:href="#DejaVuSans-57" transform="translate(2201.703125 0)"/>
     <use xlink:href="#DejaVuSans-4b" transform="translate(2240.90625 0)"/>
     <use xlink:href="#DejaVuSans-3" transform="translate(2304.28125 0)"/>
     <use xlink:href="#DejaVuSans-56" transform="translate(2336.0625 0)"/>
     <use xlink:href="#DejaVuSans-58" transform="translate(2388.15625 0)"/>
     <use xlink:href="#DejaVuSans-55" transform="translate(2451.53125 0)"/>
     <use xlink:href="#DejaVuSans-49" transform="translate(2492.640625 0)"/>
     <use xlink:href="#DejaVuSans-44" transform="translate(2527.84375 0)"/>
     <use xlink:href="#DejaVuSans-46" transform="translate(2589.125 0)"/>
     <use xlink:href="#DejaVuSans-48" transform="translate(2644.109375 0)"/>
     <use xlink:href="#DejaVuSans-3" transform="translate(2705.640625 0)"/>
     <use xlink:href="#DejaVuSans-49" transform="translate(2737.421875 0)"/>
     <use xlink:href="#DejaVuSans-52" transform="translate(2772.625 0)"/>
     <use xlink:href="#DejaVuSans-55" transform="translate(2833.8125 0)"/>
     <use xlink:href="#DejaVuSans-50" transform="translate(2873.171875 0)"/>
     <use xlink:href="#DejaVuSans-56" transform="translate(2970.578125 0)"/>
     <use xlink:href="#DejaVuSans-3" transform="translate(3022.671875 0)"/>
     <use xlink:href="#DejaVuSans-49" transform="translate(3054.453125 0)"/>
     <use xlink:href="#DejaVuSans-52" transform="translate(3089.65625 0)"/>
     <use xlink:href="#DejaVuSans-55" transform="translate(3150.84375 0)"/>
     <use xlink:href="#DejaVuSans-3" transform="translate(3191.953125 0)"/>
     <use xlink:href="#DejaVuSans-47" transform="translate(3223.734375 0)"/>
     <use xlink:href="#DejaVuSans-4c" transform="translate(3287.21875 0)"/>
     <use xlink:href="#DejaVuSans-13ae" transform="translate(3315 0)"/>
     <use xlink:href="#DejaVuSans-48" transform="translate(3383.890625 0)"/>
     <use xlink:href="#DejaVuSans-55" transform="translate(3445.421875 0)"/>
     <use xlink:href="#DejaVuSans-48" transform="translate(3484.328125 0)"/>
     <use xlink:href="#DejaVuSans-51" transform="translate(3545.859375 0)"/>
     <use xlink:href="#DejaVuSans-57" transform="translate(3609.234375 0)"/>
     <use xlink:href="#DejaVuSans-3" transform="translate(3648.4375 0)"/>
     <use xlink:href="#DejaVuSans-55" transform="translate(3680.21875 0)"/>
     <use xlink:href="#DejaVuSans-48" transform="translate(3719.125 0)"/>
     <use xlink:href="#DejaVuSans-44" transform="translate(3780.65625 0)"/>
     <use xlink:href="#DejaVuSans-47" transform="translate(3841.9375 0)"/>
     <use xlink:href="#DejaVuSans-4c" transform="translate(3905.421875 0)"/>
     <use xlink:href="#DejaVuSans-51" transform="translate(3933.203125 0)"/>
     <use xlink:href="#DejaVuSans-4a" transform="translate(3996.578125 0)"/>
     <use xlink:href="#DejaVuSans-3" transform="translate(4060.0625 0)"/>
     <use xlink:href="#DejaVuSans-46" transform="translate(4091.84375 0)"/>
     <use xlink:href="#DejaVuSans-52" transform="translate(4146.828125 0)"/>
     <use xlink:href="#DejaVuSans-51" transform="translate(4208.015625 0)"/>
     <use xlink:href="#DejaVuSans-57" transform="translate(4271.390625 0)"/>
     <use xlink:href="#DejaVuSans-48" transform="translate(4310.59375 0)"/>
     <use xlink:href="#DejaVuSans-5b" transform="translate(4370.375 0)"/>
     <use xlink:href="#DejaVuSans-57" transform="translate(4429.5625 0)"/>
     <use xlink:href="#DejaVuSans-56" transform="translate(4468.765625 0)"/>
    </g>
   </g>
   <g id="text_14">
    <!-- The forms are formally distinct KG perspectives: concise, pedagogical, expert, and document-role renderings of one concept node. -->
    <g style="fill: #5b6472" transform="translate(9.314844 422.531452) scale(0.11 -0.11)">
     <use xlink:href="#DejaVuSans-37"/>
     <use xlink:href="#DejaVuSans-4b" transform="translate(61.078125 0)"/>
     <use xlink:href="#DejaVuSans-48" transform="translate(124.453125 0)"/>
     <use xlink:href="#DejaVuSans-3" transform="translate(185.984375 0)"/>
     <use xlink:href="#DejaVuSans-49" transform="translate(217.765625 0)"/>
     <use xlink:href="#DejaVuSans-52" transform="translate(252.96875 0)"/>
     <use xlink:href="#DejaVuSans-55" transform="translate(314.15625 0)"/>
     <use xlink:href="#DejaVuSans-50" transform="translate(353.515625 0)"/>
     <use xlink:href="#DejaVuSans-56" transform="translate(450.921875 0)"/>
     <use xlink:href="#DejaVuSans-3" transform="translate(503.015625 0)"/>
     <use xlink:href="#DejaVuSans-44" transform="translate(534.796875 0)"/>
     <use xlink:href="#DejaVuSans-55" transform="translate(596.078125 0)"/>
     <use xlink:href="#DejaVuSans-48" transform="translate(634.984375 0)"/>
     <use xlink:href="#DejaVuSans-3" transform="translate(696.515625 0)"/>
     <use xlink:href="#DejaVuSans-49" transform="translate(728.296875 0)"/>
     <use xlink:href="#DejaVuSans-52" transform="translate(763.5 0)"/>
     <use xlink:href="#DejaVuSans-55" transform="translate(824.6875 0)"/>
     <use xlink:href="#DejaVuSans-50" transform="translate(864.046875 0)"/>
     <use xlink:href="#DejaVuSans-44" transform="translate(961.453125 0)"/>
     <use xlink:href="#DejaVuSans-4f" transform="translate(1022.734375 0)"/>
     <use xlink:href="#DejaVuSans-4f" transform="translate(1050.515625 0)"/>
     <use xlink:href="#DejaVuSans-5c" transform="translate(1078.296875 0)"/>
     <use xlink:href="#DejaVuSans-3" transform="translate(1137.484375 0)"/>
     <use xlink:href="#DejaVuSans-47" transform="translate(1169.265625 0)"/>
     <use xlink:href="#DejaVuSans-4c" transform="translate(1232.75 0)"/>
     <use xlink:href="#DejaVuSans-56" transform="translate(1260.53125 0)"/>
     <use xlink:href="#DejaVuSans-57" transform="translate(1312.625 0)"/>
     <use xlink:href="#DejaVuSans-4c" transform="translate(1351.828125 0)"/>
     <use xlink:href="#DejaVuSans-51" transform="translate(1379.609375 0)"/>
     <use xlink:href="#DejaVuSans-46" transform="translate(1442.984375 0)"/>
     <use xlink:href="#DejaVuSans-57" transform="translate(1497.96875 0)"/>
     <use xlink:href="#DejaVuSans-3" transform="translate(1537.171875 0)"/>
     <use xlink:href="#DejaVuSans-2e" transform="translate(1568.953125 0)"/>
     <use xlink:href="#DejaVuSans-2a" transform="translate(1634.53125 0)"/>
     <use xlink:href="#DejaVuSans-3" transform="translate(1712.015625 0)"/>
     <use xlink:href="#DejaVuSans-53" transform="translate(1743.796875 0)"/>
     <use xlink:href="#DejaVuSans-48" transform="translate(1807.28125 0)"/>
     <use xlink:href="#DejaVuSans-55" transform="translate(1868.8125 0)"/>
     <use xlink:href="#DejaVuSans-56" transform="translate(1909.921875 0)"/>
     <use xlink:href="#DejaVuSans-53" transform="translate(1962.015625 0)"/>
     <use xlink:href="#DejaVuSans-48" transform="translate(2025.5 0)"/>
     <use xlink:href="#DejaVuSans-46" transform="translate(2087.03125 0)"/>
     <use xlink:href="#DejaVuSans-57" transform="translate(2142.015625 0)"/>
     <use xlink:href="#DejaVuSans-4c" transform="translate(2181.21875 0)"/>
     <use xlink:href="#DejaVuSans-59" transform="translate(2209 0)"/>
     <use xlink:href="#DejaVuSans-48" transform="translate(2268.1875 0)"/>
     <use xlink:href="#DejaVuSans-56" transform="translate(2329.71875 0)"/>
     <use xlink:href="#DejaVuSans-1d" transform="translate(2381.8125 0)"/>
     <use xlink:href="#DejaVuSans-3" transform="translate(2415.5 0)"/>
     <use xlink:href="#DejaVuSans-46" transform="translate(2447.28125 0)"/>
     <use xlink:href="#DejaVuSans-52" transform="translate(2502.265625 0)"/>
     <use xlink:href="#DejaVuSans-51" transform="translate(2563.453125 0)"/>
     <use xlink:href="#DejaVuSans-46" transform="translate(2626.828125 0)"/>
     <use xlink:href="#DejaVuSans-4c" transform="translate(2681.8125 0)"/>
     <use xlink:href="#DejaVuSans-56" transform="translate(2709.59375 0)"/>
     <use xlink:href="#DejaVuSans-48" transform="translate(2761.6875 0)"/>
     <use xlink:href="#DejaVuSans-f" transform="translate(2823.21875 0)"/>
     <use xlink:href="#DejaVuSans-3" transform="translate(2855 0)"/>
     <use xlink:href="#DejaVuSans-53" transform="translate(2886.78125 0)"/>
     <use xlink:href="#DejaVuSans-48" transform="translate(2950.265625 0)"/>
     <use xlink:href="#DejaVuSans-47" transform="translate(3011.796875 0)"/>
     <use xlink:href="#DejaVuSans-44" transform="translate(3075.28125 0)"/>
     <use xlink:href="#DejaVuSans-4a" transform="translate(3136.5625 0)"/>
     <use xlink:href="#DejaVuSans-52" transform="translate(3200.046875 0)"/>
     <use xlink:href="#DejaVuSans-4a" transform="translate(3261.234375 0)"/>
     <use xlink:href="#DejaVuSans-4c" transform="translate(3324.71875 0)"/>
     <use xlink:href="#DejaVuSans-46" transform="translate(3352.5 0)"/>
     <use xlink:href="#DejaVuSans-44" transform="translate(3407.484375 0)"/>
     <use xlink:href="#DejaVuSans-4f" transform="translate(3468.765625 0)"/>
     <use xlink:href="#DejaVuSans-f" transform="translate(3496.546875 0)"/>
     <use xlink:href="#DejaVuSans-3" transform="translate(3528.328125 0)"/>
     <use xlink:href="#DejaVuSans-48" transform="translate(3560.109375 0)"/>
     <use xlink:href="#DejaVuSans-5b" transform="translate(3619.890625 0)"/>
     <use xlink:href="#DejaVuSans-53" transform="translate(3679.078125 0)"/>
     <use xlink:href="#DejaVuSans-48" transform="translate(3742.5625 0)"/>
     <use xlink:href="#DejaVuSans-55" transform="translate(3804.09375 0)"/>
     <use xlink:href="#DejaVuSans-57" transform="translate(3845.203125 0)"/>
     <use xlink:href="#DejaVuSans-f" transform="translate(3884.40625 0)"/>
     <use xlink:href="#DejaVuSans-3" transform="translate(3916.1875 0)"/>
     <use xlink:href="#DejaVuSans-44" transform="translate(3947.96875 0)"/>
     <use xlink:href="#DejaVuSans-51" transform="translate(4009.25 0)"/>
     <use xlink:href="#DejaVuSans-47" transform="translate(4072.625 0)"/>
     <use xlink:href="#DejaVuSans-3" transform="translate(4136.109375 0)"/>
     <use xlink:href="#DejaVuSans-47" transform="translate(4167.890625 0)"/>
     <use xlink:href="#DejaVuSans-52" transform="translate(4231.375 0)"/>
     <use xlink:href="#DejaVuSans-46" transform="translate(4292.5625 0)"/>
     <use xlink:href="#DejaVuSans-58" transform="translate(4347.546875 0)"/>
     <use xlink:href="#DejaVuSans-50" transform="translate(4410.921875 0)"/>
     <use xlink:href="#DejaVuSans-48" transform="translate(4508.328125 0)"/>
     <use xlink:href="#DejaVuSans-51" transform="translate(4569.859375 0)"/>
     <use xlink:href="#DejaVuSans-57" transform="translate(4633.234375 0)"/>
     <use xlink:href="#DejaVuSans-10" transform="translate(4672.4375 0)"/>
     <use xlink:href="#DejaVuSans-55" transform="translate(4708.515625 0)"/>
     <use xlink:href="#DejaVuSans-52" transform="translate(4747.421875 0)"/>
     <use xlink:href="#DejaVuSans-4f" transform="translate(4808.609375 0)"/>
     <use xlink:href="#DejaVuSans-48" transform="translate(4836.390625 0)"/>
     <use xlink:href="#DejaVuSans-3" transform="translate(4897.921875 0)"/>
     <use xlink:href="#DejaVuSans-55" transform="translate(4929.703125 0)"/>
     <use xlink:href="#DejaVuSans-48" transform="translate(4968.609375 0)"/>
     <use xlink:href="#DejaVuSans-51" transform="translate(5030.140625 0)"/>
     <use xlink:href="#DejaVuSans-47" transform="translate(5093.515625 0)"/>
     <use xlink:href="#DejaVuSans-48" transform="translate(5157 0)"/>
     <use xlink:href="#DejaVuSans-55" transform="translate(5218.53125 0)"/>
     <use xlink:href="#DejaVuSans-4c" transform="translate(5259.640625 0)"/>
     <use xlink:href="#DejaVuSans-51" transform="translate(5287.421875 0)"/>
     <use xlink:href="#DejaVuSans-4a" transform="translate(5350.796875 0)"/>
     <use xlink:href="#DejaVuSans-56" transform="translate(5414.28125 0)"/>
     <use xlink:href="#DejaVuSans-3" transform="translate(5466.375 0)"/>
     <use xlink:href="#DejaVuSans-52" transform="translate(5498.15625 0)"/>
     <use xlink:href="#DejaVuSans-49" transform="translate(5559.34375 0)"/>
     <use xlink:href="#DejaVuSans-3" transform="translate(5594.546875 0)"/>
     <use xlink:href="#DejaVuSans-52" transform="translate(5626.328125 0)"/>
     <use xlink:href="#DejaVuSans-51" transform="translate(5687.515625 0)"/>
     <use xlink:href="#DejaVuSans-48" transform="translate(5750.890625 0)"/>
     <use xlink:href="#DejaVuSans-3" transform="translate(5812.421875 0)"/>
     <use xlink:href="#DejaVuSans-46" transform="translate(5844.203125 0)"/>
     <use xlink:href="#DejaVuSans-52" transform="translate(5899.1875 0)"/>
     <use xlink:href="#DejaVuSans-51" transform="translate(5960.375 0)"/>
     <use xlink:href="#DejaVuSans-46" transform="translate(6023.75 0)"/>
     <use xlink:href="#DejaVuSans-48" transform="translate(6078.734375 0)"/>
     <use xlink:href="#DejaVuSans-53" transform="translate(6140.265625 0)"/>
     <use xlink:href="#DejaVuSans-57" transform="translate(6203.75 0)"/>
     <use xlink:href="#DejaVuSans-3" transform="translate(6242.953125 0)"/>
     <use xlink:href="#DejaVuSans-51" transform="translate(6274.734375 0)"/>
     <use xlink:href="#DejaVuSans-52" transform="translate(6338.109375 0)"/>
     <use xlink:href="#DejaVuSans-47" transform="translate(6399.296875 0)"/>
     <use xlink:href="#DejaVuSans-48" transform="translate(6462.78125 0)"/>
     <use xlink:href="#DejaVuSans-11" transform="translate(6524.3125 0)"/>
    </g>
   </g>
  </g>
 </g>
 <defs>
  <clipPath id="p4c9faa2e77">
   <rect x="7.2" y="7.2" width="725.4" height="443.52"/>
  </clipPath>
 </defs>
</svg>
