<svg xmlns="http://www.w3.org/2000/svg" width="2300" height="1120" viewBox="0 0 2300 1120">
<defs>
<marker id="arrow" viewBox="0 0 10 10" refX="9" refY="5" markerWidth="9" markerHeight="9" orient="auto-start-reverse">
<path d="M 0 0 L 10 5 L 0 10 z" fill="#5B6472"/>
</marker>
</defs>
<rect width="100%" height="100%" fill="#F8FAFC"/>
<text x="1150.0" y="105.0" text-anchor="middle" font-family="Arial, Helvetica, sans-serif" font-size="56" font-weight="700" fill="#111827">Tools and Technologies Behind MathOntoSpeak</text>
<text x="1150.0" y="165.0" text-anchor="middle" font-family="Arial, Helvetica, sans-serif" font-size="30" font-weight="400" fill="#5B6472">A reproducible workflow from ontology sources to accessible speech, evaluation, and poster-ready evidence</text>
<rect x="70.0" y="310.0" width="248.0" height="445.0" rx="26" fill="#EDE7D6" stroke="#1F2937" stroke-width="4"/>
<svg x="165.0" y="344.0" width="58.0" height="58.0" viewBox="0 0 24 24" preserveAspectRatio="xMidYMid meet">
<path d="M21.602 0s-1.524 5.809-8.516 2.658c-.776-.35-.954-.444-.982-.469L2.074 6.301l10.043 4.896s.776-.326 2.026-.933C20.273 7.287 21.602 0 21.602 0zM1.59 8.486v10.448L10.947 24V13.242L1.59 8.486zm20.82 0l-9.357 4.756V24l9.357-5.066V8.486Z"/>
</svg>
<text x="194.0" y="456.0" text-anchor="middle" font-family="Arial, Helvetica, sans-serif" font-size="30" font-weight="700" fill="#1F2937">Source</text>
<text x="194.0" y="492.0" text-anchor="middle" font-family="Arial, Helvetica, sans-serif" font-size="30" font-weight="700" fill="#1F2937">Ontologies</text>
<text x="194.0" y="590.0" text-anchor="middle" font-family="Arial, Helvetica, sans-serif" font-size="21" font-weight="400" fill="#1F2937">OntoMathPRO</text>
<text x="194.0" y="620.0" text-anchor="middle" font-family="Arial, Helvetica, sans-serif" font-size="21" font-weight="400" fill="#1F2937">OpenMath</text>
<text x="194.0" y="650.0" text-anchor="middle" font-family="Arial, Helvetica, sans-serif" font-size="21" font-weight="400" fill="#1F2937">MathModDB</text>
<text x="194.0" y="680.0" text-anchor="middle" font-family="Arial, Helvetica, sans-serif" font-size="21" font-weight="400" fill="#1F2937">OntoMathEdu</text>
<line x1="340.0" y1="532.5" x2="363.0" y2="532.5" stroke="#5B6472" stroke-width="5" marker-end="url(#arrow)"/>
<rect x="385.0" y="310.0" width="248.0" height="445.0" rx="26" fill="#DDE7F2" stroke="#1F2937" stroke-width="4"/>
<svg x="452.0" y="344.0" width="58.0" height="58.0" viewBox="0 0 24 24" preserveAspectRatio="xMidYMid meet">
<path d="M21.602 0s-1.524 5.809-8.516 2.658c-.776-.35-.954-.444-.982-.469L2.074 6.301l10.043 4.896s.776-.326 2.026-.933C20.273 7.287 21.602 0 21.602 0zM1.59 8.486v10.448L10.947 24V13.242L1.59 8.486zm20.82 0l-9.357 4.756V24l9.357-5.066V8.486Z"/>
</svg>
<svg x="508.0" y="344.0" width="58.0" height="58.0" viewBox="0 0 128 128" preserveAspectRatio="xMidYMid meet">
<linearGradient id="python-original-a" gradientUnits="userSpaceOnUse" x1="70.252" y1="1237.476" x2="170.659" y2="1151.089" gradientTransform="matrix(.563 0 0 -.568 -29.215 707.817)"><stop offset="0" stop-color="#5A9FD4"/><stop offset="1" stop-color="#306998"/></linearGradient><linearGradient id="python-original-b" gradientUnits="userSpaceOnUse" x1="209.474" y1="1098.811" x2="173.62" y2="1149.537" gradientTransform="matrix(.563 0 0 -.568 -29.215 707.817)"><stop offset="0" stop-color="#FFD43B"/><stop offset="1" stop-color="#FFE873"/></linearGradient><path fill="url(#python-original-a)" d="M63.391 1.988c-4.222.02-8.252.379-11.8 1.007-10.45 1.846-12.346 5.71-12.346 12.837v9.411h24.693v3.137H29.977c-7.176 0-13.46 4.313-15.426 12.521-2.268 9.405-2.368 15.275 0 25.096 1.755 7.311 5.947 12.519 13.124 12.519h8.491V67.234c0-8.151 7.051-15.34 15.426-15.34h24.665c6.866 0 12.346-5.654 12.346-12.548V15.833c0-6.693-5.646-11.72-12.346-12.837-4.244-.706-8.645-1.027-12.866-1.008zM50.037 9.557c2.55 0 4.634 2.117 4.634 4.721 0 2.593-2.083 4.69-4.634 4.69-2.56 0-4.633-2.097-4.633-4.69-.001-2.604 2.073-4.721 4.633-4.721z" transform="translate(0 10.26)"/><path fill="url(#python-original-b)" d="M91.682 28.38v10.966c0 8.5-7.208 15.655-15.426 15.655H51.591c-6.756 0-12.346 5.783-12.346 12.549v23.515c0 6.691 5.818 10.628 12.346 12.547 7.816 2.297 15.312 2.713 24.665 0 6.216-1.801 12.346-5.423 12.346-12.547v-9.412H63.938v-3.138h37.012c7.176 0 9.852-5.005 12.348-12.519 2.578-7.735 2.467-15.174 0-25.096-1.774-7.145-5.161-12.521-12.348-12.521h-9.268zM77.809 87.927c2.561 0 4.634 2.097 4.634 4.692 0 2.602-2.074 4.719-4.634 4.719-2.55 0-4.633-2.117-4.633-4.719 0-2.595 2.083-4.692 4.633-4.692z" transform="translate(0 10.26)"/><radialGradient id="python-original-c" cx="1825.678" cy="444.45" r="26.743" gradientTransform="matrix(0 -.24 -1.055 0 532.979 557.576)" gradientUnits="userSpaceOnUse"><stop offset="0" stop-color="#B8B8B8" stop-opacity=".498"/><stop offset="1" stop-color="#7F7F7F" stop-opacity="0"/></radialGradient><path opacity=".444" fill="url(#python-original-c)" d="M97.309 119.597c0 3.543-14.816 6.416-33.091 6.416-18.276 0-33.092-2.873-33.092-6.416 0-3.544 14.815-6.417 33.092-6.417 18.275 0 33.091 2.872 33.091 6.417z"/>
</svg>
<text x="509.0" y="456.0" text-anchor="middle" font-family="Arial, Helvetica, sans-serif" font-size="30" font-weight="700" fill="#1F2937">RDF/OWL</text>
<text x="509.0" y="492.0" text-anchor="middle" font-family="Arial, Helvetica, sans-serif" font-size="30" font-weight="700" fill="#1F2937">Processing</text>
<text x="509.0" y="590.0" text-anchor="middle" font-family="Arial, Helvetica, sans-serif" font-size="21" font-weight="400" fill="#1F2937">RDF/OWL cleanup</text>
<text x="509.0" y="620.0" text-anchor="middle" font-family="Arial, Helvetica, sans-serif" font-size="21" font-weight="400" fill="#1F2937">rdflib transforms</text>
<text x="509.0" y="650.0" text-anchor="middle" font-family="Arial, Helvetica, sans-serif" font-size="21" font-weight="400" fill="#1F2937">mapping scripts</text>
<line x1="655.0" y1="532.5" x2="678.0" y2="532.5" stroke="#5B6472" stroke-width="5" marker-end="url(#arrow)"/>
<rect x="700.0" y="310.0" width="248.0" height="445.0" rx="26" fill="#E3E9D7" stroke="#1F2937" stroke-width="4"/>
<svg x="795.0" y="344.0" width="58.0" height="58.0" viewBox="0 0 24 24" preserveAspectRatio="xMidYMid meet">
<path d="M21.602 0s-1.524 5.809-8.516 2.658c-.776-.35-.954-.444-.982-.469L2.074 6.301l10.043 4.896s.776-.326 2.026-.933C20.273 7.287 21.602 0 21.602 0zM1.59 8.486v10.448L10.947 24V13.242L1.59 8.486zm20.82 0l-9.357 4.756V24l9.357-5.066V8.486Z"/>
</svg>
<text x="824.0" y="456.0" text-anchor="middle" font-family="Arial, Helvetica, sans-serif" font-size="30" font-weight="700" fill="#1F2937">Knowledge</text>
<text x="824.0" y="492.0" text-anchor="middle" font-family="Arial, Helvetica, sans-serif" font-size="30" font-weight="700" fill="#1F2937">Graph</text>
<text x="824.0" y="590.0" text-anchor="middle" font-family="Arial, Helvetica, sans-serif" font-size="21" font-weight="400" fill="#1F2937">Merged TTL</text>
<text x="824.0" y="620.0" text-anchor="middle" font-family="Arial, Helvetica, sans-serif" font-size="21" font-weight="400" fill="#1F2937">JSON-LD/RDF/XML</text>
<text x="824.0" y="650.0" text-anchor="middle" font-family="Arial, Helvetica, sans-serif" font-size="21" font-weight="400" fill="#1F2937">provenance tags</text>
<line x1="970.0" y1="532.5" x2="993.0" y2="532.5" stroke="#5B6472" stroke-width="5" marker-end="url(#arrow)"/>
<rect x="1015.0" y="310.0" width="248.0" height="445.0" rx="26" fill="#F1DDD3" stroke="#1F2937" stroke-width="4"/>
<svg x="1082.0" y="344.0" width="58.0" height="58.0" viewBox="0 0 128 128" preserveAspectRatio="xMidYMid meet">
<path fill="url(#a)" d="M86.522.606c-2.007 1.185-5.348 4.54-9.318 9.407l3.652 6.903c2.57-3.666 5.177-6.977 7.807-9.8l.304-.325-.304.326c-.852.933-3.437 3.955-7.333 9.94 3.755-.185 9.518-.956 14.222-1.756 1.407-7.844-1.37-11.429-1.37-11.429S90.654-1.83 86.521.606Z"/><path fill="#BD202E" d="M74.234 58.596c-.467.081-.94.17-1.437.252 0 0-.007 0-.007.007l.74-.111c.23-.052.467-.096.704-.148Z"/><path fill="#BD202E" d="M74.234 58.596c-.467.081-.94.17-1.437.252 0 0-.007 0-.007.007l.74-.111c.23-.052.467-.096.704-.148Z" opacity=".35"/><path fill="#BD202E" d="M75.456 52.559s0 .007 0 0c-.007 0-.007 0-.007.007.074-.007.155-.022.23-.037.31-.044.614-.096.91-.17-.37.067-.74.133-1.133.2Z"/><path fill="#BD202E" d="M75.456 52.559s0 .007 0 0c-.007 0-.007 0-.007.007.074-.007.155-.022.23-.037.31-.044.614-.096.91-.17-.37.067-.74.133-1.133.2Z" opacity=".35"/><path fill="url(#b)" d="M70.071 34.76a219.903 219.903 0 0 1 3.37-6.081 171.901 171.901 0 0 1 3.585-5.97c.067-.112.148-.23.215-.341a144.48 144.48 0 0 1 3.607-5.444l-3.651-6.904a71.1 71.1 0 0 0-.83 1.03 156.993 156.993 0 0 0-3.274 4.23 201.146 201.146 0 0 0-3.889 5.392 233.315 233.315 0 0 0-3.703 5.48 214.99 214.99 0 0 0-3.163 4.978c-.037.06-.074.126-.11.193l4.762 9.407a213.91 213.91 0 0 1 3.081-5.97Z"/><path fill="url(#c)" d="M48.383 87.735a421.232 421.232 0 0 0-1.896 5.296c-.008.022-.015.052-.03.074-.089.252-.185.511-.266.763-.43 1.215-.8 2.311-1.652 4.793 1.4.637 2.526 2.325 3.592 4.236a7.624 7.624 0 0 0-2.489-5.273c6.911.31 12.867-1.437 15.948-6.489.274-.452.526-.919.755-1.43-1.4 1.778-3.14 2.526-6.407 2.348-.007 0-.014.008-.022.008.008 0 .015-.008.022-.008 4.815-2.155 7.222-4.222 9.363-7.644.504-.814 1-1.696 1.504-2.681-4.208 4.318-9.074 5.548-14.207 4.615l-3.852.422c-.126.326-.237.644-.363.97Z"/><path fill="url(#d)" d="M50.183 79.12c.83-2.147 1.689-4.325 2.563-6.517a441.794 441.794 0 0 1 2.593-6.341 748.43 748.43 0 0 1 2.71-6.392c.934-2.17 1.897-4.333 2.882-6.489a352.9 352.9 0 0 1 2.948-6.34c.355-.756.726-1.511 1.089-2.26.63-1.296 1.266-2.585 1.91-3.859.038-.066.067-.14.104-.207l-4.762-9.407a6.52 6.52 0 0 1-.237.378 219.844 219.844 0 0 0-3.296 5.555 208.386 208.386 0 0 0-3.223 5.837 248.13 248.13 0 0 0-2.6 5.044c-.17.34-.333.689-.503 1.03a143.907 143.907 0 0 0-2.822 6.185 115.935 115.935 0 0 0-2.54 6.429c-.49 1.34-.927 2.63-1.334 3.874-.333 1.059-.645 2.126-.956 3.185a99.189 99.189 0 0 0-1.83 7.451l4.786 9.444c.63-1.688 1.281-3.407 1.948-5.14.2-.496.378-.985.57-1.46Z"/><path fill="url(#e)" d="M42.828 76.595c-.6 3.022-1.03 6.03-1.245 9.022l-.022.31c-1.496-2.392-5.488-4.725-5.481-4.703 2.867 4.148 5.037 8.267 5.355 12.31-1.533.312-3.63-.14-6.051-1.029 2.526 2.326 4.422 2.963 5.17 3.14-2.326.149-4.74 1.742-7.178 3.579 3.563-1.452 6.445-2.03 8.504-1.563-3.274 9.258-6.548 19.48-9.83 30.339 1.008-.296 1.608-.978 1.941-1.889.585-1.963 4.46-14.866 10.54-31.806.178-.481.349-.97.526-1.452.045-.14.097-.274.149-.4.637-1.777 1.31-3.592 1.992-5.444.156-.422.311-.844.474-1.266 0-.008.008-.015.008-.023l-4.793-9.444a6.652 6.652 0 0 1-.06.319Z"/><path fill="url(#f)" d="M67.723 41.5c-.14.282-.274.563-.415.845-.414.851-.83 1.718-1.259 2.607-.46.963-.918 1.94-1.385 2.948-.237.504-.474 1.015-.711 1.533a414.713 414.713 0 0 0-2.163 4.8 388.508 388.508 0 0 0-2.748 6.326c-.881 2.088-1.793 4.244-2.696 6.48-.867 2.12-1.74 4.312-2.63 6.563a411.904 411.904 0 0 0-2.392 6.208c-.037.096-.074.207-.111.303-.8 2.111-1.608 4.282-2.415 6.504-.015.051-.037.096-.052.155l3.852-.422c-.074-.015-.156-.022-.23-.037 4.6-.57 10.726-4.015 14.674-8.259 1.822-1.955 3.474-4.266 5-6.97 1.133-2.007 2.207-4.244 3.229-6.71a98.187 98.187 0 0 0 2.563-7.023c-1.06.556-2.267.97-3.6 1.252-.237.052-.474.096-.718.14-.245.045-.49.082-.741.112 0 0 .007 0 .007-.007 4.296-1.652 7-4.837 8.963-8.74-1.126.77-2.963 1.777-5.163 2.258a16.586 16.586 0 0 1-1.14.208h.014c1.496-.622 2.748-1.326 3.837-2.148.237-.178.467-.356.674-.548.333-.29.645-.593.956-.904.192-.207.377-.415.563-.63.43-.51.83-1.059 1.2-1.651.11-.186.23-.363.333-.556.148-.274.281-.548.415-.807a43.48 43.48 0 0 0 1.459-3.222c.192-.474.355-.904.503-1.319.06-.163.111-.318.163-.474.156-.452.274-.852.37-1.207.149-.534.238-.956.282-1.26-.148.112-.31.23-.504.341-1.296.778-3.518 1.474-5.31 1.808l3.533-.386-3.533.386c-.023.007-.052.007-.082.014-.185.03-.355.06-.54.082l.088-.045-12.095 1.326a.37.37 0 0 1-.045.126Z"/><path fill="url(#g)" d="M81.337 17.057a182.438 182.438 0 0 0-3.518 5.651 247.572 247.572 0 0 0-3.674 6.4 280.913 280.913 0 0 0-3.289 6.155 332.218 332.218 0 0 0-3.074 6.111l12.096-1.326c3.526-1.622 5.096-3.081 6.622-5.207.4-.585.815-1.192 1.215-1.83a74.934 74.934 0 0 0 3.548-6.2c1.051-2.05 1.977-4.08 2.688-5.917a30.467 30.467 0 0 0 1.067-3.2c.222-.837.393-1.637.526-2.4-4.689.807-10.459 1.578-14.207 1.763Z"/><path fill="#BD202E" d="M73.516 58.729c-.245.044-.49.081-.741.111.252-.022.503-.067.74-.111Z"/><path fill="#BD202E" d="M73.516 58.729c-.245.044-.49.081-.741.111.252-.022.503-.067.74-.111Z" opacity=".35"/><path fill="url(#h)" d="M73.516 58.729c-.245.044-.49.081-.741.111.252-.022.503-.067.74-.111Z"/><path fill="#BD202E" d="M75.449 52.566c.074-.007.155-.022.23-.037-.075.008-.149.03-.23.037Z"/><path fill="#BD202E" d="M75.449 52.566c.074-.007.155-.022.23-.037-.075.008-.149.03-.23.037Z" opacity=".35"/><path fill="url(#i)" d="M75.449 52.566c.074-.007.155-.022.23-.037-.075.008-.149.03-.23.037Z"/><path fill="#BD202E" d="M75.449 52.566c.007 0 .007-.007 0 0 .007-.007.007 0 0 0Z"/><path fill="#BD202E" d="M75.449 52.566c.007 0 .007-.007 0 0 .007-.007.007 0 0 0Z" opacity=".35"/><path fill="url(#j)" d="M75.449 52.566c.007 0 .007-.007 0 0 .007-.007.007 0 0 0Z"/><defs><linearGradient id="a" x1="80.277" x2="107.078" y1="10.871" y2="3.42" gradientUnits="userSpaceOnUse"><stop stop-color="#F59723"/><stop offset=".312" stop-color="#F69822"/><stop offset=".838" stop-color="#E87726"/></linearGradient><linearGradient id="b" x1="21.611" x2="76.124" y1="131.156" y2="14.252" gradientUnits="userSpaceOnUse"><stop offset=".323" stop-color="#9C2063"/><stop offset=".63" stop-color="#C82037"/><stop offset=".751" stop-color="#CC2135"/><stop offset="1" stop-color="#E87726"/></linearGradient><linearGradient id="c" x1="39.903" x2="72.387" y1="122.505" y2="52.841" gradientUnits="userSpaceOnUse"><stop stop-color="#282661"/><stop offset=".095" stop-color="#662E8C"/><stop offset=".788" stop-color="#9E2064"/><stop offset=".949" stop-color="#CC2032"/></linearGradient><linearGradient id="d" x1="23.576" x2="78.089" y1="124.078" y2="7.174" gradientUnits="userSpaceOnUse"><stop offset=".323" stop-color="#9C2063"/><stop offset=".63" stop-color="#C82037"/><stop offset=".751" stop-color="#CC2135"/><stop offset="1" stop-color="#E87726"/></linearGradient><linearGradient id="e" x1="29.138" x2="57.786" y1="116.292" y2="54.855" gradientUnits="userSpaceOnUse"><stop stop-color="#282661"/><stop offset=".095" stop-color="#662E8C"/><stop offset=".788" stop-color="#9E2064"/><stop offset=".949" stop-color="#CC2032"/></linearGradient><linearGradient id="f" x1="35.68" x2="90.192" y1="129.722" y2="12.818" gradientUnits="userSpaceOnUse"><stop offset=".323" stop-color="#9C2063"/><stop offset=".63" stop-color="#C82037"/><stop offset=".751" stop-color="#CC2135"/><stop offset="1" stop-color="#E87726"/></linearGradient><linearGradient id="g" x1="31.692" x2="86.205" y1="136.692" y2="19.788" gradientUnits="userSpaceOnUse"><stop offset=".323" stop-color="#9C2063"/><stop offset=".63" stop-color="#C82037"/><stop offset=".751" stop-color="#CC2135"/><stop offset="1" stop-color="#E87726"/></linearGradient><linearGradient id="h" x1="39.272" x2="93.784" y1="131.397" y2="14.493" gradientUnits="userSpaceOnUse"><stop offset=".323" stop-color="#9C2063"/><stop offset=".63" stop-color="#C82037"/><stop offset=".751" stop-color="#CC2135"/><stop offset="1" stop-color="#E87726"/></linearGradient><linearGradient id="i" x1="38.865" x2="93.378" y1="131.208" y2="14.303" gradientUnits="userSpaceOnUse"><stop offset=".323" stop-color="#9C2063"/><stop offset=".63" stop-color="#C82037"/><stop offset=".751" stop-color="#CC2135"/><stop offset="1" stop-color="#E87726"/></linearGradient><linearGradient id="j" x1="69.406" x2="81.455" y1="65.493" y2="39.654" gradientUnits="userSpaceOnUse"><stop offset=".323" stop-color="#9C2063"/><stop offset=".63" stop-color="#C82037"/><stop offset=".751" stop-color="#CC2135"/><stop offset="1" stop-color="#E87726"/></linearGradient></defs>
</svg>
<svg x="1138.0" y="344.0" width="58.0" height="58.0" viewBox="0 0 128 128" preserveAspectRatio="xMidYMid meet">
<path d="M56.813 127.586c-1.903-.227-3.899-.52-4.434-.652a48.078 48.078 0 00-2.375-.5 36.042 36.042 0 01-2.703-.633c-4.145-1.188-4.442-1.285-7.567-2.563-2.875-1.172-8.172-3.91-9.984-5.156-.496-.344-.96-.621-1.031-.621-.07 0-1.23-.816-2.578-1.813-8.57-6.343-15.004-14.043-19.653-23.527-.8-1.629-1.453-3.074-1.453-3.21 0-.134-.144-.505-.32-.817-.363-.649-.88-2.047-1.297-3.492a20.047 20.047 0 00-.625-1.813c-.195-.46-.352-1.02-.352-1.246 0-.227-.195-.965-.433-1.645-.238-.675-.43-1.472-.43-1.77 0-.296-.187-1.32-.418-2.276C.598 73.492 0 67.379 0 63.953c0-3.422.598-9.535 1.16-11.894.23-.957.418-2 .418-2.32 0-.321.145-.95.32-1.4.18-.448.41-1.253.516-1.788.11-.535.36-1.457.563-2.055l.59-1.726c.433-1.293.835-2.387 1.027-2.813.11-.238.539-1.21.957-2.16.676-1.535 2.125-4.43 2.972-5.945.309-.555.426-.739 2.098-3.352 2.649-4.148 7.176-9.309 11.39-12.988 1.485-1.297 6.446-5.063 6.669-5.063.062 0 .53-.281 1.043-.625 1.347-.902 2.668-1.668 4.39-2.531a53.06 53.06 0 001.836-.953c.285-.164.82-.41 3.567-1.64.605-.27 1.257-.516 3.136-1.173.414-.144 1.246-.449 1.84-.672.598-.222 1.301-.406 1.563-.406.258 0 .937-.18 1.508-.402.57-.223 1.605-.477 2.304-.563.696-.082 1.621-.277 2.055-.43.43-.148 1.61-.34 2.621-.425a72.572 72.572 0 003.941-.465c2.688-.394 8.532-.394 11.192 0a75.02 75.02 0 003.781.445c.953.079 2.168.278 2.703.442.535.16 1.461.36 2.055.433.594.079 1.594.325 2.222.551.63.23 1.344.414 1.59.414s.754.137 1.125.309c.375.168 1.168.449 1.766.625.594.18 1.613.535 2.27.797.652.261 1.527.605 1.945.761.77.29 6.46 3.137 7.234 3.622 6.281 3.917 9.512 6.476 13.856 10.964 5.238 5.414 8.715 10.57 12.254 18.16.25.536.632 1.329.851 1.758.215.434.395.942.395 1.13 0 .19.18.76.402 1.269.602 1.383 1.117 2.957 1.36 4.16.12.59.343 1.32.495 1.621.153.3.332 1.063.403 1.688.07.624.277 1.648.453 2.269 1.02 3.531 1.527 13.934.91 18.535-.183 1.367-.39 3.02-.46 3.672-.118 1.117-.708 4.004-1.212 5.945l-.52 2.055c-.98 3.957-3.402 9.594-6.359 14.809-1.172 2.07-5.101 7.668-5.843 8.324-.067.058-.399.45-.735.863-.336.418-1.414 1.586-2.39 2.594-4.301 4.441-7.77 7.187-13.86 10.969-.722.449-6.847 3.441-7.992 3.906-.594.238-1.586.64-2.203.89-.613.247-1.297.454-1.512.458-.215.003-.781.195-1.258.425-.476.23-1.082.422-1.351.426-.266.004-1.043.192-1.727.418-.683.23-1.633.477-2.11.55-.476.075-1.495.278-2.269.45-.773.172-3.11.508-5.187.746a59.06 59.06 0 01-13.945-.031zm4.703-12.5c.3-.234.609-.7.691-1.027.18-.723 29.234-58.97 29.781-59.7.461-.617.504-1.605.082-1.953-.222-.187-3.004-.246-10.43-.234-5.57.012-10.253.016-10.406.012-.226-.008-.273-3.73-.25-19.672.016-10.817-.035-19.766-.113-19.89-.078-.126-.383-.227-.68-.227-.418 0-.613.18-.87.808-.485 1.168-1.825 3.82-8.348 16.485a3554.569 3554.569 0 00-4.055 7.89c-1.156 2.262-2.98 5.813-4.047 7.89a8751.248 8751.248 0 00-8.598 16.759c-4.933 9.636-5.53 10.785-5.742 11.039-.41.496-.633 1.64-.402 2.07.21.394.629.41 11.043.394 5.953-.007 10.863.024 10.914.07.137.141.086 37.31-.055 38.196-.093.582-.031.89.235 1.156.46.461.586.457 1.25-.066zm0 0" fill="#049688"/>
</svg>
<text x="1139.0" y="456.0" text-anchor="middle" font-family="Arial, Helvetica, sans-serif" font-size="30" font-weight="700" fill="#1F2937">SPARQL</text>
<text x="1139.0" y="492.0" text-anchor="middle" font-family="Arial, Helvetica, sans-serif" font-size="30" font-weight="700" fill="#1F2937">and API</text>
<text x="1139.0" y="590.0" text-anchor="middle" font-family="Arial, Helvetica, sans-serif" font-size="21" font-weight="400" fill="#1F2937">Jena Fuseki</text>
<text x="1139.0" y="620.0" text-anchor="middle" font-family="Arial, Helvetica, sans-serif" font-size="21" font-weight="400" fill="#1F2937">SPARQL benchmark</text>
<text x="1139.0" y="650.0" text-anchor="middle" font-family="Arial, Helvetica, sans-serif" font-size="21" font-weight="400" fill="#1F2937">FastAPI endpoints</text>
<line x1="1285.0" y1="532.5" x2="1308.0" y2="532.5" stroke="#5B6472" stroke-width="5" marker-end="url(#arrow)"/>
<rect x="1330.0" y="310.0" width="248.0" height="445.0" rx="26" fill="#E7DCEA" stroke="#1F2937" stroke-width="4"/>
<svg x="1397.0" y="344.0" width="58.0" height="58.0" viewBox="0 0 128 128" preserveAspectRatio="xMidYMid meet">
<linearGradient id="python-original-a" gradientUnits="userSpaceOnUse" x1="70.252" y1="1237.476" x2="170.659" y2="1151.089" gradientTransform="matrix(.563 0 0 -.568 -29.215 707.817)"><stop offset="0" stop-color="#5A9FD4"/><stop offset="1" stop-color="#306998"/></linearGradient><linearGradient id="python-original-b" gradientUnits="userSpaceOnUse" x1="209.474" y1="1098.811" x2="173.62" y2="1149.537" gradientTransform="matrix(.563 0 0 -.568 -29.215 707.817)"><stop offset="0" stop-color="#FFD43B"/><stop offset="1" stop-color="#FFE873"/></linearGradient><path fill="url(#python-original-a)" d="M63.391 1.988c-4.222.02-8.252.379-11.8 1.007-10.45 1.846-12.346 5.71-12.346 12.837v9.411h24.693v3.137H29.977c-7.176 0-13.46 4.313-15.426 12.521-2.268 9.405-2.368 15.275 0 25.096 1.755 7.311 5.947 12.519 13.124 12.519h8.491V67.234c0-8.151 7.051-15.34 15.426-15.34h24.665c6.866 0 12.346-5.654 12.346-12.548V15.833c0-6.693-5.646-11.72-12.346-12.837-4.244-.706-8.645-1.027-12.866-1.008zM50.037 9.557c2.55 0 4.634 2.117 4.634 4.721 0 2.593-2.083 4.69-4.634 4.69-2.56 0-4.633-2.097-4.633-4.69-.001-2.604 2.073-4.721 4.633-4.721z" transform="translate(0 10.26)"/><path fill="url(#python-original-b)" d="M91.682 28.38v10.966c0 8.5-7.208 15.655-15.426 15.655H51.591c-6.756 0-12.346 5.783-12.346 12.549v23.515c0 6.691 5.818 10.628 12.346 12.547 7.816 2.297 15.312 2.713 24.665 0 6.216-1.801 12.346-5.423 12.346-12.547v-9.412H63.938v-3.138h37.012c7.176 0 9.852-5.005 12.348-12.519 2.578-7.735 2.467-15.174 0-25.096-1.774-7.145-5.161-12.521-12.348-12.521h-9.268zM77.809 87.927c2.561 0 4.634 2.097 4.634 4.692 0 2.602-2.074 4.719-4.634 4.719-2.55 0-4.633-2.117-4.633-4.719 0-2.595 2.083-4.692 4.633-4.692z" transform="translate(0 10.26)"/><radialGradient id="python-original-c" cx="1825.678" cy="444.45" r="26.743" gradientTransform="matrix(0 -.24 -1.055 0 532.979 557.576)" gradientUnits="userSpaceOnUse"><stop offset="0" stop-color="#B8B8B8" stop-opacity=".498"/><stop offset="1" stop-color="#7F7F7F" stop-opacity="0"/></radialGradient><path opacity=".444" fill="url(#python-original-c)" d="M97.309 119.597c0 3.543-14.816 6.416-33.091 6.416-18.276 0-33.092-2.873-33.092-6.416 0-3.544 14.815-6.417 33.092-6.417 18.275 0 33.091 2.872 33.091 6.417z"/>
</svg>
<svg x="1453.0" y="344.0" width="58.0" height="58.0" viewBox="0 0 128 128" preserveAspectRatio="xMidYMid meet">
<defs><linearGradient id="azure-original-a" x1="60.919" y1="9.602" x2="18.667" y2="134.423" gradientUnits="userSpaceOnUse"><stop stop-color="#114A8B"/><stop offset="1" stop-color="#0669BC"/></linearGradient><linearGradient id="azure-original-b" x1="74.117" y1="67.772" x2="64.344" y2="71.076" gradientUnits="userSpaceOnUse"><stop stop-opacity=".3"/><stop offset=".071" stop-opacity=".2"/><stop offset=".321" stop-opacity=".1"/><stop offset=".623" stop-opacity=".05"/><stop offset="1" stop-opacity="0"/></linearGradient><linearGradient id="azure-original-c" x1="68.742" y1="5.961" x2="115.122" y2="129.525" gradientUnits="userSpaceOnUse"><stop stop-color="#3CCBF4"/><stop offset="1" stop-color="#2892DF"/></linearGradient></defs><path d="M46.09.002h40.685L44.541 125.137a6.485 6.485 0 01-6.146 4.413H6.733a6.482 6.482 0 01-5.262-2.699 6.474 6.474 0 01-.876-5.848L39.944 4.414A6.488 6.488 0 0146.09 0z" fill="url(#azure-original-a)" transform="translate(.587 4.468) scale(.91904)"/><path d="M97.28 81.607H37.987a2.743 2.743 0 00-1.874 4.751l38.1 35.562a5.991 5.991 0 004.087 1.61h33.574z" fill="#0078d4"/><path d="M46.09.002A6.434 6.434 0 0039.93 4.5L.644 120.897a6.469 6.469 0 006.106 8.653h32.48a6.942 6.942 0 005.328-4.531l7.834-23.089 27.985 26.101a6.618 6.618 0 004.165 1.519h36.396l-15.963-45.616-46.533.011L86.922.002z" fill="url(#azure-original-b)" transform="translate(.587 4.468) scale(.91904)"/><path d="M98.055 4.408A6.476 6.476 0 0091.917.002H46.575a6.478 6.478 0 016.137 4.406l39.35 116.594a6.476 6.476 0 01-6.137 8.55h45.344a6.48 6.48 0 006.136-8.55z" fill="url(#azure-original-c)" transform="translate(.587 4.468) scale(.91904)"/>
</svg>
<text x="1454.0" y="456.0" text-anchor="middle" font-family="Arial, Helvetica, sans-serif" font-size="30" font-weight="700" fill="#1F2937">Rendering</text>
<text x="1454.0" y="492.0" text-anchor="middle" font-family="Arial, Helvetica, sans-serif" font-size="30" font-weight="700" fill="#1F2937">and TTS</text>
<text x="1454.0" y="590.0" text-anchor="middle" font-family="Arial, Helvetica, sans-serif" font-size="21" font-weight="400" fill="#1F2937">LaTeX parsing</text>
<text x="1454.0" y="620.0" text-anchor="middle" font-family="Arial, Helvetica, sans-serif" font-size="21" font-weight="400" fill="#1F2937">SSML generation</text>
<text x="1454.0" y="650.0" text-anchor="middle" font-family="Arial, Helvetica, sans-serif" font-size="21" font-weight="400" fill="#1F2937">speech audio</text>
<line x1="1600.0" y1="532.5" x2="1623.0" y2="532.5" stroke="#5B6472" stroke-width="5" marker-end="url(#arrow)"/>
<rect x="1645.0" y="310.0" width="248.0" height="445.0" rx="26" fill="#E7ECEF" stroke="#1F2937" stroke-width="4"/>
<svg x="1683.0" y="344.0" width="58.0" height="58.0" viewBox="0 0 24 24" preserveAspectRatio="xMidYMid meet">
<path d="M15.697 13.496c-.784-1.072-1.982-1.519-3.694-1.88l-1.592-.375-1.201-.515c-.631-.446-1.17-1.634-1.017-2.681a3 3 0 0 1 3.386-2.526 2.962 2.962 0 0 1 1.962 1.155L15.35 9.05c1.033 1.33 2.195 1.727 3.459 1.098l.637-.27a.22.22 0 0 1 .278.087l.127.19a.311.311 0 0 0 .156.131.326.326 0 0 0 .33-.058l1.467-1.384c.257-.22.182-.422.182-.422l-.354-.806s-.097-.193-.431-.149l-1.968.181a.327.327 0 0 0-.27.411l.071.227c.014.047.014.1-.005.148a.219.219 0 0 1-.124.125l-.556.235c-.582.341-1.244.123-1.686-.417l-.505-.67-1.438-1.91a4.421 4.421 0 0 0-2.929-1.72C9.355 3.733 7.095 5.42 6.741 7.84c-.179 1.22.187 2.375.855 3.302.485.674 1.373 1.06 1.854 1.18l1.262.36 1.208.277c.166.04.634.155.91.255.256.092.845.31 1.324.701.572.582.875 1.413.746 2.284a2.744 2.744 0 0 1-4.897 1.255l-1.726-2.292a2.294 2.294 0 0 0-1.514-.89 2.31 2.31 0 0 0-1.708.439l-3.632 2.71A11.002 11.002 0 0 1 0 12C0 5.798 5.133.768 11.465.768c4.715 0 8.761 2.788 10.523 6.77l.581-.27.393-1.072.411.144-.353.96.98.337-.148.402-1.095-.382-.603.277c.5 1.262.778 2.632.778 4.066 0 6.203-5.135 11.232-11.467 11.232a11.526 11.526 0 0 1-9.26-4.61l3.721-2.788a.855.855 0 0 1 1.163.19l1.826 2.455a4.186 4.186 0 0 0 2.673 1.502c2.302.322 4.439-1.273 4.773-3.563a4.14 4.14 0 0 0-.664-2.922"/>
</svg>
<svg x="1740.0" y="344.0" width="58.0" height="58.0" viewBox="0 0 128 128" preserveAspectRatio="xMidYMid meet">
<path fill="#fff" d="M63.975 125.09c-16.317 0-31.658-6.355-43.197-17.893S2.885 80.318 2.885 64 9.24 32.341 20.778 20.803 47.657 2.91 63.975 2.91s31.659 6.355 43.198 17.893S125.065 47.682 125.065 64s-6.355 31.659-17.893 43.198-26.879 17.892-43.197 17.892z"/><path fill="none" stroke="#858585" stroke-dasharray=".407,.8139" stroke-linecap="round" stroke-linejoin="round" stroke-miterlimit="7.976" stroke-width=".856" d="M63.974 63.784h61.09m-61.09 0 43.197-43.196M63.974 63.784V2.694m0 61.09L20.778 20.588m43.196 43.196H2.884m61.09 0-43.196 43.197m43.196-43.197v61.09m0-61.09 43.197 43.197" opacity=".9"/><g fill="none" stroke="#818181" stroke-dasharray=".407,.8139" stroke-linecap="square" stroke-linejoin="round" stroke-miterlimit="199.409" stroke-width=".856"><path d="m70.764 63.784-.202-1.643-.593-1.543-.949-1.355-1.25-1.085-1.474-.751-1.61-.373-1.654.03-1.599.429-1.447.801-1.209 1.128-.9 1.388-.539 1.565-.145 1.649.259 1.634.646 1.523.994 1.321 1.286 1.041 1.5.698 1.623.316 1.653-.086 1.582-.484 1.418-.852 1.17-1.17.851-1.417.484-1.582.105-1.182h0" opacity=".9"/><path d="m84.339 63.784-.198-2.833-.59-2.779-.973-2.669-1.333-2.509-1.67-2.299-1.973-2.044-2.238-1.75-2.461-1.42-2.633-1.064-2.758-.688-2.825-.297-2.84.099-2.797.494-2.702.877-2.554 1.246-2.356 1.588-2.111 1.901-1.826 2.177-1.506 2.408-1.155 2.596-.782 2.73-.396 2.814v2.842l.396 2.814.782 2.73 1.155 2.596 1.506 2.408 1.826 2.177 2.111 1.902 2.356 1.588 2.554 1.245 2.702.877 2.798.494 2.84.1 2.824-.298 2.758-.687 2.633-1.065 2.461-1.42 2.238-1.75 1.973-2.044 1.67-2.299 1.333-2.51.972-2.668.591-2.779.198-2.83h0" opacity=".9"/><path d="m97.914 63.784-.185-3.548-.555-3.509-.92-3.43-1.272-3.317-1.613-3.166-1.935-2.978-2.236-2.762-2.512-2.511-2.761-2.236-2.979-1.935-3.165-1.613-3.317-1.273-3.43-.919-3.51-.555-3.548-.185-3.548.185-3.508.555-3.43.92-3.318 1.272-3.165 1.613-2.979 1.935-2.761 2.236-2.512 2.511-2.236 2.762-1.935 2.978-1.613 3.166-1.273 3.317-.919 3.43-.555 3.509-.185 3.548.185 3.548.555 3.509.92 3.43 1.272 3.317 1.613 3.166 1.935 2.978 2.236 2.762 2.512 2.511 2.761 2.236 2.979 1.935 3.165 1.614 3.317 1.272 3.43.92 3.51.555 3.547.185 3.549-.185 3.508-.556 3.43-.919 3.318-1.272 3.165-1.614 2.979-1.935 2.761-2.236 2.512-2.511 2.236-2.762 1.935-2.978 1.613-3.166 1.272-3.317.92-3.43.555-3.509.185-3.548h0" opacity=".9"/><path d="m111.489 63.784-.26-4.966-.78-4.911-1.286-4.804-1.782-4.642-2.257-4.432-2.709-4.171-3.13-3.866-3.516-3.517-3.866-3.13-4.171-2.709L83.3 20.38l-4.642-1.781-4.804-1.287-4.912-.779-4.966-.26-4.966.26-4.91.779-4.805 1.287-4.642 1.781-4.432 2.257-4.17 2.71-3.867 3.13-3.517 3.516-3.13 3.866-2.708 4.17-2.257 4.433-1.782 4.642-1.287 4.804-.778 4.911-.261 4.966.26 4.966.779 4.911 1.287 4.805 1.782 4.642 2.257 4.431 2.709 4.171 3.13 3.866 3.516 3.517 3.866 3.13 4.171 2.709 4.432 2.257 4.642 1.781 4.804 1.288 4.911.778 4.966.26 4.966-.26 4.912-.778 4.804-1.288 4.642-1.781 4.432-2.257 4.17-2.71 3.867-3.129 3.516-3.517 3.13-3.866 2.71-4.17 2.256-4.432 1.782-4.642 1.287-4.805.778-4.91.261-4.967h0" opacity=".9"/></g><path fill="#11557c" d="M64 126c-16.56 0-32.13-6.449-43.84-18.159S2 80.561 2 64s6.449-32.13 18.159-43.841S47.439 2 64 2s32.131 6.449 43.841 18.159S126 47.439 126 64s-6.449 32.131-18.159 43.841S80.561 126 64 126zM64 3.82c-16.074 0-31.187 6.26-42.553 17.626C10.08 32.813 3.82 47.925 3.82 64c0 16.075 6.26 31.188 17.626 42.554S47.925 124.18 64 124.18c16.075 0 31.188-6.26 42.554-17.626S124.18 80.075 124.18 64c0-16.075-6.26-31.187-17.626-42.554C95.187 10.08 80.075 3.82 64 3.82z"/><path fill="#004cff" d="m63.975 63.784.129-.042.129-.042.129-.042.129-.042.129-.042.129-.042.129-.042.129-.042.129-.042.129-.042.129-.042.129-.042.129-.042.129-.042.129-.042.129-.042.129-.042.129-.042.129-.042.129-.042.129-.042.129-.042.129-.042.129-.042.129-.042.129-.042.129-.042.129-.042.129-.042.129-.042.129-.042.129-.042.129-.042.129-.042.129-.042.129-.042.129-.042.129-.042.129-.042.129-.042.129-.042.129-.042.129-.042.129-.042.129-.042.129-.042.129-.042.129-.042.129-.042.129-.042.129-.042.129-.042.129-.042.129-.042.129-.042.129-.042.129-.042.129-.042.129-.042.129-.042.129-.042.129-.042.129-.042.129-.042.129-.042.129-.042.129-.042.129-.042.129-.042.129-.042.129-.042.129-.042.129-.042.129-.042.129-.042.129-.042.129-.042.129-.042.129-.042.129-.042.129-.042.129-.042.129-.042.129-.042.129-.042.129-.042.129-.042.129-.042.129-.042.129-.042.129-.042.129-.042.129-.042.129-.042.129-.042.129-.042.129-.042.129-.042.129-.042.129-.042.025.046.013.041.013.041.013.041.013.041.013.041.012.041.012.041.011.039.012.041.012.041.012.041.012.041.011.041.011.041.011.041.011.041.011.041.011.041.011.041.011.041.01.041.01.041.01.041.01.041.01.041.01.042.01.042.009.042.009.042.009.042.009.042.009.042.009.042.009.042.009.042.009.042.008.042.008.042.008.042.008.042.008.042.008.042.007.042.007.042.007.042.007.042.007.042.007.042.007.042.007.042.007.042.006.042.006.042.006.042.006.042.006.042.006.042.006.042.005.042.005.042.005.042.005.042.005.042.005.042.005.042.005.042.004.042.004.042.004.042.004.042.004.042.004.042.004.043.003.043.003.043.003.043.003.043.003.043.003.043.003.043.003.043.002.043.002.043.002.043.002.043.002.043.002.043.002.043.001.043.001.043.001.043.001.043.001.043.001.043.001.043v.172H64.11l-.135-.004z" opacity=".6"/><path fill="#ceff29" d="m63.975 63.784.143-.381.143-.381.143-.381.143-.381.143-.381.143-.381.143-.381.143-.381.143-.381.143-.381.143-.381.143-.381.143-.381.143-.381.143-.381.143-.381.143-.381.143-.381.143-.381.143-.381.143-.381.143-.381.143-.381.143-.381.143-.381.143-.381.143-.381.143-.381.143-.381.143-.381.143-.381.143-.381.143-.381.143-.381.143-.381.143-.381.143-.381.143-.381.143-.381.143-.381.143-.381.143-.381.143-.381.143-.381.143-.381.143-.381.143-.381.143-.381.143-.381.143-.381.143-.381.143-.381.143-.381.143-.381.143-.381.143-.381.143-.381.143-.381.143-.381.143-.381.143-.381.143-.381.143-.381.143-.381.143-.381.143-.381.143-.381.143-.381.143-.381.143-.381.143-.381.143-.381.143-.381.143-.381.143-.381.143-.381.143-.381.143-.381.143-.381.143-.381.143-.381.143-.381.143-.381.143-.381.143-.381.143-.381.143-.381.143-.381.143-.381.143-.381.143-.381.143-.381.143-.381.143-.381.143-.381.143-.381.143-.381.154-.411.143-.381.143-.381.12.045.12.046.119.046.119.046.119.047.119.047.119.047.119.048.119.048.118.049.118.049.118.049.118.05.118.05.118.05.117.051.117.051.117.051.117.052.117.052.117.053.116.053.116.053.116.054.116.054.116.054.116.055.115.055.115.055.115.056.115.056.115.057.115.057.114.057.114.058.114.058.114.058.114.059.113.059.113.059.113.06.113.06.113.061.113.061.112.061.112.062.112.062.112.062.112.063.111.063.111.063.111.064.111.064.111.064.11.065.11.065.11.065.11.066.11.066.109.066.109.067.109.067.109.067.108.068.108.068.108.068.108.069.108.069.107.069.107.07.107.07.107.071.107.071.106.071.106.072.106.072.106.072.105.073.105.073.105.073.105.074.104.074.104.074.104.074.104.075.104.075.103.075.103.076.103.076.103.076.102.077.102.077.102.077.102.078.101.078.101.078.101.079.101.079.1.079.1.08-.254.318-.254.318-.254.318-.254.318-.254.318-.254.318-.254.318-.254.318-.254.318-.254.318-.254.318-.254.318-.254.318-.252.324-.254.318-.254.318-.254.318-.254.318-.254.318-.253.32-.254.318-.254.318-.254.318-.254.318-.254.318-.254.318-.254.318-.254.318-.254.318-.254.318-.254.318-.254.318-.254.318-.254.318-.254.318-.254.318-.254.318-.254.318-.254.318-.254.318-.254.318-.254.318-.254.318-.254.318-.254.318-.254.318-.254.318-.254.318-.254.318-.254.318-.254.318-.252.332-.254.318-.254.318-.254.318-.254.318-.254.318-.254.32-.254.318-.254.318-.254.318-.254.318-.254.318-.254.318-.254.318-.254.318-.254.318-.254.318-.254.318-.254.318-.254.318-.254.318-.254.318-.254.318-.254.318-.254.318-.254.318-.254.318-.254.318-.254.318-.252.328-.254.318-.254.318-.254.318-.254.318-.254.318-.254.318-.254.318-.254.318-.254.318-.254.318-.254.318-.254.318-.254.318-.254.318-.254.318-.254.318-.254.318-.254.318-.253.326z" opacity=".6"/><path fill="#ff6800" d="m63.975 63.784-.348-.417-.348-.417-.348-.417-.348-.417-.348-.417-.348-.417-.348-.417-.348-.417-.348-.417-.348-.417-.348-.417-.348-.417-.348-.417-.348-.417-.348-.417-.348-.417-.348-.417-.348-.417-.348-.417-.348-.417-.348-.417-.348-.417-.348-.417-.348-.417-.348-.417-.348-.417-.348-.417-.348-.417-.348-.417-.348-.417-.348-.417-.348-.417-.348-.417-.348-.417-.348-.417-.348-.417-.348-.417-.348-.417-.348-.417-.348-.417-.348-.417-.348-.417-.348-.417-.348-.417-.348-.417-.348-.417-.348-.417-.348-.417-.348-.417-.348-.417-.348-.417-.348-.417-.348-.417-.348-.417-.348-.417-.348-.417-.348-.417-.348-.417-.348-.417-.348-.417-.348-.417-.348-.417-.348-.417-.348-.417-.348-.417-.348-.417-.348-.417-.348-.417-.348-.417-.348-.417-.348-.417-.348-.417-.348-.417-.348-.417-.348-.417-.348-.417-.348-.417-.348-.417-.348-.417-.348-.417-.348-.417-.348-.417-.348-.417-.348-.417-.348-.417-.348-.417-.348-.417-.348-.417-.348-.417-.348-.417-.348-.417-.348-.417-.348-.417-.349-.403-.348-.417-.348-.417-.348-.417-.348-.417-.348-.417-.348-.417.197-.164.198-.163.198-.162.199-.161.2-.16.201-.159.201-.158.202-.157.203-.156.204-.155.204-.154.205-.153.206-.152.206-.151.207-.15.208-.149.209-.148.209-.147.21-.146.211-.145.211-.144.212-.143.213-.142.213-.141.214-.14.215-.139.215-.138.216-.137.217-.136.217-.135.218-.134.219-.133.219-.132.22-.131.22-.13.221-.129.222-.128.222-.127.223-.126.223-.125.224-.124.225-.123.225-.122.226-.121.226-.12.227-.118.227-.117.228-.116.228-.115.229-.114.23-.113.23-.112.231-.111.231-.11.232-.109.232-.108.233-.107.233-.105.234-.104.234-.103.235-.102.235-.101.236-.1.236-.099.237-.098.237-.097.237-.095.238-.094.238-.093.239-.092.239-.091.24-.09.24-.089.24-.088.241-.086.241-.085.242-.084.242-.083.242-.082.243-.081.243-.08.244-.078.244-.077.244-.076.245-.075.245-.074.245-.073.246-.072.246-.07.246-.069.247-.068.247-.067.247-.066.248-.065.248-.063.248-.062.249-.061.249-.06.249-.059.249-.058.121.529.121.529.121.529.121.529.121.529.121.529.121.529.121.529.121.529.121.529.121.529.121.529.121.529.121.529.121.529.121.529.121.529.121.529.121.529.121.529.121.529.121.529.121.529.121.529.121.529.121.529.121.529.121.529.121.529.121.529.121.529.121.529.121.529.113.543.121.529.121.529.121.529.121.529.121.529.121.529.121.529.121.529.121.529.121.529.121.529.121.529.121.529.121.529.121.529.121.529.121.529.121.529.121.529.121.529.121.529.121.529.121.529.121.529.121.529.121.529.121.529.121.529.121.529.121.529.121.529.121.529.121.529.121.529.121.529.121.529.121.529.121.529.121.529.121.529.121.529.121.529.121.529.121.529.121.529.121.529.121.529.121.529.121.529.121.529.121.529.121.529.121.529.121.529.121.529.121.529.121.529.121.529.121.529.121.529.121.529.121.529.121.529.121.529.121.529.11.556z" opacity=".6"/><path fill="#ffc400" d="m63.975 63.784-.468.085-.468.085-.468.085-.468.085-.468.085-.468.085-.468.085-.468.085-.468.085-.463.083-.468.085-.468.085-.468.085-.468.085-.468.085-.468.085-.468.085-.468.085-.468.085-.468.085-.468.085-.462.083-.468.085-.468.085-.468.085-.466.085-.468.085-.468.085-.468.085-.468.085-.468.085-.468.085-.468.085-.468.085-.468.085-.468.085-.468.085-.468.085-.468.085-.468.085-.468.085-.468.085-.468.085-.468.085-.468.085-.468.085-.468.085-.468.085-.468.085-.456.081-.468.085-.468.085-.468.085-.468.085-.468.085-.468.085-.468.085-.468.085-.468.085-.468.085-.468.085-.468.085-.468.085-.468.085-.468.085-.468.085-.468.085-.468.085-.468.085-.468.085-.468.085-.468.085-.468.085-.468.085-.468.085-.468.085-.468.085-.468.085-.468.085-.468.085-.468.085-.468.085-.468.085-.468.085-.468.085-.45.079-.468.085-.468.085-.468.085-.466.085-.468.085-.468.085-.468.085-.468.085-.468.085-.468.085-.468.085-.468.085-.468.085-.468.085-.052-.294-.051-.294-.049-.295-.047-.295-.045-.295-.038-.297-.041-.296-.039-.296-.038-.296-.036-.296-.034-.297-.032-.297-.03-.297-.028-.297-.026-.297-.024-.298-.023-.298-.021-.298-.019-.298-.017-.298-.015-.298-.013-.298-.011-.298-.009-.298-.008-.298-.006-.298-.004-.299-.002-.299v-.299l.002-.299.004-.299.005-.298.007-.298.009-.298.011-.298.013-.298.015-.298.017-.298.019-.298.02-.298.022-.298.024-.298.026-.297.028-.297.03-.297.032-.297.034-.297.035-.296.037-.296.039-.296.041-.296.043-.295.045-.295.047-.295.048-.295.05-.294.052-.294.054-.294.056-.293.058-.293.059-.293.061-.292.063-.292.065-.291.067-.291.069-.291.07-.29.072-.29.074-.289.076-.289.078-.288.08-.288.081-.287.083-.287.085-.286.087-.286.089-.285.09-.285.092-.284.094-.283.096-.283.097-.282.099-.282.101-.281.103-.28.105-.28.106-.279.108-.278.11-.278.112-.277.113-.276.115-.276.117-.275.118-.274.12-.273.122-.273.124-.272.125-.271.127-.27.129-.269.428.206.428.206.428.206.428.206.428.206.428.206.428.206.428.206.428.206.428.206.428.206.428.206.428.206.428.206.428.206.428.206.428.206.428.206.428.206.428.206.428.206.428.206.428.206.428.206.428.206.428.206.428.206.428.206.428.206.428.206.428.206.428.206.428.206.428.206.428.206.428.206.428.206.428.206.428.206.428.206.428.206.428.206.428.206.428.206.428.206.428.206.428.206.428.206.428.206.428.206.428.206.428.206.428.206.428.206.428.206.428.206.428.206.428.206.428.206.428.206.428.206.428.206.428.206.428.206.428.206.428.206.428.206.428.206.428.206.428.206.428.206.428.206.428.206.428.206.428.206.428.206.428.206.428.206.428.206.428.206.428.206.428.206.428.206.428.206.428.206.428.206.428.206.428.206.428.206.428.206.428.206.428.206.428.206.428.206.428.206.428.206.428.206.428.206.428.206.436.223z" opacity=".6"/><path fill="#29ffce" d="m63.975 63.784-.223.155-.223.155-.223.155-.223.155-.223.155-.223.155-.223.155-.224.151-.223.155-.223.155-.223.155-.223.155-.223.155-.223.155-.223.155-.223.155-.223.155-.223.155-.223.155-.223.155-.223.155-.223.155-.223.155-.223.155-.223.155-.223.155-.223.155-.223.155-.223.155-.223.155-.223.155-.223.155-.223.155-.223.155-.223.155-.223.155-.223.155-.223.155-.223.155-.223.155-.223.155-.223.155-.223.155-.223.155-.223.155-.223.155-.223.155-.223.155-.223.155-.223.155-.223.155-.223.155-.223.155-.223.155-.232.137-.223.155-.223.155-.223.155-.223.155-.223.155-.223.155-.223.155-.223.155-.223.155-.223.155-.223.155-.223.155-.223.155-.223.155-.223.155-.223.155-.223.155-.223.155-.223.155-.223.155-.223.155-.223.155-.223.155-.223.155-.223.155-.223.155-.223.155-.223.155-.223.155-.223.155-.223.155-.223.155-.223.155-.223.155-.223.155-.223.155-.223.155-.223.155-.223.155-.223.155-.223.155-.223.155-.223.155-.231.138-.223.155-.024-.035-.024-.035-.024-.035-.024-.035-.024-.035-.024-.035-.024-.035-.024-.035-.024-.035-.024-.035-.024-.035-.024-.035-.024-.036-.024-.036-.023-.036-.023-.036-.023-.036-.023-.036-.023-.036-.023-.036-.023-.036-.023-.036-.023-.036-.023-.036-.023-.036-.023-.036-.023-.036-.023-.036-.023-.036-.023-.036-.023-.036-.023-.036-.022-.036-.022-.036-.022-.036-.022-.036-.022-.036-.022-.036-.022-.036-.022-.036-.022-.037-.022-.037-.022-.037-.022-.037-.022-.037-.022-.037-.022-.037-.022-.037-.022-.037-.021-.037-.021-.037-.021-.037-.021-.037-.021-.037-.021-.037-.021-.037-.021-.037-.021-.037-.021-.037-.021-.037-.021-.037-.021-.037-.021-.037-.021-.037-.021-.037-.021-.037-.021-.037-.02-.037-.02-.037-.02-.037-.02-.038-.02-.038-.02-.038-.02-.038-.02-.038-.02-.038-.02-.038-.02-.038-.02-.038-.02-.038-.02-.038-.02-.038-.02-.038-.019-.038-.019-.038-.019-.038-.019-.038-.019-.038-.019-.038-.019-.038-.019-.038-.019-.038-.019-.038-.019-.038-.019-.038-.019-.038-.019-.038-.019-.041-.019-.038-.019-.038.245-.118.245-.118.245-.118.245-.118.245-.118.245-.118.245-.118.245-.118.245-.118.245-.118.245-.118.245-.118.245-.118.245-.118.245-.118.245-.118.245-.118.245-.118.245-.118.245-.118.245-.118.245-.118.245-.118.245-.118.245-.118.245-.118.245-.118.245-.118.245-.118.245-.118.245-.118.245-.118.245-.118.245-.118.245-.118.245-.118.245-.118.245-.118.245-.118.245-.118.245-.118.245-.118.245-.118.245-.118.245-.118.245-.118.245-.118.245-.118.245-.118.245-.118.245-.118.245-.118.245-.118.245-.118.245-.118.245-.118.245-.118.245-.118.245-.118.245-.118.245-.118.245-.118.245-.118.245-.118.245-.118.245-.118.245-.118.245-.118.245-.118.245-.118.245-.118.245-.118.245-.118.245-.118.245-.118.245-.118.245-.118.245-.118.245-.118.245-.118.245-.118.245-.118.245-.118.245-.118.245-.118.245-.118.245-.118.245-.118.245-.118.245-.118.245-.118.245-.118.245-.118.245-.118.245-.118.245-.118.245-.118.245-.118.245-.118.208-.098z" opacity=".6"/><path fill="#7dff7a" d="m63.975 63.784.057.335.057.335.057.335.057.335.057.335.057.335.057.335.057.335.057.335.057.335.057.335.057.335.057.335.057.335.057.335.057.335.057.335.057.335.057.335.057.335.057.335.057.335.057.335.057.335.057.335.057.335.057.335.057.335.057.335.057.335.057.335.057.335.057.335.057.335.057.335.057.335.057.335.057.335.057.335.057.335.057.335.057.335.057.335.057.335.057.335.057.335.057.335.057.335.057.335.057.335.057.335.057.335.057.335.057.335.057.335.057.335.057.335.057.335.057.335.057.335.057.335.057.335.057.335.057.335.057.335.057.335.057.335.057.335.057.335.057.335.057.335.057.335.057.335.057.335.057.335.057.335.057.335.057.335.057.335.057.335.057.335.057.335.057.335.057.335.057.335.057.335.057.335.057.335.057.335.057.335.057.335.057.335.057.335.057.335.057.335.057.335.057.335.057.335.057.335.057.335-.131.022-.132.022-.132.021-.132.021-.132.02-.132.019-.132.019-.132.018-.132.018-.132.017-.132.017-.132.016-.132.016-.132.015-.132.015-.132.014-.133.014-.133.013-.133.013-.133.012-.133.012-.133.011-.133.011-.133.01-.133.01-.133.009-.133.009-.133.008-.133.007-.133.007-.133.007-.133.006-.133.005-.133.005-.133.004-.133.004-.133.003-.133.003-.133.002-.133.002-.133.001-.133.001h-.266l-.133-.001-.133-.001-.133-.002-.133-.002-.133-.003-.133-.003-.133-.004-.153-.047-.133-.005-.133-.005-.133-.006-.133-.007-.134-.007-.133-.008-.133-.008-.133-.009-.133-.009-.133-.01-.133-.01-.133-.011-.133-.011-.133-.012-.133-.012-.133-.013-.133-.013-.133-.014-.132-.015-.13-.015-.132-.015-.132-.016-.132-.017-.132-.017-.132-.018-.132-.018-.132-.019-.132-.019-.132-.02-.132-.02-.132-.021-.132-.021-.131-.022-.131-.022-.131-.023-.131-.023-.131-.024-.131-.024-.131-.025-.131-.025-.131-.026-.131-.026-.131-.027-.13-.027-.13-.028-.13-.028-.13-.029-.13-.029.076-.331.076-.331.076-.331.076-.331.076-.331.076-.331.076-.331.076-.331.076-.331.076-.331.076-.331.076-.331.076-.331.076-.331.076-.331.076-.331.076-.331.076-.331.076-.331.076-.331.076-.331.076-.331.076-.331.076-.331.076-.331.076-.331.076-.331.076-.331.076-.331.076-.331.076-.331.076-.331.076-.331.076-.331.076-.331.076-.331.076-.331.076-.331.076-.331.076-.331.076-.331.076-.331.076-.331.076-.331.076-.331.076-.331.076-.331.076-.331.076-.331.076-.331.076-.331.076-.331.076-.331.076-.331.076-.331.076-.331.076-.331.076-.331.076-.331.076-.331.076-.331.076-.331.076-.331.076-.331.076-.331.076-.331.076-.331.076-.331.076-.331.076-.331.076-.331.076-.331.076-.331.076-.331.076-.331.076-.331.076-.331.076-.331.076-.331.076-.331.076-.331.076-.331.076-.331.076-.331.076-.331.076-.331.076-.331.076-.331.076-.331.076-.331.076-.331.076-.331.076-.331.076-.331.076-.331.076-.331.076-.331.076-.331.076-.331.027-.318z" opacity=".6"/><path fill="#ff6800" d="m63.975 63.784.428.334.428.334.428.334.428.334.428.334.428.334.428.334.428.334.428.334.428.334.428.334.428.334.428.334.428.334.433.33.428.334.428.334.428.334.428.334.428.334.428.334.428.334.428.334.428.334.428.334.428.334.428.334.428.334.428.334.428.334.428.334.428.334.428.334.428.334.428.334.428.334.428.334.428.334.428.334.428.334.428.334.428.334.428.334.428.334.428.334.428.334.428.334.428.334.428.334.428.334.428.334.428.334.428.334.428.334.428.334.428.334.428.334.428.334.428.334.428.334.428.334.428.334.428.334.428.334.428.334.428.334.428.334.428.334.428.334.428.334.428.334.428.334.428.334.428.334.428.334.428.334.428.334.428.334.428.334.428.334.428.334.428.334.428.334.428.334.428.334.428.334.428.334.428.334.428.334.428.334.428.334.428.334.428.334.428.334.428.334.428.334.428.334.428.334.428.334.428.334-.079.101-.079.101-.079.1-.079.1-.08.1-.08.1-.08.1-.08.1-.081.099-.081.099-.081.099-.081.099-.082.099-.082.098-.082.098-.082.098-.083.098-.083.098-.083.097-.083.097-.083.097-.084.097-.084.097-.084.096-.084.096-.085.096-.085.096-.085.096-.085.095-.085.095-.086.095-.086.095-.086.095-.086.094-.087.094-.087.094-.087.094-.087.094-.087.093-.088.093-.088.093-.088.093-.088.093-.089.092-.089.092-.089.092-.089.092-.089.092-.09.091-.09.091-.09.091-.09.091-.09.09-.091.09-.091.09-.091.09-.091.09-.092.089-.092.089-.092.089-.092.089-.092.089-.093.088-.093.088-.093.088-.093.088-.093.087-.094.087-.094.087-.094.087-.094.087-.094.086-.068.066-.095.086-.095.086-.095.085-.095.085-.096.085-.096.085-.096.084-.096.084-.096.084-.097.084-.097.084-.097.083-.097.083-.097.083-.098.083-.098.082-.098.082-.098.082-.098.082-.099.082-.099.081-.099.081-.099.081-.099.081-.1.08-.1.08-.1.08-.339-.425-.338-.424-.339-.425-.339-.425-.339-.425-.339-.425-.339-.425-.339-.425-.339-.425-.339-.425-.339-.425-.339-.425-.339-.425-.339-.425-.339-.425-.339-.425-.339-.425-.339-.425-.339-.425-.339-.425-.339-.425-.339-.425-.339-.425-.339-.425-.339-.425-.33-.414-.339-.425-.339-.425-.339-.425-.339-.425-.339-.425-.339-.425-.339-.425-.339-.425-.339-.425-.339-.425-.339-.425-.339-.425-.339-.425-.339-.425-.339-.425-.339-.425-.339-.425-.339-.425-.339-.425-.339-.425-.339-.425-.339-.425-.339-.425-.339-.425-.339-.425-.339-.425-.339-.425-.339-.425-.339-.425-.339-.425-.339-.425-.339-.425-.339-.425-.339-.425-.339-.425-.339-.425-.339-.425-.339-.425-.339-.425-.339-.425-.339-.425-.339-.425-.339-.425-.339-.425-.339-.425-.339-.425-.339-.425-.339-.425-.339-.425-.339-.425-.339-.425-.339-.425-.339-.425-.339-.425-.339-.425-.339-.425-.339-.425-.339-.425-.339-.425-.339-.425-.339-.425-.339-.425-.339-.425-.339-.425-.339-.425-.339-.425-.339-.425-.339-.425-.339-.425-.339-.425-.339-.425-.339-.425-.339-.425-.307-.391z" opacity=".6"/><path fill="#2c2c2c" d="m77.551 64.198-13.576-.001a.414.414 0 0 1-.128-.806l12.912-4.194a.413.413 0 0 1 .521.265c.455 1.398.685 2.853.684 4.323a.413.413 0 0 1-.413.413zm-10.965-.828h10.545a13.114 13.114 0 0 0-.516-3.258L66.586 63.37z"/><path fill="#2c2c2c" d="M63.975 64.197a.414.414 0 0 1-.387-.558L77.899 25.51a.412.412 0 0 1 .532-.242 41 41 0 0 1 11.196 6.351.414.414 0 0 1 .066.581L64.298 64.041a.415.415 0 0 1-.323.156zm14.552-38.008L65.28 61.484l23.507-29.475a40.163 40.163 0 0 0-10.26-5.82z"/><path fill="#2c2c2c" d="M63.975 64.197a.415.415 0 0 1-.317-.148L28.857 22.364a.412.412 0 0 1 .052-.582A54.784 54.784 0 0 1 51.801 10.44a.414.414 0 0 1 .495.312l12.083 52.941a.415.415 0 0 1-.22.463.444.444 0 0 1-.184.041zM29.757 22.152l33.431 40.044-11.607-50.857a53.967 53.967 0 0 0-21.824 10.813z"/><path fill="#2c2c2c" d="M17.224 72.681a.413.413 0 0 1-.406-.339c-1.813-9.884-.401-20.309 3.977-29.355a.414.414 0 0 1 .552-.193l42.808 20.615a.413.413 0 0 1-.106.78l-46.75 8.485a.318.318 0 0 1-.075.007zm4.136-28.96c-4.103 8.678-5.448 18.61-3.801 28.067l45.09-8.183L21.36 43.721z"/><path fill="#2c2c2c" d="M41.657 79.659a.42.42 0 0 1-.341-.178 27.673 27.673 0 0 1-2.177-3.738.413.413 0 0 1 .193-.552l24.462-11.78a.413.413 0 0 1 .415.713L41.893 79.586a.414.414 0 0 1-.236.073zm-1.59-3.904a27.058 27.058 0 0 0 1.697 2.913L59.42 66.436l-19.353 9.319z"/><path fill="#2c2c2c" d="M63.99 98.132c-2.58 0-5.165-.287-7.66-.857a.415.415 0 0 1-.311-.496l7.552-33.088c.044-.192.223-.354.415-.321a.412.412 0 0 1 .396.344l5.685 33.46a.414.414 0 0 1-.339.477 34.201 34.201 0 0 1-5.738.481zm-7.072-1.574c4 .86 8.22.98 12.264.344l-5.267-30.999-6.997 30.655z"/><path fill="#2c2c2c" d="M97.832 106.652a.413.413 0 0 1-.324-.156L63.651 64.041a.413.413 0 0 1 .577-.584l42.833 33.379a.414.414 0 0 1 .072.581 54.697 54.697 0 0 1-9.045 9.146.409.409 0 0 1-.256.089zM66.477 66.258l31.42 39.399a53.985 53.985 0 0 0 8.329-8.423L66.477 66.258z"/>
</svg>
<svg x="1797.0" y="344.0" width="58.0" height="58.0" viewBox="0 0 2289.75 2130" preserveAspectRatio="xMidYMid meet">

<path fill="#185C37" d="M1437.75,1011.75L532.5,852v1180.393c0,53.907,43.7,97.607,97.607,97.607l0,0h1562.036
	c53.907,0,97.607-43.7,97.607-97.607l0,0V1597.5L1437.75,1011.75z"/>
<path fill="#21A366" d="M1437.75,0H630.107C576.2,0,532.5,43.7,532.5,97.607c0,0,0,0,0,0V532.5l905.25,532.5L1917,1224.75
	L2289.75,1065V532.5L1437.75,0z"/>
<path fill="#107C41" d="M532.5,532.5h905.25V1065H532.5V532.5z"/>
<path opacity="0.1" enable-background="new    " d="M1180.393,426H532.5v1331.25h647.893c53.834-0.175,97.432-43.773,97.607-97.607
	V523.607C1277.825,469.773,1234.227,426.175,1180.393,426z"/>
<path opacity="0.2" enable-background="new    " d="M1127.143,479.25H532.5V1810.5h594.643
	c53.834-0.175,97.432-43.773,97.607-97.607V576.857C1224.575,523.023,1180.977,479.425,1127.143,479.25z"/>
<path opacity="0.2" enable-background="new    " d="M1127.143,479.25H532.5V1704h594.643c53.834-0.175,97.432-43.773,97.607-97.607
	V576.857C1224.575,523.023,1180.977,479.425,1127.143,479.25z"/>
<path opacity="0.2" enable-background="new    " d="M1073.893,479.25H532.5V1704h541.393c53.834-0.175,97.432-43.773,97.607-97.607
	V576.857C1171.325,523.023,1127.727,479.425,1073.893,479.25z"/>
<linearGradient id="SVGID_1_" gradientUnits="userSpaceOnUse" x1="203.5132" y1="1729.0183" x2="967.9868" y2="404.9817" gradientTransform="matrix(1 0 0 -1 0 2132)">
	<stop  offset="0" style="stop-color:#18884F"/>
	<stop  offset="0.5" style="stop-color:#117E43"/>
	<stop  offset="1" style="stop-color:#0B6631"/>
</linearGradient>
<path fill="url(#SVGID_1_)" d="M97.607,479.25h976.285c53.907,0,97.607,43.7,97.607,97.607v976.285
	c0,53.907-43.7,97.607-97.607,97.607H97.607C43.7,1650.75,0,1607.05,0,1553.143V576.857C0,522.95,43.7,479.25,97.607,479.25z"/>
<path fill="#FFFFFF" d="M302.3,1382.264l205.332-318.169L319.5,747.683h151.336l102.666,202.35
	c9.479,19.223,15.975,33.494,19.49,42.919h1.331c6.745-15.336,13.845-30.228,21.3-44.677L725.371,747.79h138.929l-192.925,314.548
	L869.2,1382.263H721.378L602.79,1160.158c-5.586-9.45-10.326-19.376-14.164-29.66h-1.757c-3.474,10.075-8.083,19.722-13.739,28.755
	l-122.102,223.011H302.3z"/>
<path fill="#33C481" d="M2192.143,0H1437.75v532.5h852V97.607C2289.75,43.7,2246.05,0,2192.143,0L2192.143,0z"/>
<path fill="#107C41" d="M1437.75,1065h852v532.5h-852V1065z"/>
</svg>
<text x="1769.0" y="456.0" text-anchor="middle" font-family="Arial, Helvetica, sans-serif" font-size="30" font-weight="700" fill="#1F2937">Evaluation</text>
<text x="1769.0" y="492.0" text-anchor="middle" font-family="Arial, Helvetica, sans-serif" font-size="30" font-weight="700" fill="#1F2937">Analysis</text>
<text x="1769.0" y="590.0" text-anchor="middle" font-family="Arial, Helvetica, sans-serif" font-size="21" font-weight="400" fill="#1F2937">SciPy tests</text>
<text x="1769.0" y="620.0" text-anchor="middle" font-family="Arial, Helvetica, sans-serif" font-size="21" font-weight="400" fill="#1F2937">Excel/openpyxl data</text>
<text x="1769.0" y="650.0" text-anchor="middle" font-family="Arial, Helvetica, sans-serif" font-size="21" font-weight="400" fill="#1F2937">Matplotlib figures</text>
<line x1="1915.0" y1="532.5" x2="1938.0" y2="532.5" stroke="#5B6472" stroke-width="5" marker-end="url(#arrow)"/>
<rect x="1960.0" y="310.0" width="248.0" height="445.0" rx="26" fill="#F6E7C8" stroke="#1F2937" stroke-width="4"/>
<svg x="2027.0" y="344.0" width="58.0" height="58.0" viewBox="0 0 128 128" preserveAspectRatio="xMidYMid meet">
<path fill="#fff" d="M63.975 125.09c-16.317 0-31.658-6.355-43.197-17.893S2.885 80.318 2.885 64 9.24 32.341 20.778 20.803 47.657 2.91 63.975 2.91s31.659 6.355 43.198 17.893S125.065 47.682 125.065 64s-6.355 31.659-17.893 43.198-26.879 17.892-43.197 17.892z"/><path fill="none" stroke="#858585" stroke-dasharray=".407,.8139" stroke-linecap="round" stroke-linejoin="round" stroke-miterlimit="7.976" stroke-width=".856" d="M63.974 63.784h61.09m-61.09 0 43.197-43.196M63.974 63.784V2.694m0 61.09L20.778 20.588m43.196 43.196H2.884m61.09 0-43.196 43.197m43.196-43.197v61.09m0-61.09 43.197 43.197" opacity=".9"/><g fill="none" stroke="#818181" stroke-dasharray=".407,.8139" stroke-linecap="square" stroke-linejoin="round" stroke-miterlimit="199.409" stroke-width=".856"><path d="m70.764 63.784-.202-1.643-.593-1.543-.949-1.355-1.25-1.085-1.474-.751-1.61-.373-1.654.03-1.599.429-1.447.801-1.209 1.128-.9 1.388-.539 1.565-.145 1.649.259 1.634.646 1.523.994 1.321 1.286 1.041 1.5.698 1.623.316 1.653-.086 1.582-.484 1.418-.852 1.17-1.17.851-1.417.484-1.582.105-1.182h0" opacity=".9"/><path d="m84.339 63.784-.198-2.833-.59-2.779-.973-2.669-1.333-2.509-1.67-2.299-1.973-2.044-2.238-1.75-2.461-1.42-2.633-1.064-2.758-.688-2.825-.297-2.84.099-2.797.494-2.702.877-2.554 1.246-2.356 1.588-2.111 1.901-1.826 2.177-1.506 2.408-1.155 2.596-.782 2.73-.396 2.814v2.842l.396 2.814.782 2.73 1.155 2.596 1.506 2.408 1.826 2.177 2.111 1.902 2.356 1.588 2.554 1.245 2.702.877 2.798.494 2.84.1 2.824-.298 2.758-.687 2.633-1.065 2.461-1.42 2.238-1.75 1.973-2.044 1.67-2.299 1.333-2.51.972-2.668.591-2.779.198-2.83h0" opacity=".9"/><path d="m97.914 63.784-.185-3.548-.555-3.509-.92-3.43-1.272-3.317-1.613-3.166-1.935-2.978-2.236-2.762-2.512-2.511-2.761-2.236-2.979-1.935-3.165-1.613-3.317-1.273-3.43-.919-3.51-.555-3.548-.185-3.548.185-3.508.555-3.43.92-3.318 1.272-3.165 1.613-2.979 1.935-2.761 2.236-2.512 2.511-2.236 2.762-1.935 2.978-1.613 3.166-1.273 3.317-.919 3.43-.555 3.509-.185 3.548.185 3.548.555 3.509.92 3.43 1.272 3.317 1.613 3.166 1.935 2.978 2.236 2.762 2.512 2.511 2.761 2.236 2.979 1.935 3.165 1.614 3.317 1.272 3.43.92 3.51.555 3.547.185 3.549-.185 3.508-.556 3.43-.919 3.318-1.272 3.165-1.614 2.979-1.935 2.761-2.236 2.512-2.511 2.236-2.762 1.935-2.978 1.613-3.166 1.272-3.317.92-3.43.555-3.509.185-3.548h0" opacity=".9"/><path d="m111.489 63.784-.26-4.966-.78-4.911-1.286-4.804-1.782-4.642-2.257-4.432-2.709-4.171-3.13-3.866-3.516-3.517-3.866-3.13-4.171-2.709L83.3 20.38l-4.642-1.781-4.804-1.287-4.912-.779-4.966-.26-4.966.26-4.91.779-4.805 1.287-4.642 1.781-4.432 2.257-4.17 2.71-3.867 3.13-3.517 3.516-3.13 3.866-2.708 4.17-2.257 4.433-1.782 4.642-1.287 4.804-.778 4.911-.261 4.966.26 4.966.779 4.911 1.287 4.805 1.782 4.642 2.257 4.431 2.709 4.171 3.13 3.866 3.516 3.517 3.866 3.13 4.171 2.709 4.432 2.257 4.642 1.781 4.804 1.288 4.911.778 4.966.26 4.966-.26 4.912-.778 4.804-1.288 4.642-1.781 4.432-2.257 4.17-2.71 3.867-3.129 3.516-3.517 3.13-3.866 2.71-4.17 2.256-4.432 1.782-4.642 1.287-4.805.778-4.91.261-4.967h0" opacity=".9"/></g><path fill="#11557c" d="M64 126c-16.56 0-32.13-6.449-43.84-18.159S2 80.561 2 64s6.449-32.13 18.159-43.841S47.439 2 64 2s32.131 6.449 43.841 18.159S126 47.439 126 64s-6.449 32.131-18.159 43.841S80.561 126 64 126zM64 3.82c-16.074 0-31.187 6.26-42.553 17.626C10.08 32.813 3.82 47.925 3.82 64c0 16.075 6.26 31.188 17.626 42.554S47.925 124.18 64 124.18c16.075 0 31.188-6.26 42.554-17.626S124.18 80.075 124.18 64c0-16.075-6.26-31.187-17.626-42.554C95.187 10.08 80.075 3.82 64 3.82z"/><path fill="#004cff" d="m63.975 63.784.129-.042.129-.042.129-.042.129-.042.129-.042.129-.042.129-.042.129-.042.129-.042.129-.042.129-.042.129-.042.129-.042.129-.042.129-.042.129-.042.129-.042.129-.042.129-.042.129-.042.129-.042.129-.042.129-.042.129-.042.129-.042.129-.042.129-.042.129-.042.129-.042.129-.042.129-.042.129-.042.129-.042.129-.042.129-.042.129-.042.129-.042.129-.042.129-.042.129-.042.129-.042.129-.042.129-.042.129-.042.129-.042.129-.042.129-.042.129-.042.129-.042.129-.042.129-.042.129-.042.129-.042.129-.042.129-.042.129-.042.129-.042.129-.042.129-.042.129-.042.129-.042.129-.042.129-.042.129-.042.129-.042.129-.042.129-.042.129-.042.129-.042.129-.042.129-.042.129-.042.129-.042.129-.042.129-.042.129-.042.129-.042.129-.042.129-.042.129-.042.129-.042.129-.042.129-.042.129-.042.129-.042.129-.042.129-.042.129-.042.129-.042.129-.042.129-.042.129-.042.129-.042.129-.042.129-.042.129-.042.129-.042.129-.042.129-.042.129-.042.025.046.013.041.013.041.013.041.013.041.013.041.012.041.012.041.011.039.012.041.012.041.012.041.012.041.011.041.011.041.011.041.011.041.011.041.011.041.011.041.011.041.01.041.01.041.01.041.01.041.01.041.01.042.01.042.009.042.009.042.009.042.009.042.009.042.009.042.009.042.009.042.009.042.008.042.008.042.008.042.008.042.008.042.008.042.007.042.007.042.007.042.007.042.007.042.007.042.007.042.007.042.007.042.006.042.006.042.006.042.006.042.006.042.006.042.006.042.005.042.005.042.005.042.005.042.005.042.005.042.005.042.005.042.004.042.004.042.004.042.004.042.004.042.004.042.004.043.003.043.003.043.003.043.003.043.003.043.003.043.003.043.003.043.002.043.002.043.002.043.002.043.002.043.002.043.002.043.001.043.001.043.001.043.001.043.001.043.001.043.001.043v.172H64.11l-.135-.004z" opacity=".6"/><path fill="#ceff29" d="m63.975 63.784.143-.381.143-.381.143-.381.143-.381.143-.381.143-.381.143-.381.143-.381.143-.381.143-.381.143-.381.143-.381.143-.381.143-.381.143-.381.143-.381.143-.381.143-.381.143-.381.143-.381.143-.381.143-.381.143-.381.143-.381.143-.381.143-.381.143-.381.143-.381.143-.381.143-.381.143-.381.143-.381.143-.381.143-.381.143-.381.143-.381.143-.381.143-.381.143-.381.143-.381.143-.381.143-.381.143-.381.143-.381.143-.381.143-.381.143-.381.143-.381.143-.381.143-.381.143-.381.143-.381.143-.381.143-.381.143-.381.143-.381.143-.381.143-.381.143-.381.143-.381.143-.381.143-.381.143-.381.143-.381.143-.381.143-.381.143-.381.143-.381.143-.381.143-.381.143-.381.143-.381.143-.381.143-.381.143-.381.143-.381.143-.381.143-.381.143-.381.143-.381.143-.381.143-.381.143-.381.143-.381.143-.381.143-.381.143-.381.143-.381.143-.381.143-.381.143-.381.143-.381.143-.381.143-.381.143-.381.143-.381.143-.381.154-.411.143-.381.143-.381.12.045.12.046.119.046.119.046.119.047.119.047.119.047.119.048.119.048.118.049.118.049.118.049.118.05.118.05.118.05.117.051.117.051.117.051.117.052.117.052.117.053.116.053.116.053.116.054.116.054.116.054.116.055.115.055.115.055.115.056.115.056.115.057.115.057.114.057.114.058.114.058.114.058.114.059.113.059.113.059.113.06.113.06.113.061.113.061.112.061.112.062.112.062.112.062.112.063.111.063.111.063.111.064.111.064.111.064.11.065.11.065.11.065.11.066.11.066.109.066.109.067.109.067.109.067.108.068.108.068.108.068.108.069.108.069.107.069.107.07.107.07.107.071.107.071.106.071.106.072.106.072.106.072.105.073.105.073.105.073.105.074.104.074.104.074.104.074.104.075.104.075.103.075.103.076.103.076.103.076.102.077.102.077.102.077.102.078.101.078.101.078.101.079.101.079.1.079.1.08-.254.318-.254.318-.254.318-.254.318-.254.318-.254.318-.254.318-.254.318-.254.318-.254.318-.254.318-.254.318-.254.318-.252.324-.254.318-.254.318-.254.318-.254.318-.254.318-.253.32-.254.318-.254.318-.254.318-.254.318-.254.318-.254.318-.254.318-.254.318-.254.318-.254.318-.254.318-.254.318-.254.318-.254.318-.254.318-.254.318-.254.318-.254.318-.254.318-.254.318-.254.318-.254.318-.254.318-.254.318-.254.318-.254.318-.254.318-.254.318-.254.318-.254.318-.254.318-.252.332-.254.318-.254.318-.254.318-.254.318-.254.318-.254.32-.254.318-.254.318-.254.318-.254.318-.254.318-.254.318-.254.318-.254.318-.254.318-.254.318-.254.318-.254.318-.254.318-.254.318-.254.318-.254.318-.254.318-.254.318-.254.318-.254.318-.254.318-.254.318-.252.328-.254.318-.254.318-.254.318-.254.318-.254.318-.254.318-.254.318-.254.318-.254.318-.254.318-.254.318-.254.318-.254.318-.254.318-.254.318-.254.318-.254.318-.254.318-.253.326z" opacity=".6"/><path fill="#ff6800" d="m63.975 63.784-.348-.417-.348-.417-.348-.417-.348-.417-.348-.417-.348-.417-.348-.417-.348-.417-.348-.417-.348-.417-.348-.417-.348-.417-.348-.417-.348-.417-.348-.417-.348-.417-.348-.417-.348-.417-.348-.417-.348-.417-.348-.417-.348-.417-.348-.417-.348-.417-.348-.417-.348-.417-.348-.417-.348-.417-.348-.417-.348-.417-.348-.417-.348-.417-.348-.417-.348-.417-.348-.417-.348-.417-.348-.417-.348-.417-.348-.417-.348-.417-.348-.417-.348-.417-.348-.417-.348-.417-.348-.417-.348-.417-.348-.417-.348-.417-.348-.417-.348-.417-.348-.417-.348-.417-.348-.417-.348-.417-.348-.417-.348-.417-.348-.417-.348-.417-.348-.417-.348-.417-.348-.417-.348-.417-.348-.417-.348-.417-.348-.417-.348-.417-.348-.417-.348-.417-.348-.417-.348-.417-.348-.417-.348-.417-.348-.417-.348-.417-.348-.417-.348-.417-.348-.417-.348-.417-.348-.417-.348-.417-.348-.417-.348-.417-.348-.417-.348-.417-.348-.417-.348-.417-.348-.417-.348-.417-.348-.417-.348-.417-.348-.417-.348-.417-.348-.417-.349-.403-.348-.417-.348-.417-.348-.417-.348-.417-.348-.417-.348-.417.197-.164.198-.163.198-.162.199-.161.2-.16.201-.159.201-.158.202-.157.203-.156.204-.155.204-.154.205-.153.206-.152.206-.151.207-.15.208-.149.209-.148.209-.147.21-.146.211-.145.211-.144.212-.143.213-.142.213-.141.214-.14.215-.139.215-.138.216-.137.217-.136.217-.135.218-.134.219-.133.219-.132.22-.131.22-.13.221-.129.222-.128.222-.127.223-.126.223-.125.224-.124.225-.123.225-.122.226-.121.226-.12.227-.118.227-.117.228-.116.228-.115.229-.114.23-.113.23-.112.231-.111.231-.11.232-.109.232-.108.233-.107.233-.105.234-.104.234-.103.235-.102.235-.101.236-.1.236-.099.237-.098.237-.097.237-.095.238-.094.238-.093.239-.092.239-.091.24-.09.24-.089.24-.088.241-.086.241-.085.242-.084.242-.083.242-.082.243-.081.243-.08.244-.078.244-.077.244-.076.245-.075.245-.074.245-.073.246-.072.246-.07.246-.069.247-.068.247-.067.247-.066.248-.065.248-.063.248-.062.249-.061.249-.06.249-.059.249-.058.121.529.121.529.121.529.121.529.121.529.121.529.121.529.121.529.121.529.121.529.121.529.121.529.121.529.121.529.121.529.121.529.121.529.121.529.121.529.121.529.121.529.121.529.121.529.121.529.121.529.121.529.121.529.121.529.121.529.121.529.121.529.121.529.121.529.113.543.121.529.121.529.121.529.121.529.121.529.121.529.121.529.121.529.121.529.121.529.121.529.121.529.121.529.121.529.121.529.121.529.121.529.121.529.121.529.121.529.121.529.121.529.121.529.121.529.121.529.121.529.121.529.121.529.121.529.121.529.121.529.121.529.121.529.121.529.121.529.121.529.121.529.121.529.121.529.121.529.121.529.121.529.121.529.121.529.121.529.121.529.121.529.121.529.121.529.121.529.121.529.121.529.121.529.121.529.121.529.121.529.121.529.121.529.121.529.121.529.121.529.121.529.121.529.121.529.121.529.11.556z" opacity=".6"/><path fill="#ffc400" d="m63.975 63.784-.468.085-.468.085-.468.085-.468.085-.468.085-.468.085-.468.085-.468.085-.468.085-.463.083-.468.085-.468.085-.468.085-.468.085-.468.085-.468.085-.468.085-.468.085-.468.085-.468.085-.468.085-.462.083-.468.085-.468.085-.468.085-.466.085-.468.085-.468.085-.468.085-.468.085-.468.085-.468.085-.468.085-.468.085-.468.085-.468.085-.468.085-.468.085-.468.085-.468.085-.468.085-.468.085-.468.085-.468.085-.468.085-.468.085-.468.085-.468.085-.468.085-.456.081-.468.085-.468.085-.468.085-.468.085-.468.085-.468.085-.468.085-.468.085-.468.085-.468.085-.468.085-.468.085-.468.085-.468.085-.468.085-.468.085-.468.085-.468.085-.468.085-.468.085-.468.085-.468.085-.468.085-.468.085-.468.085-.468.085-.468.085-.468.085-.468.085-.468.085-.468.085-.468.085-.468.085-.468.085-.468.085-.45.079-.468.085-.468.085-.468.085-.466.085-.468.085-.468.085-.468.085-.468.085-.468.085-.468.085-.468.085-.468.085-.468.085-.468.085-.052-.294-.051-.294-.049-.295-.047-.295-.045-.295-.038-.297-.041-.296-.039-.296-.038-.296-.036-.296-.034-.297-.032-.297-.03-.297-.028-.297-.026-.297-.024-.298-.023-.298-.021-.298-.019-.298-.017-.298-.015-.298-.013-.298-.011-.298-.009-.298-.008-.298-.006-.298-.004-.299-.002-.299v-.299l.002-.299.004-.299.005-.298.007-.298.009-.298.011-.298.013-.298.015-.298.017-.298.019-.298.02-.298.022-.298.024-.298.026-.297.028-.297.03-.297.032-.297.034-.297.035-.296.037-.296.039-.296.041-.296.043-.295.045-.295.047-.295.048-.295.05-.294.052-.294.054-.294.056-.293.058-.293.059-.293.061-.292.063-.292.065-.291.067-.291.069-.291.07-.29.072-.29.074-.289.076-.289.078-.288.08-.288.081-.287.083-.287.085-.286.087-.286.089-.285.09-.285.092-.284.094-.283.096-.283.097-.282.099-.282.101-.281.103-.28.105-.28.106-.279.108-.278.11-.278.112-.277.113-.276.115-.276.117-.275.118-.274.12-.273.122-.273.124-.272.125-.271.127-.27.129-.269.428.206.428.206.428.206.428.206.428.206.428.206.428.206.428.206.428.206.428.206.428.206.428.206.428.206.428.206.428.206.428.206.428.206.428.206.428.206.428.206.428.206.428.206.428.206.428.206.428.206.428.206.428.206.428.206.428.206.428.206.428.206.428.206.428.206.428.206.428.206.428.206.428.206.428.206.428.206.428.206.428.206.428.206.428.206.428.206.428.206.428.206.428.206.428.206.428.206.428.206.428.206.428.206.428.206.428.206.428.206.428.206.428.206.428.206.428.206.428.206.428.206.428.206.428.206.428.206.428.206.428.206.428.206.428.206.428.206.428.206.428.206.428.206.428.206.428.206.428.206.428.206.428.206.428.206.428.206.428.206.428.206.428.206.428.206.428.206.428.206.428.206.428.206.428.206.428.206.428.206.428.206.428.206.428.206.428.206.428.206.428.206.428.206.428.206.428.206.436.223z" opacity=".6"/><path fill="#29ffce" d="m63.975 63.784-.223.155-.223.155-.223.155-.223.155-.223.155-.223.155-.223.155-.224.151-.223.155-.223.155-.223.155-.223.155-.223.155-.223.155-.223.155-.223.155-.223.155-.223.155-.223.155-.223.155-.223.155-.223.155-.223.155-.223.155-.223.155-.223.155-.223.155-.223.155-.223.155-.223.155-.223.155-.223.155-.223.155-.223.155-.223.155-.223.155-.223.155-.223.155-.223.155-.223.155-.223.155-.223.155-.223.155-.223.155-.223.155-.223.155-.223.155-.223.155-.223.155-.223.155-.223.155-.223.155-.223.155-.223.155-.232.137-.223.155-.223.155-.223.155-.223.155-.223.155-.223.155-.223.155-.223.155-.223.155-.223.155-.223.155-.223.155-.223.155-.223.155-.223.155-.223.155-.223.155-.223.155-.223.155-.223.155-.223.155-.223.155-.223.155-.223.155-.223.155-.223.155-.223.155-.223.155-.223.155-.223.155-.223.155-.223.155-.223.155-.223.155-.223.155-.223.155-.223.155-.223.155-.223.155-.223.155-.223.155-.223.155-.223.155-.231.138-.223.155-.024-.035-.024-.035-.024-.035-.024-.035-.024-.035-.024-.035-.024-.035-.024-.035-.024-.035-.024-.035-.024-.035-.024-.035-.024-.036-.024-.036-.023-.036-.023-.036-.023-.036-.023-.036-.023-.036-.023-.036-.023-.036-.023-.036-.023-.036-.023-.036-.023-.036-.023-.036-.023-.036-.023-.036-.023-.036-.023-.036-.023-.036-.023-.036-.022-.036-.022-.036-.022-.036-.022-.036-.022-.036-.022-.036-.022-.036-.022-.036-.022-.037-.022-.037-.022-.037-.022-.037-.022-.037-.022-.037-.022-.037-.022-.037-.022-.037-.021-.037-.021-.037-.021-.037-.021-.037-.021-.037-.021-.037-.021-.037-.021-.037-.021-.037-.021-.037-.021-.037-.021-.037-.021-.037-.021-.037-.021-.037-.021-.037-.021-.037-.021-.037-.02-.037-.02-.037-.02-.037-.02-.038-.02-.038-.02-.038-.02-.038-.02-.038-.02-.038-.02-.038-.02-.038-.02-.038-.02-.038-.02-.038-.02-.038-.02-.038-.019-.038-.019-.038-.019-.038-.019-.038-.019-.038-.019-.038-.019-.038-.019-.038-.019-.038-.019-.038-.019-.038-.019-.038-.019-.038-.019-.038-.019-.041-.019-.038-.019-.038.245-.118.245-.118.245-.118.245-.118.245-.118.245-.118.245-.118.245-.118.245-.118.245-.118.245-.118.245-.118.245-.118.245-.118.245-.118.245-.118.245-.118.245-.118.245-.118.245-.118.245-.118.245-.118.245-.118.245-.118.245-.118.245-.118.245-.118.245-.118.245-.118.245-.118.245-.118.245-.118.245-.118.245-.118.245-.118.245-.118.245-.118.245-.118.245-.118.245-.118.245-.118.245-.118.245-.118.245-.118.245-.118.245-.118.245-.118.245-.118.245-.118.245-.118.245-.118.245-.118.245-.118.245-.118.245-.118.245-.118.245-.118.245-.118.245-.118.245-.118.245-.118.245-.118.245-.118.245-.118.245-.118.245-.118.245-.118.245-.118.245-.118.245-.118.245-.118.245-.118.245-.118.245-.118.245-.118.245-.118.245-.118.245-.118.245-.118.245-.118.245-.118.245-.118.245-.118.245-.118.245-.118.245-.118.245-.118.245-.118.245-.118.245-.118.245-.118.245-.118.245-.118.245-.118.245-.118.245-.118.245-.118.245-.118.245-.118.208-.098z" opacity=".6"/><path fill="#7dff7a" d="m63.975 63.784.057.335.057.335.057.335.057.335.057.335.057.335.057.335.057.335.057.335.057.335.057.335.057.335.057.335.057.335.057.335.057.335.057.335.057.335.057.335.057.335.057.335.057.335.057.335.057.335.057.335.057.335.057.335.057.335.057.335.057.335.057.335.057.335.057.335.057.335.057.335.057.335.057.335.057.335.057.335.057.335.057.335.057.335.057.335.057.335.057.335.057.335.057.335.057.335.057.335.057.335.057.335.057.335.057.335.057.335.057.335.057.335.057.335.057.335.057.335.057.335.057.335.057.335.057.335.057.335.057.335.057.335.057.335.057.335.057.335.057.335.057.335.057.335.057.335.057.335.057.335.057.335.057.335.057.335.057.335.057.335.057.335.057.335.057.335.057.335.057.335.057.335.057.335.057.335.057.335.057.335.057.335.057.335.057.335.057.335.057.335.057.335.057.335.057.335.057.335.057.335-.131.022-.132.022-.132.021-.132.021-.132.02-.132.019-.132.019-.132.018-.132.018-.132.017-.132.017-.132.016-.132.016-.132.015-.132.015-.132.014-.133.014-.133.013-.133.013-.133.012-.133.012-.133.011-.133.011-.133.01-.133.01-.133.009-.133.009-.133.008-.133.007-.133.007-.133.007-.133.006-.133.005-.133.005-.133.004-.133.004-.133.003-.133.003-.133.002-.133.002-.133.001-.133.001h-.266l-.133-.001-.133-.001-.133-.002-.133-.002-.133-.003-.133-.003-.133-.004-.153-.047-.133-.005-.133-.005-.133-.006-.133-.007-.134-.007-.133-.008-.133-.008-.133-.009-.133-.009-.133-.01-.133-.01-.133-.011-.133-.011-.133-.012-.133-.012-.133-.013-.133-.013-.133-.014-.132-.015-.13-.015-.132-.015-.132-.016-.132-.017-.132-.017-.132-.018-.132-.018-.132-.019-.132-.019-.132-.02-.132-.02-.132-.021-.132-.021-.131-.022-.131-.022-.131-.023-.131-.023-.131-.024-.131-.024-.131-.025-.131-.025-.131-.026-.131-.026-.131-.027-.13-.027-.13-.028-.13-.028-.13-.029-.13-.029.076-.331.076-.331.076-.331.076-.331.076-.331.076-.331.076-.331.076-.331.076-.331.076-.331.076-.331.076-.331.076-.331.076-.331.076-.331.076-.331.076-.331.076-.331.076-.331.076-.331.076-.331.076-.331.076-.331.076-.331.076-.331.076-.331.076-.331.076-.331.076-.331.076-.331.076-.331.076-.331.076-.331.076-.331.076-.331.076-.331.076-.331.076-.331.076-.331.076-.331.076-.331.076-.331.076-.331.076-.331.076-.331.076-.331.076-.331.076-.331.076-.331.076-.331.076-.331.076-.331.076-.331.076-.331.076-.331.076-.331.076-.331.076-.331.076-.331.076-.331.076-.331.076-.331.076-.331.076-.331.076-.331.076-.331.076-.331.076-.331.076-.331.076-.331.076-.331.076-.331.076-.331.076-.331.076-.331.076-.331.076-.331.076-.331.076-.331.076-.331.076-.331.076-.331.076-.331.076-.331.076-.331.076-.331.076-.331.076-.331.076-.331.076-.331.076-.331.076-.331.076-.331.076-.331.076-.331.076-.331.076-.331.076-.331.076-.331.027-.318z" opacity=".6"/><path fill="#ff6800" d="m63.975 63.784.428.334.428.334.428.334.428.334.428.334.428.334.428.334.428.334.428.334.428.334.428.334.428.334.428.334.428.334.433.33.428.334.428.334.428.334.428.334.428.334.428.334.428.334.428.334.428.334.428.334.428.334.428.334.428.334.428.334.428.334.428.334.428.334.428.334.428.334.428.334.428.334.428.334.428.334.428.334.428.334.428.334.428.334.428.334.428.334.428.334.428.334.428.334.428.334.428.334.428.334.428.334.428.334.428.334.428.334.428.334.428.334.428.334.428.334.428.334.428.334.428.334.428.334.428.334.428.334.428.334.428.334.428.334.428.334.428.334.428.334.428.334.428.334.428.334.428.334.428.334.428.334.428.334.428.334.428.334.428.334.428.334.428.334.428.334.428.334.428.334.428.334.428.334.428.334.428.334.428.334.428.334.428.334.428.334.428.334.428.334.428.334.428.334.428.334.428.334.428.334-.079.101-.079.101-.079.1-.079.1-.08.1-.08.1-.08.1-.08.1-.081.099-.081.099-.081.099-.081.099-.082.099-.082.098-.082.098-.082.098-.083.098-.083.098-.083.097-.083.097-.083.097-.084.097-.084.097-.084.096-.084.096-.085.096-.085.096-.085.096-.085.095-.085.095-.086.095-.086.095-.086.095-.086.094-.087.094-.087.094-.087.094-.087.094-.087.093-.088.093-.088.093-.088.093-.088.093-.089.092-.089.092-.089.092-.089.092-.089.092-.09.091-.09.091-.09.091-.09.091-.09.09-.091.09-.091.09-.091.09-.091.09-.092.089-.092.089-.092.089-.092.089-.092.089-.093.088-.093.088-.093.088-.093.088-.093.087-.094.087-.094.087-.094.087-.094.087-.094.086-.068.066-.095.086-.095.086-.095.085-.095.085-.096.085-.096.085-.096.084-.096.084-.096.084-.097.084-.097.084-.097.083-.097.083-.097.083-.098.083-.098.082-.098.082-.098.082-.098.082-.099.082-.099.081-.099.081-.099.081-.099.081-.1.08-.1.08-.1.08-.339-.425-.338-.424-.339-.425-.339-.425-.339-.425-.339-.425-.339-.425-.339-.425-.339-.425-.339-.425-.339-.425-.339-.425-.339-.425-.339-.425-.339-.425-.339-.425-.339-.425-.339-.425-.339-.425-.339-.425-.339-.425-.339-.425-.339-.425-.339-.425-.339-.425-.33-.414-.339-.425-.339-.425-.339-.425-.339-.425-.339-.425-.339-.425-.339-.425-.339-.425-.339-.425-.339-.425-.339-.425-.339-.425-.339-.425-.339-.425-.339-.425-.339-.425-.339-.425-.339-.425-.339-.425-.339-.425-.339-.425-.339-.425-.339-.425-.339-.425-.339-.425-.339-.425-.339-.425-.339-.425-.339-.425-.339-.425-.339-.425-.339-.425-.339-.425-.339-.425-.339-.425-.339-.425-.339-.425-.339-.425-.339-.425-.339-.425-.339-.425-.339-.425-.339-.425-.339-.425-.339-.425-.339-.425-.339-.425-.339-.425-.339-.425-.339-.425-.339-.425-.339-.425-.339-.425-.339-.425-.339-.425-.339-.425-.339-.425-.339-.425-.339-.425-.339-.425-.339-.425-.339-.425-.339-.425-.339-.425-.339-.425-.339-.425-.339-.425-.339-.425-.339-.425-.339-.425-.339-.425-.339-.425-.339-.425-.307-.391z" opacity=".6"/><path fill="#2c2c2c" d="m77.551 64.198-13.576-.001a.414.414 0 0 1-.128-.806l12.912-4.194a.413.413 0 0 1 .521.265c.455 1.398.685 2.853.684 4.323a.413.413 0 0 1-.413.413zm-10.965-.828h10.545a13.114 13.114 0 0 0-.516-3.258L66.586 63.37z"/><path fill="#2c2c2c" d="M63.975 64.197a.414.414 0 0 1-.387-.558L77.899 25.51a.412.412 0 0 1 .532-.242 41 41 0 0 1 11.196 6.351.414.414 0 0 1 .066.581L64.298 64.041a.415.415 0 0 1-.323.156zm14.552-38.008L65.28 61.484l23.507-29.475a40.163 40.163 0 0 0-10.26-5.82z"/><path fill="#2c2c2c" d="M63.975 64.197a.415.415 0 0 1-.317-.148L28.857 22.364a.412.412 0 0 1 .052-.582A54.784 54.784 0 0 1 51.801 10.44a.414.414 0 0 1 .495.312l12.083 52.941a.415.415 0 0 1-.22.463.444.444 0 0 1-.184.041zM29.757 22.152l33.431 40.044-11.607-50.857a53.967 53.967 0 0 0-21.824 10.813z"/><path fill="#2c2c2c" d="M17.224 72.681a.413.413 0 0 1-.406-.339c-1.813-9.884-.401-20.309 3.977-29.355a.414.414 0 0 1 .552-.193l42.808 20.615a.413.413 0 0 1-.106.78l-46.75 8.485a.318.318 0 0 1-.075.007zm4.136-28.96c-4.103 8.678-5.448 18.61-3.801 28.067l45.09-8.183L21.36 43.721z"/><path fill="#2c2c2c" d="M41.657 79.659a.42.42 0 0 1-.341-.178 27.673 27.673 0 0 1-2.177-3.738.413.413 0 0 1 .193-.552l24.462-11.78a.413.413 0 0 1 .415.713L41.893 79.586a.414.414 0 0 1-.236.073zm-1.59-3.904a27.058 27.058 0 0 0 1.697 2.913L59.42 66.436l-19.353 9.319z"/><path fill="#2c2c2c" d="M63.99 98.132c-2.58 0-5.165-.287-7.66-.857a.415.415 0 0 1-.311-.496l7.552-33.088c.044-.192.223-.354.415-.321a.412.412 0 0 1 .396.344l5.685 33.46a.414.414 0 0 1-.339.477 34.201 34.201 0 0 1-5.738.481zm-7.072-1.574c4 .86 8.22.98 12.264.344l-5.267-30.999-6.997 30.655z"/><path fill="#2c2c2c" d="M97.832 106.652a.413.413 0 0 1-.324-.156L63.651 64.041a.413.413 0 0 1 .577-.584l42.833 33.379a.414.414 0 0 1 .072.581 54.697 54.697 0 0 1-9.045 9.146.409.409 0 0 1-.256.089zM66.477 66.258l31.42 39.399a53.985 53.985 0 0 0 8.329-8.423L66.477 66.258z"/>
</svg>
<svg x="2083.0" y="344.0" width="58.0" height="58.0" viewBox="0 0 24 24" preserveAspectRatio="xMidYMid meet">
<path d="M21.602 0s-1.524 5.809-8.516 2.658c-.776-.35-.954-.444-.982-.469L2.074 6.301l10.043 4.896s.776-.326 2.026-.933C20.273 7.287 21.602 0 21.602 0zM1.59 8.486v10.448L10.947 24V13.242L1.59 8.486zm20.82 0l-9.357 4.756V24l9.357-5.066V8.486Z"/>
</svg>
<text x="2084.0" y="456.0" text-anchor="middle" font-family="Arial, Helvetica, sans-serif" font-size="30" font-weight="700" fill="#1F2937">Paper</text>
<text x="2084.0" y="492.0" text-anchor="middle" font-family="Arial, Helvetica, sans-serif" font-size="30" font-weight="700" fill="#1F2937">and Poster</text>
<text x="2084.0" y="590.0" text-anchor="middle" font-family="Arial, Helvetica, sans-serif" font-size="21" font-weight="400" fill="#1F2937">PNG/SVG figures</text>
<text x="2084.0" y="620.0" text-anchor="middle" font-family="Arial, Helvetica, sans-serif" font-size="21" font-weight="400" fill="#1F2937">Sections 5-6</text>
<text x="2084.0" y="650.0" text-anchor="middle" font-family="Arial, Helvetica, sans-serif" font-size="21" font-weight="400" fill="#1F2937">poster story</text>
<rect x="330" y="845" width="1640" height="112" rx="24" fill="#FFFFFF" stroke="#CBD5E1" stroke-width="2"/>
<text x="1150.0" y="892.0" text-anchor="middle" font-family="Arial, Helvetica, sans-serif" font-size="25" font-weight="700" fill="#1F2937">Poster takeaway</text>
<text x="1150.0" y="930.0" text-anchor="middle" font-family="Arial, Helvetica, sans-serif" font-size="23" font-weight="400" fill="#5B6472">MathOntoSpeak is a linked-data accessibility pipeline: graph semantics drive multiple surface forms, audio output, and evaluation evidence.</text>
<text x="1150.0" y="1040.0" text-anchor="middle" font-family="Arial, Helvetica, sans-serif" font-size="18" font-weight="400" fill="#5B6472">Logo marks are used for tool identification. Attribution and license notes: reports/evaluation/week6_figure_5_icon_attribution.md</text>
</svg>